M48
; DRILL file KiCad 10.0.6 date 2026-09-28T08:15:06
; FORMAT={-:-/ absolute / metric / decimal}
; #@! TF.CreationDate,2026-09-28T08:15:06-07:00
; #@! TF.GenerationSoftware,Kicad,Pcbnew,10.0.6
; #@! TF.FileFunction,NonPlated,1,2,NPTH
FMAT,2
METRIC
; #@! TA.AperFunction,NonPlated,NPTH,ComponentDrill
T1C1.750
; #@! TA.AperFunction,NonPlated,NPTH,ComponentDrill
T2C3.200
; #@! TA.AperFunction,NonPlated,NPTH,ComponentDrill
T3C3.988
%
G90
G05
T1
X53.988Y-78.31
X53.988Y-106.884
X56.369Y-183.079
X58.751Y-125.932
X61.132Y-144.981
X64.148Y-78.31
X64.148Y-106.884
X65.894Y-164.03
X66.529Y-183.079
X68.911Y-125.932
X71.292Y-144.981
X73.037Y-106.884
X76.054Y-164.03
X80.18Y-183.079
X82.562Y-78.31
X82.562Y-125.932
X83.197Y-106.884
X87.324Y-144.981
X90.34Y-183.079
X92.086Y-106.884
X92.722Y-78.31
X92.722Y-125.932
X96.848Y-164.03
X97.484Y-144.981
X101.61Y-78.31
X101.61Y-125.932
X102.246Y-106.884
X103.992Y-183.079
X106.373Y-144.981
X107.008Y-164.03
X111.135Y-106.884
X111.77Y-78.31
X111.77Y-125.932
X114.151Y-183.079
X115.897Y-164.03
X116.533Y-144.981
X120.659Y-78.31
X120.659Y-125.932
X121.295Y-106.884
X125.421Y-144.981
X126.057Y-164.03
X130.184Y-106.884
X130.819Y-78.31
X130.819Y-125.932
X134.946Y-164.03
X135.581Y-144.981
X139.708Y-78.31
X139.708Y-125.932
X140.344Y-106.884
X144.47Y-144.981
X145.106Y-164.03
X149.232Y-106.884
X149.868Y-78.31
X149.868Y-125.932
X153.995Y-164.03
X154.63Y-144.981
X158.757Y-125.932
X159.392Y-106.884
X163.519Y-144.981
X164.155Y-164.03
X168.281Y-78.31
X168.281Y-106.884
X168.917Y-125.932
X173.043Y-164.03
X173.679Y-144.981
X175.424Y-183.079
X177.806Y-125.932
X178.441Y-78.31
X178.441Y-106.884
X182.568Y-144.981
X183.203Y-164.03
X185.584Y-183.079
X187.33Y-78.31
X187.33Y-106.884
X187.966Y-125.932
X192.092Y-164.03
X192.728Y-144.981
X196.854Y-125.932
X197.49Y-78.31
X197.49Y-106.884
X201.617Y-144.981
X202.252Y-164.03
X206.379Y-78.31
X206.379Y-106.884
X207.014Y-125.932
X211.141Y-164.03
X211.777Y-144.981
X215.903Y-125.932
X216.539Y-78.31
X216.539Y-106.884
X220.665Y-144.981
X221.301Y-164.03
X225.428Y-78.31
X225.428Y-106.884
X226.063Y-125.932
X229.396Y-164.03
X230.825Y-144.981
X234.952Y-125.932
X235.588Y-78.31
X235.588Y-106.884
X239.556Y-164.03
X239.714Y-144.981
X244.476Y-106.884
X244.476Y-183.079
X245.112Y-125.932
X248.445Y-164.03
X249.874Y-144.981
X254.001Y-78.31
X254.001Y-125.932
X254.636Y-106.884
X254.636Y-183.079
X258.605Y-164.03
X258.763Y-144.981
X263.525Y-106.884
X263.525Y-183.079
X264.161Y-78.31
X264.161Y-125.932
X267.494Y-164.03
X268.923Y-144.981
X273.05Y-78.31
X273.05Y-125.932
X273.685Y-106.884
X273.685Y-183.079
X277.654Y-164.03
X277.812Y-144.981
X282.574Y-106.884
X282.574Y-183.079
X283.21Y-78.31
X283.21Y-125.932
X287.972Y-144.981
X292.098Y-78.31
X292.098Y-125.932
X292.734Y-106.884
X292.734Y-183.079
X294.479Y-164.03
X302.258Y-78.31
X302.258Y-125.932
X304.639Y-164.03
X306.385Y-187.841
X308.766Y-144.981
X311.147Y-78.31
X311.147Y-106.884
X315.909Y-125.932
X316.545Y-187.841
X318.926Y-144.981
X321.307Y-78.31
X321.307Y-106.884
X325.434Y-168.792
X325.434Y-187.841
X326.069Y-125.932
X335.594Y-168.792
X335.594Y-187.841
X339.72Y-78.31
X344.483Y-187.841
X349.245Y-106.884
X349.245Y-125.932
X349.245Y-144.981
X349.245Y-164.03
X349.88Y-78.31
X354.643Y-187.841
X358.769Y-78.31
X359.405Y-106.884
X359.405Y-125.932
X359.405Y-144.981
X359.405Y-164.03
X368.294Y-106.884
X368.294Y-125.932
X368.294Y-144.981
X368.294Y-164.03
X368.294Y-183.079
X368.929Y-78.31
X377.818Y-78.31
X378.454Y-106.884
X378.454Y-125.932
X378.454Y-144.981
X378.454Y-164.03
X378.454Y-183.079
X387.342Y-106.884
X387.342Y-125.932
X387.342Y-144.981
X387.342Y-164.03
X387.342Y-183.079
X387.978Y-78.31
X397.502Y-106.884
X397.502Y-125.932
X397.502Y-144.981
X397.502Y-164.03
X397.502Y-183.079
X406.391Y-106.884
X411.471Y-130.377
X411.471Y-140.537
X411.471Y-168.474
X411.471Y-178.634
X416.551Y-106.884
T2
X43.654Y-62.702
X43.654Y-132.548
X43.654Y-203.187
X138.897Y-62.702
X139.691Y-203.187
X235.729Y-62.702
X235.729Y-203.187
X331.767Y-62.702
X332.56Y-203.187
X395.263Y-62.702
X449.234Y-132.548
X449.234Y-203.187
T3
X59.068Y-172.285
X59.068Y-78.31
X59.068Y-106.884
X61.45Y-183.079
X63.831Y-125.932
X66.212Y-144.981
X70.974Y-164.03
X78.117Y-106.884
X82.88Y-172.285
X85.26Y-183.079
X87.642Y-78.31
X87.642Y-125.932
X92.404Y-144.981
X97.166Y-106.884
X101.928Y-164.03
X106.69Y-78.31
X106.69Y-125.932
X109.072Y-183.079
X111.453Y-144.981
X116.215Y-106.884
X120.977Y-164.03
X125.739Y-78.31
X125.739Y-125.932
X130.498Y-191.334
X130.501Y-144.981
X135.264Y-106.884
X140.026Y-164.03
X144.788Y-78.31
X144.788Y-125.932
X149.55Y-144.981
X154.312Y-106.884
X159.075Y-164.03
X163.837Y-125.932
X168.599Y-144.981
X173.361Y-78.31
X173.361Y-106.884
X178.123Y-164.03
X180.504Y-183.079
X182.886Y-125.932
X187.648Y-144.981
X192.41Y-78.31
X192.41Y-106.884
X197.172Y-164.03
X201.934Y-125.932
X206.697Y-144.981
X211.459Y-78.31
X211.459Y-106.884
X216.221Y-164.03
X220.983Y-125.932
X225.745Y-144.981
X230.508Y-78.31
X230.508Y-106.884
X230.511Y-191.334
X234.476Y-164.03
X240.032Y-125.932
X244.794Y-144.981
X249.556Y-106.884
X249.556Y-183.079
X253.525Y-164.03
X259.081Y-78.31
X259.081Y-125.932
X263.843Y-144.981
X268.605Y-106.884
X268.605Y-183.079
X272.574Y-164.03
X278.13Y-78.31
X278.13Y-125.932
X282.892Y-144.981
X287.654Y-106.884
X287.654Y-183.079
X297.178Y-78.31
X297.178Y-125.932
X299.56Y-164.03
X301.94Y-153.236
X304.321Y-115.139
X311.465Y-187.841
X313.846Y-144.981
X316.227Y-78.31
X316.227Y-106.884
X320.989Y-125.932
X325.752Y-153.236
X328.133Y-115.139
X330.514Y-168.792
X330.514Y-187.841
X344.8Y-78.31
X349.563Y-187.841
X354.325Y-106.884
X354.325Y-125.932
X354.325Y-144.981
X354.325Y-164.03
X363.849Y-78.31
X373.374Y-106.884
X373.374Y-125.932
X373.374Y-144.981
X373.374Y-164.03
X373.374Y-183.079
X382.898Y-78.31
X392.422Y-106.884
X392.422Y-125.932
X392.422Y-144.981
X392.422Y-164.03
X392.422Y-183.079
X411.471Y-106.884
X411.471Y-135.457
X411.471Y-173.554
X419.726Y-123.551
X419.726Y-147.363
X419.726Y-161.648
X419.726Y-185.461
M30
