%TF.GenerationSoftware,KiCad,Pcbnew,10.0.6*%
%TF.CreationDate,2026-09-28T08:14:50-07:00*%
%TF.ProjectId,vBoard,76426f61-7264-42e6-9b69-6361645f7063,rev?*%
%TF.SameCoordinates,Original*%
%TF.FileFunction,Soldermask,Bot*%
%TF.FilePolarity,Negative*%
%FSLAX46Y46*%
G04 Gerber Fmt 4.6, Leading zero omitted, Abs format (unit mm)*
G04 Created by KiCad (PCBNEW 10.0.6) date 2026-09-28 08:14:50*
%MOMM*%
%LPD*%
G01*
G04 APERTURE LIST*
G04 Aperture macros list*
%AMRoundRect*
0 Rectangle with rounded corners*
0 $1 Rounding radius*
0 $2 $3 $4 $5 $6 $7 $8 $9 X,Y pos of 4 corners*
0 Add a 4 corners polygon primitive as box body*
4,1,4,$2,$3,$4,$5,$6,$7,$8,$9,$2,$3,0*
0 Add four circle primitives for the rounded corners*
1,1,$1+$1,$2,$3*
1,1,$1+$1,$4,$5*
1,1,$1+$1,$6,$7*
1,1,$1+$1,$8,$9*
0 Add four rect primitives between the rounded corners*
20,1,$1+$1,$2,$3,$4,$5,0*
20,1,$1+$1,$4,$5,$6,$7,0*
20,1,$1+$1,$6,$7,$8,$9,0*
20,1,$1+$1,$8,$9,$2,$3,0*%
%AMFreePoly0*
4,1,37,0.603843,0.796157,0.639018,0.796157,0.711114,0.766294,0.766294,0.711114,0.796157,0.639018,0.796157,0.603843,0.800000,0.600000,0.800000,-0.600000,0.796157,-0.603843,0.796157,-0.639018,0.766294,-0.711114,0.711114,-0.766294,0.639018,-0.796157,0.603843,-0.796157,0.600000,-0.800000,0.000000,-0.800000,0.000000,-0.796148,-0.078414,-0.796148,-0.232228,-0.765552,-0.377117,-0.705537,
-0.507515,-0.618408,-0.618408,-0.507515,-0.705537,-0.377117,-0.765552,-0.232228,-0.796148,-0.078414,-0.796148,0.078414,-0.765552,0.232228,-0.705537,0.377117,-0.618408,0.507515,-0.507515,0.618408,-0.377117,0.705537,-0.232228,0.765552,-0.078414,0.796148,0.000000,0.796148,0.000000,0.800000,0.600000,0.800000,0.603843,0.796157,0.603843,0.796157,$1*%
%AMFreePoly1*
4,1,37,0.000000,0.796148,0.078414,0.796148,0.232228,0.765552,0.377117,0.705537,0.507515,0.618408,0.618408,0.507515,0.705537,0.377117,0.765552,0.232228,0.796148,0.078414,0.796148,-0.078414,0.765552,-0.232228,0.705537,-0.377117,0.618408,-0.507515,0.507515,-0.618408,0.377117,-0.705537,0.232228,-0.765552,0.078414,-0.796148,0.000000,-0.796148,0.000000,-0.800000,-0.600000,-0.800000,
-0.603843,-0.796157,-0.639018,-0.796157,-0.711114,-0.766294,-0.766294,-0.711114,-0.796157,-0.639018,-0.796157,-0.603843,-0.800000,-0.600000,-0.800000,0.600000,-0.796157,0.603843,-0.796157,0.639018,-0.766294,0.711114,-0.711114,0.766294,-0.639018,0.796157,-0.603843,0.796157,-0.600000,0.800000,0.000000,0.800000,0.000000,0.796148,0.000000,0.796148,$1*%
G04 Aperture macros list end*
%ADD10C,3.200000*%
%ADD11C,4.000000*%
%ADD12C,3.987800*%
%ADD13R,2.000000X2.000000*%
%ADD14C,2.000000*%
%ADD15R,2.000000X3.200000*%
%ADD16RoundRect,0.200000X-0.600000X-0.600000X0.600000X-0.600000X0.600000X0.600000X-0.600000X0.600000X0*%
%ADD17C,1.600000*%
%ADD18FreePoly0,0.000000*%
%ADD19FreePoly1,0.000000*%
%ADD20C,1.750000*%
%ADD21C,3.300000*%
%ADD22RoundRect,0.250000X1.025000X1.000000X-1.025000X1.000000X-1.025000X-1.000000X1.025000X-1.000000X0*%
%ADD23RoundRect,0.225000X0.375000X-0.225000X0.375000X0.225000X-0.375000X0.225000X-0.375000X-0.225000X0*%
%ADD24RoundRect,0.250000X1.000000X-1.025000X1.000000X1.025000X-1.000000X1.025000X-1.000000X-1.025000X0*%
%ADD25RoundRect,0.225000X0.225000X0.375000X-0.225000X0.375000X-0.225000X-0.375000X0.225000X-0.375000X0*%
G04 APERTURE END LIST*
D10*
%TO.C,H4*%
X332560300Y-203187200D03*
%TD*%
%TO.C,H6*%
X43653500Y-132547900D03*
%TD*%
D11*
%TO.C,S11*%
X130498250Y-176093800D03*
D12*
X130498250Y-191333800D03*
D11*
X230510750Y-176093800D03*
D12*
X230510750Y-191333800D03*
%TD*%
D13*
%TO.C,SW98*%
X413636600Y-70532600D03*
D14*
X408636600Y-70532600D03*
X411136600Y-70532600D03*
D15*
X416736600Y-78032600D03*
X405536600Y-78032600D03*
D14*
X408636600Y-85032600D03*
X413636600Y-85032600D03*
%TD*%
D10*
%TO.C,H5*%
X449234200Y-203187200D03*
%TD*%
%TO.C,H8*%
X138897500Y-62702300D03*
%TD*%
%TO.C,H12*%
X449234200Y-132547900D03*
%TD*%
D11*
%TO.C,S4*%
X404486200Y-147363050D03*
D12*
X419726200Y-147363050D03*
D11*
X404486200Y-123550550D03*
D12*
X419726200Y-123550550D03*
%TD*%
D10*
%TO.C,H1*%
X43653500Y-203187200D03*
%TD*%
%TO.C,H7*%
X43653500Y-62702300D03*
%TD*%
D11*
%TO.C,S5*%
X404486200Y-185460650D03*
D12*
X419726200Y-185460650D03*
D11*
X404486200Y-161648150D03*
D12*
X419726200Y-161648150D03*
%TD*%
D10*
%TO.C,H3*%
X235728900Y-203187200D03*
%TD*%
D11*
%TO.C,S1*%
X59067650Y-157045000D03*
D12*
X59067650Y-172285000D03*
D11*
X82880150Y-157045000D03*
D12*
X82880150Y-172285000D03*
%TD*%
D10*
%TO.C,H10*%
X331766600Y-62702300D03*
%TD*%
%TO.C,H2*%
X139691200Y-203187200D03*
%TD*%
%TO.C,H9*%
X235728900Y-62702300D03*
%TD*%
%TO.C,H11*%
X395262600Y-62702300D03*
%TD*%
D16*
%TO.C,A1*%
X429232400Y-63171400D03*
D17*
X429232400Y-65711400D03*
D18*
X429232400Y-68251400D03*
D17*
X429232400Y-70791400D03*
X429232400Y-73331400D03*
X429232400Y-75871400D03*
X429232400Y-78411400D03*
D18*
X429232400Y-80951400D03*
D17*
X429232400Y-83491400D03*
X429232400Y-86031400D03*
X429232400Y-88571400D03*
X429232400Y-91111400D03*
D18*
X429232400Y-93651400D03*
D17*
X429232400Y-96191400D03*
X429232400Y-98731400D03*
X429232400Y-101271400D03*
X429232400Y-103811400D03*
D18*
X429232400Y-106351400D03*
D17*
X429232400Y-108891400D03*
X429232400Y-111431400D03*
X447012400Y-111431400D03*
X447012400Y-108891400D03*
D19*
X447012400Y-106351400D03*
D17*
X447012400Y-103811400D03*
X447012400Y-101271400D03*
X447012400Y-98731400D03*
X447012400Y-96191400D03*
D19*
X447012400Y-93651400D03*
D17*
X447012400Y-91111400D03*
X447012400Y-88571400D03*
X447012400Y-86031400D03*
X447012400Y-83491400D03*
D19*
X447012400Y-80951400D03*
D17*
X447012400Y-78411400D03*
X447012400Y-75871400D03*
X447012400Y-73331400D03*
X447012400Y-70791400D03*
D19*
X447012400Y-68251400D03*
D17*
X447012400Y-65711400D03*
X447012400Y-63171400D03*
%TD*%
D20*
%TO.C,SW46*%
X283209600Y-125932400D03*
D12*
X278129600Y-125932400D03*
D20*
X273049600Y-125932400D03*
D21*
X274319600Y-123392400D03*
D22*
X270769600Y-123392400D03*
X284219600Y-120852400D03*
D21*
X280669600Y-120852400D03*
%TD*%
D23*
%TO.C,D32*%
X382898000Y-116947300D03*
X382898000Y-113647300D03*
%TD*%
D20*
%TO.C,SW30*%
X321307200Y-106883600D03*
D12*
X316227200Y-106883600D03*
D20*
X311147200Y-106883600D03*
D21*
X312417200Y-104343600D03*
D22*
X308867200Y-104343600D03*
X322317200Y-101803600D03*
D21*
X318767200Y-101803600D03*
%TD*%
D20*
%TO.C,SW34*%
X416551200Y-106883600D03*
D12*
X411471200Y-106883600D03*
D20*
X406391200Y-106883600D03*
D21*
X407661200Y-104343600D03*
D22*
X404111200Y-104343600D03*
X417561200Y-101803600D03*
D21*
X414011200Y-101803600D03*
%TD*%
D23*
%TO.C,D66*%
X363849200Y-155044900D03*
X363849200Y-151744900D03*
%TD*%
%TO.C,D72*%
X149550200Y-174093700D03*
X149550200Y-170793700D03*
%TD*%
D20*
%TO.C,SW29*%
X292734000Y-106883600D03*
D12*
X287654000Y-106883600D03*
D20*
X282574000Y-106883600D03*
D21*
X283844000Y-104343600D03*
D22*
X280294000Y-104343600D03*
X293744000Y-101803600D03*
D21*
X290194000Y-101803600D03*
%TD*%
D20*
%TO.C,SW27*%
X254636400Y-106883600D03*
D12*
X249556400Y-106883600D03*
D20*
X244476400Y-106883600D03*
D21*
X245746400Y-104343600D03*
D22*
X242196400Y-104343600D03*
X255646400Y-101803600D03*
D21*
X252096400Y-101803600D03*
%TD*%
D20*
%TO.C,SW49*%
X359404800Y-125932400D03*
D12*
X354324800Y-125932400D03*
D20*
X349244800Y-125932400D03*
D21*
X350514800Y-123392400D03*
D22*
X346964800Y-123392400D03*
X360414800Y-120852400D03*
D21*
X356864800Y-120852400D03*
%TD*%
D23*
%TO.C,D45*%
X268605200Y-135996100D03*
X268605200Y-132696100D03*
%TD*%
D20*
%TO.C,SW23*%
X178441200Y-106883600D03*
D12*
X173361200Y-106883600D03*
D20*
X168281200Y-106883600D03*
D21*
X169551200Y-104343600D03*
D22*
X166001200Y-104343600D03*
X179451200Y-101803600D03*
D21*
X175901200Y-101803600D03*
%TD*%
D20*
%TO.C,SW55*%
X116532600Y-144981200D03*
D12*
X111452600Y-144981200D03*
D20*
X106372600Y-144981200D03*
D21*
X107642600Y-142441200D03*
D22*
X104092600Y-142441200D03*
X117542600Y-139901200D03*
D21*
X113992600Y-139901200D03*
%TD*%
D20*
%TO.C,SW10*%
X264160800Y-78310400D03*
D12*
X259080800Y-78310400D03*
D20*
X254000800Y-78310400D03*
D21*
X255270800Y-75770400D03*
D22*
X251720800Y-75770400D03*
X265170800Y-73230400D03*
D21*
X261620800Y-73230400D03*
%TD*%
D20*
%TO.C,SW14*%
X349880400Y-78310400D03*
D12*
X344800400Y-78310400D03*
D20*
X339720400Y-78310400D03*
D21*
X340990400Y-75770400D03*
D22*
X337440400Y-75770400D03*
X350890400Y-73230400D03*
D21*
X347340400Y-73230400D03*
%TD*%
D20*
%TO.C,SW77*%
X239556100Y-164030000D03*
D12*
X234476100Y-164030000D03*
D20*
X229396100Y-164030000D03*
D21*
X230666100Y-161490000D03*
D22*
X227116100Y-161490000D03*
X240566100Y-158950000D03*
D21*
X237016100Y-158950000D03*
%TD*%
D23*
%TO.C,D41*%
X192410000Y-135996100D03*
X192410000Y-132696100D03*
%TD*%
%TO.C,D48*%
X330513800Y-135996100D03*
X330513800Y-132696100D03*
%TD*%
D20*
%TO.C,SW32*%
X378453600Y-106883600D03*
D12*
X373373600Y-106883600D03*
D20*
X368293600Y-106883600D03*
D21*
X369563600Y-104343600D03*
D22*
X366013600Y-104343600D03*
X379463600Y-101803600D03*
D21*
X375913600Y-101803600D03*
%TD*%
D23*
%TO.C,D26*%
X240032000Y-116947300D03*
X240032000Y-113647300D03*
%TD*%
%TO.C,D13*%
X325751600Y-88374100D03*
X325751600Y-85074100D03*
%TD*%
%TO.C,D35*%
X73355000Y-135996100D03*
X73355000Y-132696100D03*
%TD*%
D20*
%TO.C,SW86*%
X90340500Y-183078800D03*
D12*
X85260500Y-183078800D03*
D20*
X80180500Y-183078800D03*
D21*
X81450500Y-180538800D03*
D22*
X77900500Y-180538800D03*
X91350500Y-177998800D03*
D21*
X87800500Y-177998800D03*
%TD*%
D23*
%TO.C,D34*%
X420995600Y-116947300D03*
X420995600Y-113647300D03*
%TD*%
D20*
%TO.C,SW4*%
X130819200Y-78310400D03*
D12*
X125739200Y-78310400D03*
D20*
X120659200Y-78310400D03*
D21*
X121929200Y-75770400D03*
D22*
X118379200Y-75770400D03*
X131829200Y-73230400D03*
D21*
X128279200Y-73230400D03*
%TD*%
D23*
%TO.C,D58*%
X178123400Y-155044900D03*
X178123400Y-151744900D03*
%TD*%
D20*
%TO.C,SW38*%
X130819200Y-125932400D03*
D12*
X125739200Y-125932400D03*
D20*
X120659200Y-125932400D03*
D21*
X121929200Y-123392400D03*
D22*
X118379200Y-123392400D03*
X131829200Y-120852400D03*
D21*
X128279200Y-120852400D03*
%TD*%
D20*
%TO.C,SW2*%
X92721600Y-78310400D03*
D12*
X87641600Y-78310400D03*
D20*
X82561600Y-78310400D03*
D21*
X83831600Y-75770400D03*
D22*
X80281600Y-75770400D03*
X93731600Y-73230400D03*
D21*
X90181600Y-73230400D03*
%TD*%
D23*
%TO.C,D9*%
X240032000Y-88374100D03*
X240032000Y-85074100D03*
%TD*%
%TO.C,D69*%
X90022700Y-174093700D03*
X90022700Y-170793700D03*
%TD*%
D20*
%TO.C,SW43*%
X226063200Y-125932400D03*
D12*
X220983200Y-125932400D03*
D20*
X215903200Y-125932400D03*
D21*
X217173200Y-123392400D03*
D22*
X213623200Y-123392400D03*
X227073200Y-120852400D03*
D21*
X223523200Y-120852400D03*
%TD*%
D23*
%TO.C,D36*%
X97166000Y-135996100D03*
X97166000Y-132696100D03*
%TD*%
%TO.C,D93*%
X382898000Y-193142500D03*
X382898000Y-189842500D03*
%TD*%
%TO.C,D6*%
X182885600Y-88374100D03*
X182885600Y-85074100D03*
%TD*%
%TO.C,D24*%
X201934400Y-116947300D03*
X201934400Y-113647300D03*
%TD*%
%TO.C,D46*%
X287654000Y-135996100D03*
X287654000Y-132696100D03*
%TD*%
D20*
%TO.C,SW90*%
X273685200Y-183078800D03*
D12*
X268605200Y-183078800D03*
D20*
X263525200Y-183078800D03*
D21*
X264795200Y-180538800D03*
D22*
X261245200Y-180538800D03*
X274695200Y-177998800D03*
D21*
X271145200Y-177998800D03*
%TD*%
D23*
%TO.C,D75*%
X206696600Y-174093700D03*
X206696600Y-170793700D03*
%TD*%
D20*
%TO.C,SW8*%
X216538800Y-78310400D03*
D12*
X211458800Y-78310400D03*
D20*
X206378800Y-78310400D03*
D21*
X207648800Y-75770400D03*
D22*
X204098800Y-75770400D03*
X217548800Y-73230400D03*
D21*
X213998800Y-73230400D03*
%TD*%
D23*
%TO.C,D14*%
X354324800Y-88374100D03*
X354324800Y-85074100D03*
%TD*%
D20*
%TO.C,SW87*%
X114151500Y-183078800D03*
D12*
X109071500Y-183078800D03*
D20*
X103991500Y-183078800D03*
D21*
X105261500Y-180538800D03*
D22*
X101711500Y-180538800D03*
X115161500Y-177998800D03*
D21*
X111611500Y-177998800D03*
%TD*%
D23*
%TO.C,D33*%
X401946800Y-116947300D03*
X401946800Y-113647300D03*
%TD*%
%TO.C,D63*%
X273367400Y-155044900D03*
X273367400Y-151744900D03*
%TD*%
%TO.C,D20*%
X125739200Y-116947300D03*
X125739200Y-113647300D03*
%TD*%
D20*
%TO.C,SW51*%
X397502400Y-125932400D03*
D12*
X392422400Y-125932400D03*
D20*
X387342400Y-125932400D03*
D21*
X388612400Y-123392400D03*
D22*
X385062400Y-123392400D03*
X398512400Y-120852400D03*
D21*
X394962400Y-120852400D03*
%TD*%
D23*
%TO.C,D40*%
X173361200Y-135996100D03*
X173361200Y-132696100D03*
%TD*%
D20*
%TO.C,SW24*%
X197490000Y-106883600D03*
D12*
X192410000Y-106883600D03*
D20*
X187330000Y-106883600D03*
D21*
X188600000Y-104343600D03*
D22*
X185050000Y-104343600D03*
X198500000Y-101803600D03*
D21*
X194950000Y-101803600D03*
%TD*%
D23*
%TO.C,D65*%
X332894900Y-155044900D03*
X332894900Y-151744900D03*
%TD*%
%TO.C,D74*%
X187647800Y-174093700D03*
X187647800Y-170793700D03*
%TD*%
D20*
%TO.C,SW26*%
X235587600Y-106883600D03*
D12*
X230507600Y-106883600D03*
D20*
X225427600Y-106883600D03*
D21*
X226697600Y-104343600D03*
D22*
X223147600Y-104343600D03*
X236597600Y-101803600D03*
D21*
X233047600Y-101803600D03*
%TD*%
D20*
%TO.C,SW69*%
X76053900Y-164030000D03*
D12*
X70973900Y-164030000D03*
D20*
X65893900Y-164030000D03*
D21*
X67163900Y-161490000D03*
D22*
X63613900Y-161490000D03*
X77063900Y-158950000D03*
D21*
X73513900Y-158950000D03*
%TD*%
D20*
%TO.C,SW89*%
X254636400Y-183078800D03*
D12*
X249556400Y-183078800D03*
D20*
X244476400Y-183078800D03*
D21*
X245746400Y-180538800D03*
D22*
X242196400Y-180538800D03*
X255646400Y-177998800D03*
D21*
X252096400Y-177998800D03*
%TD*%
D23*
%TO.C,D92*%
X340038200Y-178855900D03*
X340038200Y-175555900D03*
%TD*%
%TO.C,D73*%
X168599000Y-174093700D03*
X168599000Y-170793700D03*
%TD*%
%TO.C,D28*%
X278129600Y-116947300D03*
X278129600Y-113647300D03*
%TD*%
D20*
%TO.C,SW84*%
X411471200Y-178634400D03*
D12*
X411471200Y-173554400D03*
D20*
X411471200Y-168474400D03*
D21*
X414011200Y-169744400D03*
D24*
X414011200Y-166194400D03*
X416551200Y-179644400D03*
D21*
X416551200Y-176094400D03*
%TD*%
D20*
%TO.C,SW37*%
X111770400Y-125932400D03*
D12*
X106690400Y-125932400D03*
D20*
X101610400Y-125932400D03*
D21*
X102880400Y-123392400D03*
D22*
X99330400Y-123392400D03*
X112780400Y-120852400D03*
D21*
X109230400Y-120852400D03*
%TD*%
D23*
%TO.C,D59*%
X197172200Y-155044900D03*
X197172200Y-151744900D03*
%TD*%
D20*
%TO.C,SW19*%
X102246000Y-106883600D03*
D12*
X97166000Y-106883600D03*
D20*
X92086000Y-106883600D03*
D21*
X93356000Y-104343600D03*
D22*
X89806000Y-104343600D03*
X103256000Y-101803600D03*
D21*
X99706000Y-101803600D03*
%TD*%
D20*
%TO.C,SW70*%
X107008200Y-164030000D03*
D12*
X101928200Y-164030000D03*
D20*
X96848200Y-164030000D03*
D21*
X98118200Y-161490000D03*
D22*
X94568200Y-161490000D03*
X108018200Y-158950000D03*
D21*
X104468200Y-158950000D03*
%TD*%
D20*
%TO.C,SW6*%
X178441200Y-78310400D03*
D12*
X173361200Y-78310400D03*
D20*
X168281200Y-78310400D03*
D21*
X169551200Y-75770400D03*
D22*
X166001200Y-75770400D03*
X179451200Y-73230400D03*
D21*
X175901200Y-73230400D03*
%TD*%
D20*
%TO.C,SW71*%
X126057000Y-164030000D03*
D12*
X120977000Y-164030000D03*
D20*
X115897000Y-164030000D03*
D21*
X117167000Y-161490000D03*
D22*
X113617000Y-161490000D03*
X127067000Y-158950000D03*
D21*
X123517000Y-158950000D03*
%TD*%
D20*
%TO.C,SW85*%
X66529500Y-183078800D03*
D12*
X61449500Y-183078800D03*
D20*
X56369500Y-183078800D03*
D21*
X57639500Y-180538800D03*
D22*
X54089500Y-180538800D03*
X67539500Y-177998800D03*
D21*
X63989500Y-177998800D03*
%TD*%
D23*
%TO.C,D10*%
X268605200Y-88374100D03*
X268605200Y-85074100D03*
%TD*%
D20*
%TO.C,SW20*%
X121294800Y-106883600D03*
D12*
X116214800Y-106883600D03*
D20*
X111134800Y-106883600D03*
D21*
X112404800Y-104343600D03*
D22*
X108854800Y-104343600D03*
X122304800Y-101803600D03*
D21*
X118754800Y-101803600D03*
%TD*%
D20*
%TO.C,SW62*%
X249874200Y-144981200D03*
D12*
X244794200Y-144981200D03*
D20*
X239714200Y-144981200D03*
D21*
X240984200Y-142441200D03*
D22*
X237434200Y-142441200D03*
X250884200Y-139901200D03*
D21*
X247334200Y-139901200D03*
%TD*%
D23*
%TO.C,D47*%
X306702800Y-135996100D03*
X306702800Y-132696100D03*
%TD*%
%TO.C,D94*%
X401946800Y-193142500D03*
X401946800Y-189842500D03*
%TD*%
%TO.C,D17*%
X68592800Y-116947300D03*
X68592800Y-113647300D03*
%TD*%
%TO.C,D18*%
X87641600Y-116947300D03*
X87641600Y-113647300D03*
%TD*%
%TO.C,D39*%
X154312400Y-135996100D03*
X154312400Y-132696100D03*
%TD*%
%TO.C,D55*%
X120977000Y-155044900D03*
X120977000Y-151744900D03*
%TD*%
%TO.C,D82*%
X382898000Y-174093700D03*
X382898000Y-170793700D03*
%TD*%
%TO.C,D44*%
X249556400Y-135996100D03*
X249556400Y-132696100D03*
%TD*%
D20*
%TO.C,SW40*%
X168916800Y-125932400D03*
D12*
X163836800Y-125932400D03*
D20*
X158756800Y-125932400D03*
D21*
X160026800Y-123392400D03*
D22*
X156476800Y-123392400D03*
X169926800Y-120852400D03*
D21*
X166376800Y-120852400D03*
%TD*%
D23*
%TO.C,D29*%
X297178400Y-116947300D03*
X297178400Y-113647300D03*
%TD*%
D20*
%TO.C,SW53*%
X71291700Y-144981200D03*
D12*
X66211700Y-144981200D03*
D20*
X61131700Y-144981200D03*
D21*
X62401700Y-142441200D03*
D22*
X58851700Y-142441200D03*
X72301700Y-139901200D03*
D21*
X68751700Y-139901200D03*
%TD*%
D20*
%TO.C,SW66*%
X359404800Y-144981200D03*
D12*
X354324800Y-144981200D03*
D20*
X349244800Y-144981200D03*
D21*
X350514800Y-142441200D03*
D22*
X346964800Y-142441200D03*
X360414800Y-139901200D03*
D21*
X356864800Y-139901200D03*
%TD*%
D23*
%TO.C,D81*%
X363849200Y-174093700D03*
X363849200Y-170793700D03*
%TD*%
%TO.C,D83*%
X401946800Y-174093700D03*
X401946800Y-170793700D03*
%TD*%
D20*
%TO.C,SW48*%
X326069400Y-125932400D03*
D12*
X320989400Y-125932400D03*
D20*
X315909400Y-125932400D03*
D21*
X317179400Y-123392400D03*
D22*
X313629400Y-123392400D03*
X327079400Y-120852400D03*
D21*
X323529400Y-120852400D03*
%TD*%
D20*
%TO.C,SW25*%
X216538800Y-106883600D03*
D12*
X211458800Y-106883600D03*
D20*
X206378800Y-106883600D03*
D21*
X207648800Y-104343600D03*
D22*
X204098800Y-104343600D03*
X217548800Y-101803600D03*
D21*
X213998800Y-101803600D03*
%TD*%
D20*
%TO.C,SW1*%
X64148400Y-78310400D03*
D12*
X59068400Y-78310400D03*
D20*
X53988400Y-78310400D03*
D21*
X55258400Y-75770400D03*
D22*
X51708400Y-75770400D03*
X65158400Y-73230400D03*
D21*
X61608400Y-73230400D03*
%TD*%
D12*
%TO.C,S3*%
X328133450Y-115138600D03*
X304320950Y-115138600D03*
%TD*%
D20*
%TO.C,SW16*%
X387978000Y-78310400D03*
D12*
X382898000Y-78310400D03*
D20*
X377818000Y-78310400D03*
D21*
X379088000Y-75770400D03*
D22*
X375538000Y-75770400D03*
X388988000Y-73230400D03*
D21*
X385438000Y-73230400D03*
%TD*%
D23*
%TO.C,D42*%
X211458800Y-135996100D03*
X211458800Y-132696100D03*
%TD*%
%TO.C,D86*%
X94784900Y-193142500D03*
X94784900Y-189842500D03*
%TD*%
D20*
%TO.C,SW5*%
X149868000Y-78310400D03*
D12*
X144788000Y-78310400D03*
D20*
X139708000Y-78310400D03*
D21*
X140978000Y-75770400D03*
D22*
X137428000Y-75770400D03*
X150878000Y-73230400D03*
D21*
X147328000Y-73230400D03*
%TD*%
D20*
%TO.C,SW91*%
X292734000Y-183078800D03*
D12*
X287654000Y-183078800D03*
D20*
X282574000Y-183078800D03*
D21*
X283844000Y-180538800D03*
D22*
X280294000Y-180538800D03*
X293744000Y-177998800D03*
D21*
X290194000Y-177998800D03*
%TD*%
D20*
%TO.C,SW33*%
X397502400Y-106883600D03*
D12*
X392422400Y-106883600D03*
D20*
X387342400Y-106883600D03*
D21*
X388612400Y-104343600D03*
D22*
X385062400Y-104343600D03*
X398512400Y-101803600D03*
D21*
X394962400Y-101803600D03*
%TD*%
D25*
%TO.C,D84*%
X409469700Y-192603200D03*
X406169700Y-192603200D03*
%TD*%
D20*
%TO.C,SW28*%
X273685200Y-106883600D03*
D12*
X268605200Y-106883600D03*
D20*
X263525200Y-106883600D03*
D21*
X264795200Y-104343600D03*
D22*
X261245200Y-104343600D03*
X274695200Y-101803600D03*
D21*
X271145200Y-101803600D03*
%TD*%
D23*
%TO.C,D60*%
X216221000Y-155044900D03*
X216221000Y-151744900D03*
%TD*%
D20*
%TO.C,SW65*%
X318926100Y-144981200D03*
D12*
X313846100Y-144981200D03*
D20*
X308766100Y-144981200D03*
D21*
X310036100Y-142441200D03*
D22*
X306486100Y-142441200D03*
X319936100Y-139901200D03*
D21*
X316386100Y-139901200D03*
%TD*%
D20*
%TO.C,SW21*%
X140343600Y-106883600D03*
D12*
X135263600Y-106883600D03*
D20*
X130183600Y-106883600D03*
D21*
X131453600Y-104343600D03*
D22*
X127903600Y-104343600D03*
X141353600Y-101803600D03*
D21*
X137803600Y-101803600D03*
%TD*%
D20*
%TO.C,SW58*%
X173679000Y-144981200D03*
D12*
X168599000Y-144981200D03*
D20*
X163519000Y-144981200D03*
D21*
X164789000Y-142441200D03*
D22*
X161239000Y-142441200D03*
X174689000Y-139901200D03*
D21*
X171139000Y-139901200D03*
%TD*%
D20*
%TO.C,SW97*%
X354642600Y-187841000D03*
D12*
X349562600Y-187841000D03*
D20*
X344482600Y-187841000D03*
D21*
X345752600Y-185301000D03*
D22*
X342202600Y-185301000D03*
X355652600Y-182761000D03*
D21*
X352102600Y-182761000D03*
%TD*%
D23*
%TO.C,D21*%
X144788000Y-116947300D03*
X144788000Y-113647300D03*
%TD*%
D20*
%TO.C,SW93*%
X378453600Y-183078800D03*
D12*
X373373600Y-183078800D03*
D20*
X368293600Y-183078800D03*
D21*
X369563600Y-180538800D03*
D22*
X366013600Y-180538800D03*
X379463600Y-177998800D03*
D21*
X375913600Y-177998800D03*
%TD*%
D20*
%TO.C,SW92*%
X335593800Y-168792200D03*
D12*
X330513800Y-168792200D03*
D20*
X325433800Y-168792200D03*
D21*
X326703800Y-166252200D03*
D22*
X323153800Y-166252200D03*
X336603800Y-163712200D03*
D21*
X333053800Y-163712200D03*
%TD*%
D23*
%TO.C,D61*%
X235269800Y-155044900D03*
X235269800Y-151744900D03*
%TD*%
%TO.C,D22*%
X163836800Y-116947300D03*
X163836800Y-113647300D03*
%TD*%
D20*
%TO.C,SW80*%
X304639500Y-164030000D03*
D12*
X299559500Y-164030000D03*
D20*
X294479500Y-164030000D03*
D21*
X295749500Y-161490000D03*
D22*
X292199500Y-161490000D03*
X305649500Y-158950000D03*
D21*
X302099500Y-158950000D03*
%TD*%
D20*
%TO.C,SW60*%
X211776600Y-144981200D03*
D12*
X206696600Y-144981200D03*
D20*
X201616600Y-144981200D03*
D21*
X202886600Y-142441200D03*
D22*
X199336600Y-142441200D03*
X212786600Y-139901200D03*
D21*
X209236600Y-139901200D03*
%TD*%
D20*
%TO.C,SW63*%
X268923000Y-144981200D03*
D12*
X263843000Y-144981200D03*
D20*
X258763000Y-144981200D03*
D21*
X260033000Y-142441200D03*
D22*
X256483000Y-142441200D03*
X269933000Y-139901200D03*
D21*
X266383000Y-139901200D03*
%TD*%
D20*
%TO.C,SW78*%
X258604900Y-164030000D03*
D12*
X253524900Y-164030000D03*
D20*
X248444900Y-164030000D03*
D21*
X249714900Y-161490000D03*
D22*
X246164900Y-161490000D03*
X259614900Y-158950000D03*
D21*
X256064900Y-158950000D03*
%TD*%
D20*
%TO.C,SW50*%
X378453600Y-125932400D03*
D12*
X373373600Y-125932400D03*
D20*
X368293600Y-125932400D03*
D21*
X369563600Y-123392400D03*
D22*
X366013600Y-123392400D03*
X379463600Y-120852400D03*
D21*
X375913600Y-120852400D03*
%TD*%
D23*
%TO.C,D91*%
X297178400Y-193142500D03*
X297178400Y-189842500D03*
%TD*%
D20*
%TO.C,SW44*%
X245112000Y-125932400D03*
D12*
X240032000Y-125932400D03*
D20*
X234952000Y-125932400D03*
D21*
X236222000Y-123392400D03*
D22*
X232672000Y-123392400D03*
X246122000Y-120852400D03*
D21*
X242572000Y-120852400D03*
%TD*%
D23*
%TO.C,D96*%
X340038200Y-197904700D03*
X340038200Y-194604700D03*
%TD*%
%TO.C,D31*%
X363849200Y-116947300D03*
X363849200Y-113647300D03*
%TD*%
D20*
%TO.C,SW79*%
X277653700Y-164030000D03*
D12*
X272573700Y-164030000D03*
D20*
X267493700Y-164030000D03*
D21*
X268763700Y-161490000D03*
D22*
X265213700Y-161490000D03*
X278663700Y-158950000D03*
D21*
X275113700Y-158950000D03*
%TD*%
D23*
%TO.C,D51*%
X401946800Y-138377200D03*
X401946800Y-135077200D03*
%TD*%
D20*
%TO.C,SW68*%
X397502400Y-144981200D03*
D12*
X392422400Y-144981200D03*
D20*
X387342400Y-144981200D03*
D21*
X388612400Y-142441200D03*
D22*
X385062400Y-142441200D03*
X398512400Y-139901200D03*
D21*
X394962400Y-139901200D03*
%TD*%
D20*
%TO.C,SW64*%
X287971800Y-144981200D03*
D12*
X282891800Y-144981200D03*
D20*
X277811800Y-144981200D03*
D21*
X279081800Y-142441200D03*
D22*
X275531800Y-142441200D03*
X288981800Y-139901200D03*
D21*
X285431800Y-139901200D03*
%TD*%
D20*
%TO.C,SW57*%
X154630200Y-144981200D03*
D12*
X149550200Y-144981200D03*
D20*
X144470200Y-144981200D03*
D21*
X145740200Y-142441200D03*
D22*
X142190200Y-142441200D03*
X155640200Y-139901200D03*
D21*
X152090200Y-139901200D03*
%TD*%
D23*
%TO.C,D1*%
X68592800Y-88374100D03*
X68592800Y-85074100D03*
%TD*%
D20*
%TO.C,SW54*%
X97483800Y-144981200D03*
D12*
X92403800Y-144981200D03*
D20*
X87323800Y-144981200D03*
D21*
X88593800Y-142441200D03*
D22*
X85043800Y-142441200D03*
X98493800Y-139901200D03*
D21*
X94943800Y-139901200D03*
%TD*%
D12*
%TO.C,S2*%
X325752350Y-153236200D03*
X301939850Y-153236200D03*
%TD*%
D20*
%TO.C,SW36*%
X92721600Y-125932400D03*
D12*
X87641600Y-125932400D03*
D20*
X82561600Y-125932400D03*
D21*
X83831600Y-123392400D03*
D22*
X80281600Y-123392400D03*
X93731600Y-120852400D03*
D21*
X90181600Y-120852400D03*
%TD*%
D23*
%TO.C,D95*%
X320989400Y-197904700D03*
X320989400Y-194604700D03*
%TD*%
%TO.C,D79*%
X282098100Y-174093700D03*
X282098100Y-170793700D03*
%TD*%
%TO.C,D85*%
X70973900Y-193142500D03*
X70973900Y-189842500D03*
%TD*%
D20*
%TO.C,SW83*%
X397502400Y-164030000D03*
D12*
X392422400Y-164030000D03*
D20*
X387342400Y-164030000D03*
D21*
X388612400Y-161490000D03*
D22*
X385062400Y-161490000D03*
X398512400Y-158950000D03*
D21*
X394962400Y-158950000D03*
%TD*%
D23*
%TO.C,D23*%
X182885600Y-116947300D03*
X182885600Y-113647300D03*
%TD*%
%TO.C,D2*%
X97166000Y-88374100D03*
X97166000Y-85074100D03*
%TD*%
D20*
%TO.C,SW94*%
X397502400Y-183078800D03*
D12*
X392422400Y-183078800D03*
D20*
X387342400Y-183078800D03*
D21*
X388612400Y-180538800D03*
D22*
X385062400Y-180538800D03*
X398512400Y-177998800D03*
D21*
X394962400Y-177998800D03*
%TD*%
D23*
%TO.C,D68*%
X401946800Y-159807100D03*
X401946800Y-156507100D03*
%TD*%
%TO.C,D78*%
X263049300Y-174093700D03*
X263049300Y-170793700D03*
%TD*%
D20*
%TO.C,SW96*%
X335593800Y-187841000D03*
D12*
X330513800Y-187841000D03*
D20*
X325433800Y-187841000D03*
D21*
X326703800Y-185301000D03*
D22*
X323153800Y-185301000D03*
X336603800Y-182761000D03*
D21*
X333053800Y-182761000D03*
%TD*%
D23*
%TO.C,D19*%
X106690400Y-116947300D03*
X106690400Y-113647300D03*
%TD*%
D20*
%TO.C,SW17*%
X64148400Y-106883600D03*
D12*
X59068400Y-106883600D03*
D20*
X53988400Y-106883600D03*
D21*
X55258400Y-104343600D03*
D22*
X51708400Y-104343600D03*
X65158400Y-101803600D03*
D21*
X61608400Y-101803600D03*
%TD*%
D20*
%TO.C,SW67*%
X378453600Y-144981200D03*
D12*
X373373600Y-144981200D03*
D20*
X368293600Y-144981200D03*
D21*
X369563600Y-142441200D03*
D22*
X366013600Y-142441200D03*
X379463600Y-139901200D03*
D21*
X375913600Y-139901200D03*
%TD*%
D20*
%TO.C,SW72*%
X145105800Y-164030000D03*
D12*
X140025800Y-164030000D03*
D20*
X134945800Y-164030000D03*
D21*
X136215800Y-161490000D03*
D22*
X132665800Y-161490000D03*
X146115800Y-158950000D03*
D21*
X142565800Y-158950000D03*
%TD*%
D20*
%TO.C,SW12*%
X302258400Y-78310400D03*
D12*
X297178400Y-78310400D03*
D20*
X292098400Y-78310400D03*
D21*
X293368400Y-75770400D03*
D22*
X289818400Y-75770400D03*
X303268400Y-73230400D03*
D21*
X299718400Y-73230400D03*
%TD*%
D20*
%TO.C,SW11*%
X283209600Y-78310400D03*
D12*
X278129600Y-78310400D03*
D20*
X273049600Y-78310400D03*
D21*
X274319600Y-75770400D03*
D22*
X270769600Y-75770400D03*
X284219600Y-73230400D03*
D21*
X280669600Y-73230400D03*
%TD*%
D23*
%TO.C,D8*%
X220983200Y-88374100D03*
X220983200Y-85074100D03*
%TD*%
%TO.C,D90*%
X278129600Y-193142500D03*
X278129600Y-189842500D03*
%TD*%
%TO.C,D62*%
X254318600Y-155044900D03*
X254318600Y-151744900D03*
%TD*%
%TO.C,D87*%
X118595900Y-193142500D03*
X118595900Y-189842500D03*
%TD*%
D20*
%TO.C,SW9*%
X235587600Y-78310400D03*
D12*
X230507600Y-78310400D03*
D20*
X225427600Y-78310400D03*
D21*
X226697600Y-75770400D03*
D22*
X223147600Y-75770400D03*
X236597600Y-73230400D03*
D21*
X233047600Y-73230400D03*
%TD*%
D20*
%TO.C,SW81*%
X359404800Y-164030000D03*
D12*
X354324800Y-164030000D03*
D20*
X349244800Y-164030000D03*
D21*
X350514800Y-161490000D03*
D22*
X346964800Y-161490000D03*
X360414800Y-158950000D03*
D21*
X356864800Y-158950000D03*
%TD*%
D25*
%TO.C,D52*%
X409311200Y-154505600D03*
X406011200Y-154505600D03*
%TD*%
D20*
%TO.C,SW42*%
X207014400Y-125932400D03*
D12*
X201934400Y-125932400D03*
D20*
X196854400Y-125932400D03*
D21*
X198124400Y-123392400D03*
D22*
X194574400Y-123392400D03*
X208024400Y-120852400D03*
D21*
X204474400Y-120852400D03*
%TD*%
D23*
%TO.C,D71*%
X130501400Y-172295500D03*
X130501400Y-168995500D03*
%TD*%
D20*
%TO.C,SW3*%
X111770400Y-78310400D03*
D12*
X106690400Y-78310400D03*
D20*
X101610400Y-78310400D03*
D21*
X102880400Y-75770400D03*
D22*
X99330400Y-75770400D03*
X112780400Y-73230400D03*
D21*
X109230400Y-73230400D03*
%TD*%
D23*
%TO.C,D11*%
X287654000Y-88374100D03*
X287654000Y-85074100D03*
%TD*%
%TO.C,D64*%
X292416200Y-155044900D03*
X292416200Y-151744900D03*
%TD*%
%TO.C,D56*%
X140025800Y-155044900D03*
X140025800Y-151744900D03*
%TD*%
D20*
%TO.C,SW61*%
X230825400Y-144981200D03*
D12*
X225745400Y-144981200D03*
D20*
X220665400Y-144981200D03*
D21*
X221935400Y-142441200D03*
D22*
X218385400Y-142441200D03*
X231835400Y-139901200D03*
D21*
X228285400Y-139901200D03*
%TD*%
D20*
%TO.C,SW7*%
X197490000Y-78310400D03*
D12*
X192410000Y-78310400D03*
D20*
X187330000Y-78310400D03*
D21*
X188600000Y-75770400D03*
D22*
X185050000Y-75770400D03*
X198500000Y-73230400D03*
D21*
X194950000Y-73230400D03*
%TD*%
D23*
%TO.C,D77*%
X244000500Y-174093700D03*
X244000500Y-170793700D03*
%TD*%
%TO.C,D30*%
X335276000Y-116947300D03*
X335276000Y-113647300D03*
%TD*%
%TO.C,D5*%
X154312400Y-88374100D03*
X154312400Y-85074100D03*
%TD*%
%TO.C,D49*%
X363849200Y-135996100D03*
X363849200Y-132696100D03*
%TD*%
D20*
%TO.C,SW22*%
X159392400Y-106883600D03*
D12*
X154312400Y-106883600D03*
D20*
X149232400Y-106883600D03*
D21*
X150502400Y-104343600D03*
D22*
X146952400Y-104343600D03*
X160402400Y-101803600D03*
D21*
X156852400Y-101803600D03*
%TD*%
D23*
%TO.C,D12*%
X306702800Y-88374100D03*
X306702800Y-85074100D03*
%TD*%
D20*
%TO.C,SW45*%
X264160800Y-125932400D03*
D12*
X259080800Y-125932400D03*
D20*
X254000800Y-125932400D03*
D21*
X255270800Y-123392400D03*
D22*
X251720800Y-123392400D03*
X265170800Y-120852400D03*
D21*
X261620800Y-120852400D03*
%TD*%
D23*
%TO.C,D89*%
X259080800Y-193142500D03*
X259080800Y-189842500D03*
%TD*%
%TO.C,D70*%
X111452600Y-174093700D03*
X111452600Y-170793700D03*
%TD*%
%TO.C,D25*%
X220983200Y-116947300D03*
X220983200Y-113647300D03*
%TD*%
D20*
%TO.C,SW95*%
X316545000Y-187841000D03*
D12*
X311465000Y-187841000D03*
D20*
X306385000Y-187841000D03*
D21*
X307655000Y-185301000D03*
D22*
X304105000Y-185301000D03*
X317555000Y-182761000D03*
D21*
X314005000Y-182761000D03*
%TD*%
D20*
%TO.C,SW82*%
X378453600Y-164030000D03*
D12*
X373373600Y-164030000D03*
D20*
X368293600Y-164030000D03*
D21*
X369563600Y-161490000D03*
D22*
X366013600Y-161490000D03*
X379463600Y-158950000D03*
D21*
X375913600Y-158950000D03*
%TD*%
D20*
%TO.C,SW52*%
X411471200Y-140536800D03*
D12*
X411471200Y-135456800D03*
D20*
X411471200Y-130376800D03*
D21*
X414011200Y-131646800D03*
D24*
X414011200Y-128096800D03*
X416551200Y-141546800D03*
D21*
X416551200Y-137996800D03*
%TD*%
D23*
%TO.C,D3*%
X116214800Y-88374100D03*
X116214800Y-85074100D03*
%TD*%
%TO.C,D37*%
X116214800Y-135996100D03*
X116214800Y-132696100D03*
%TD*%
%TO.C,D76*%
X225745400Y-174093700D03*
X225745400Y-170793700D03*
%TD*%
D20*
%TO.C,SW59*%
X192727800Y-144981200D03*
D12*
X187647800Y-144981200D03*
D20*
X182567800Y-144981200D03*
D21*
X183837800Y-142441200D03*
D22*
X180287800Y-142441200D03*
X193737800Y-139901200D03*
D21*
X190187800Y-139901200D03*
%TD*%
D23*
%TO.C,D15*%
X373373600Y-88374100D03*
X373373600Y-85074100D03*
%TD*%
D20*
%TO.C,SW41*%
X187965600Y-125932400D03*
D12*
X182885600Y-125932400D03*
D20*
X177805600Y-125932400D03*
D21*
X179075600Y-123392400D03*
D22*
X175525600Y-123392400D03*
X188975600Y-120852400D03*
D21*
X185425600Y-120852400D03*
%TD*%
D20*
%TO.C,SW35*%
X68910600Y-125932400D03*
D12*
X63830600Y-125932400D03*
D20*
X58750600Y-125932400D03*
D21*
X60020600Y-123392400D03*
D22*
X56470600Y-123392400D03*
X69920600Y-120852400D03*
D21*
X66370600Y-120852400D03*
%TD*%
D23*
%TO.C,D50*%
X382898000Y-135996100D03*
X382898000Y-132696100D03*
%TD*%
D20*
%TO.C,SW73*%
X164154600Y-164030000D03*
D12*
X159074600Y-164030000D03*
D20*
X153994600Y-164030000D03*
D21*
X155264600Y-161490000D03*
D22*
X151714600Y-161490000D03*
X165164600Y-158950000D03*
D21*
X161614600Y-158950000D03*
%TD*%
D20*
%TO.C,SW76*%
X221301000Y-164030000D03*
D12*
X216221000Y-164030000D03*
D20*
X211141000Y-164030000D03*
D21*
X212411000Y-161490000D03*
D22*
X208861000Y-161490000D03*
X222311000Y-158950000D03*
D21*
X218761000Y-158950000D03*
%TD*%
D25*
%TO.C,D98*%
X420723600Y-90481800D03*
X417423600Y-90481800D03*
%TD*%
D20*
%TO.C,SW18*%
X83197200Y-106883600D03*
D12*
X78117200Y-106883600D03*
D20*
X73037200Y-106883600D03*
D21*
X74307200Y-104343600D03*
D22*
X70757200Y-104343600D03*
X84207200Y-101803600D03*
D21*
X80657200Y-101803600D03*
%TD*%
D23*
%TO.C,D57*%
X159074600Y-155044900D03*
X159074600Y-151744900D03*
%TD*%
D20*
%TO.C,SW39*%
X149868000Y-125932400D03*
D12*
X144788000Y-125932400D03*
D20*
X139708000Y-125932400D03*
D21*
X140978000Y-123392400D03*
D22*
X137428000Y-123392400D03*
X150878000Y-120852400D03*
D21*
X147328000Y-120852400D03*
%TD*%
D20*
%TO.C,SW88*%
X185584500Y-183078800D03*
D12*
X180504500Y-183078800D03*
D20*
X175424500Y-183078800D03*
D21*
X176694500Y-180538800D03*
D22*
X173144500Y-180538800D03*
X186594500Y-177998800D03*
D21*
X183044500Y-177998800D03*
%TD*%
D23*
%TO.C,D80*%
X309083900Y-174093700D03*
X309083900Y-170793700D03*
%TD*%
%TO.C,D67*%
X382898000Y-155044900D03*
X382898000Y-151744900D03*
%TD*%
%TO.C,D27*%
X259080800Y-116947300D03*
X259080800Y-113647300D03*
%TD*%
D20*
%TO.C,SW75*%
X202252200Y-164030000D03*
D12*
X197172200Y-164030000D03*
D20*
X192092200Y-164030000D03*
D21*
X193362200Y-161490000D03*
D22*
X189812200Y-161490000D03*
X203262200Y-158950000D03*
D21*
X199712200Y-158950000D03*
%TD*%
D20*
%TO.C,SW56*%
X135581400Y-144981200D03*
D12*
X130501400Y-144981200D03*
D20*
X125421400Y-144981200D03*
D21*
X126691400Y-142441200D03*
D22*
X123141400Y-142441200D03*
X136591400Y-139901200D03*
D21*
X133041400Y-139901200D03*
%TD*%
D23*
%TO.C,D4*%
X135263600Y-88374100D03*
X135263600Y-85074100D03*
%TD*%
D20*
%TO.C,SW13*%
X321307200Y-78310400D03*
D12*
X316227200Y-78310400D03*
D20*
X311147200Y-78310400D03*
D21*
X312417200Y-75770400D03*
D22*
X308867200Y-75770400D03*
X322317200Y-73230400D03*
D21*
X318767200Y-73230400D03*
%TD*%
D23*
%TO.C,D16*%
X392422400Y-88374100D03*
X392422400Y-85074100D03*
%TD*%
%TO.C,D97*%
X359087000Y-197904700D03*
X359087000Y-194604700D03*
%TD*%
D20*
%TO.C,SW31*%
X359404800Y-106883600D03*
D12*
X354324800Y-106883600D03*
D20*
X349244800Y-106883600D03*
D21*
X350514800Y-104343600D03*
D22*
X346964800Y-104343600D03*
X360414800Y-101803600D03*
D21*
X356864800Y-101803600D03*
%TD*%
D23*
%TO.C,D53*%
X75736100Y-155044900D03*
X75736100Y-151744900D03*
%TD*%
%TO.C,D7*%
X201934400Y-88374100D03*
X201934400Y-85074100D03*
%TD*%
D20*
%TO.C,SW15*%
X368929200Y-78310400D03*
D12*
X363849200Y-78310400D03*
D20*
X358769200Y-78310400D03*
D21*
X360039200Y-75770400D03*
D22*
X356489200Y-75770400D03*
X369939200Y-73230400D03*
D21*
X366389200Y-73230400D03*
%TD*%
D23*
%TO.C,D54*%
X101928200Y-155044900D03*
X101928200Y-151744900D03*
%TD*%
%TO.C,D38*%
X135263600Y-135996100D03*
X135263600Y-132696100D03*
%TD*%
D20*
%TO.C,SW47*%
X302258400Y-125932400D03*
D12*
X297178400Y-125932400D03*
D20*
X292098400Y-125932400D03*
D21*
X293368400Y-123392400D03*
D22*
X289818400Y-123392400D03*
X303268400Y-120852400D03*
D21*
X299718400Y-120852400D03*
%TD*%
D23*
%TO.C,D88*%
X240032000Y-193142500D03*
X240032000Y-189842500D03*
%TD*%
%TO.C,D43*%
X230507600Y-135996100D03*
X230507600Y-132696100D03*
%TD*%
D20*
%TO.C,SW74*%
X183203400Y-164030000D03*
D12*
X178123400Y-164030000D03*
D20*
X173043400Y-164030000D03*
D21*
X174313400Y-161490000D03*
D22*
X170763400Y-161490000D03*
X184213400Y-158950000D03*
D21*
X180663400Y-158950000D03*
%TD*%
M02*
