  0
SECTION
  2
HEADER
  9
$ACADVER
  1
AC1009
  9
$FILLMODE
 70
 0
  9
$SPLFRAME
 70
 1
  9
$EXTMIN
 10
0
 20
0
 30
0.0
  9
$EXTMAX
 10
1058.33
 20
1058.33
 30
0.0
  0
ENDSEC
  0
SECTION
  2
TABLES
  0
TABLE
  2
LAYER
 70
1
  0
LAYER
  2
0
 70
     0
 62
     7
  6
CONTINUOUS
  0
ENDTAB
  0
ENDSEC
  0
SECTION
  2
ENTITIES
  0
LINE
  8
0
 62
     0
 10
0.0950846
 20
148.777
 30
0.0
 11
391.569
 21
148.777
 31
0.0
  0
LINE
  8
0
 62
     0
 10
391.569
 20
148.777
 30
0.0
 11
391.569
 21
0.190169
 31
0.0
  0
LINE
  8
0
 62
     0
 10
391.569
 20
0.190169
 30
0.0
 11
0.0950846
 21
0.190169
 31
0.0
  0
LINE
  8
0
 62
     0
 10
0.0950846
 20
0.190169
 30
0.0
 11
0.0950846
 21
148.777
 31
0.0
  0
LINE
  8
0
 62
     0
 10
388.105
 20
4.61641
 30
0.0
 11
387.689
 21
4.40422
 31
0.0
  0
LINE
  8
0
 62
     0
 10
387.689
 20
4.40422
 30
0.0
 11
387.357
 21
4.07211
 31
0.0
  0
LINE
  8
0
 62
     0
 10
387.357
 20
4.07211
 30
0.0
 11
387.142
 21
3.65319
 31
0.0
  0
LINE
  8
0
 62
     0
 10
387.142
 20
3.65319
 30
0.0
 11
387.071
 21
3.19016
 31
0.0
  0
LINE
  8
0
 62
     0
 10
387.071
 20
3.19016
 30
0.0
 11
387.142
 21
2.72576
 31
0.0
  0
LINE
  8
0
 62
     0
 10
387.142
 20
2.72576
 30
0.0
 11
387.357
 21
2.30821
 31
0.0
  0
LINE
  8
0
 62
     0
 10
387.357
 20
2.30821
 30
0.0
 11
387.689
 21
1.97611
 31
0.0
  0
LINE
  8
0
 62
     0
 10
387.689
 20
1.97611
 30
0.0
 11
388.105
 21
1.76251
 31
0.0
  0
LINE
  8
0
 62
     0
 10
388.105
 20
1.76251
 30
0.0
 11
388.571
 21
1.68947
 31
0.0
  0
LINE
  8
0
 62
     0
 10
388.571
 20
1.68947
 30
0.0
 11
389.033
 21
1.76251
 31
0.0
  0
LINE
  8
0
 62
     0
 10
389.033
 20
1.76251
 30
0.0
 11
389.453
 21
1.97611
 31
0.0
  0
LINE
  8
0
 62
     0
 10
389.453
 20
1.97611
 30
0.0
 11
389.784
 21
2.30821
 31
0.0
  0
LINE
  8
0
 62
     0
 10
389.784
 20
2.30821
 30
0.0
 11
389.996
 21
2.72576
 31
0.0
  0
LINE
  8
0
 62
     0
 10
389.996
 20
2.72576
 30
0.0
 11
390.07
 21
3.19016
 31
0.0
  0
LINE
  8
0
 62
     0
 10
390.07
 20
3.19016
 30
0.0
 11
389.996
 21
3.65319
 31
0.0
  0
LINE
  8
0
 62
     0
 10
389.996
 20
3.65319
 30
0.0
 11
389.784
 21
4.07211
 31
0.0
  0
LINE
  8
0
 62
     0
 10
389.784
 20
4.07211
 30
0.0
 11
389.453
 21
4.40422
 31
0.0
  0
LINE
  8
0
 62
     0
 10
389.453
 20
4.40422
 30
0.0
 11
389.033
 21
4.61641
 31
0.0
  0
LINE
  8
0
 62
     0
 10
389.033
 20
4.61641
 30
0.0
 11
388.571
 21
4.68948
 31
0.0
  0
LINE
  8
0
 62
     0
 10
388.571
 20
4.68948
 30
0.0
 11
388.105
 21
4.61641
 31
0.0
  0
LINE
  8
0
 62
     0
 10
291.738
 20
4.61641
 30
0.0
 11
291.32
 21
4.40422
 31
0.0
  0
LINE
  8
0
 62
     0
 10
291.32
 20
4.40422
 30
0.0
 11
290.988
 21
4.07211
 31
0.0
  0
LINE
  8
0
 62
     0
 10
290.988
 20
4.07211
 30
0.0
 11
290.774
 21
3.65319
 31
0.0
  0
LINE
  8
0
 62
     0
 10
290.774
 20
3.65319
 30
0.0
 11
290.701
 21
3.19016
 31
0.0
  0
LINE
  8
0
 62
     0
 10
290.701
 20
3.19016
 30
0.0
 11
290.774
 21
2.72576
 31
0.0
  0
LINE
  8
0
 62
     0
 10
290.774
 20
2.72576
 30
0.0
 11
290.988
 21
2.30821
 31
0.0
  0
LINE
  8
0
 62
     0
 10
290.988
 20
2.30821
 30
0.0
 11
291.32
 21
1.97611
 31
0.0
  0
LINE
  8
0
 62
     0
 10
291.32
 20
1.97611
 30
0.0
 11
291.738
 21
1.76251
 31
0.0
  0
LINE
  8
0
 62
     0
 10
291.738
 20
1.76251
 30
0.0
 11
292.202
 21
1.68947
 31
0.0
  0
LINE
  8
0
 62
     0
 10
292.202
 20
1.68947
 30
0.0
 11
292.665
 21
1.76251
 31
0.0
  0
LINE
  8
0
 62
     0
 10
292.665
 20
1.76251
 30
0.0
 11
293.082
 21
1.97611
 31
0.0
  0
LINE
  8
0
 62
     0
 10
293.082
 20
1.97611
 30
0.0
 11
293.415
 21
2.30821
 31
0.0
  0
LINE
  8
0
 62
     0
 10
293.415
 20
2.30821
 30
0.0
 11
293.627
 21
2.72576
 31
0.0
  0
LINE
  8
0
 62
     0
 10
293.627
 20
2.72576
 30
0.0
 11
293.701
 21
3.19016
 31
0.0
  0
LINE
  8
0
 62
     0
 10
293.701
 20
3.19016
 30
0.0
 11
293.627
 21
3.65319
 31
0.0
  0
LINE
  8
0
 62
     0
 10
293.627
 20
3.65319
 30
0.0
 11
293.415
 21
4.07211
 31
0.0
  0
LINE
  8
0
 62
     0
 10
293.415
 20
4.07211
 30
0.0
 11
293.082
 21
4.40422
 31
0.0
  0
LINE
  8
0
 62
     0
 10
293.082
 20
4.40422
 30
0.0
 11
292.665
 21
4.61641
 31
0.0
  0
LINE
  8
0
 62
     0
 10
292.665
 20
4.61641
 30
0.0
 11
292.202
 21
4.68948
 31
0.0
  0
LINE
  8
0
 62
     0
 10
292.202
 20
4.68948
 30
0.0
 11
291.738
 21
4.61641
 31
0.0
  0
LINE
  8
0
 62
     0
 10
195.369
 20
4.61641
 30
0.0
 11
194.951
 21
4.40422
 31
0.0
  0
LINE
  8
0
 62
     0
 10
194.951
 20
4.40422
 30
0.0
 11
194.619
 21
4.07211
 31
0.0
  0
LINE
  8
0
 62
     0
 10
194.619
 20
4.07211
 30
0.0
 11
194.405
 21
3.65319
 31
0.0
  0
LINE
  8
0
 62
     0
 10
194.405
 20
3.65319
 30
0.0
 11
194.332
 21
3.19016
 31
0.0
  0
LINE
  8
0
 62
     0
 10
194.332
 20
3.19016
 30
0.0
 11
194.405
 21
2.72576
 31
0.0
  0
LINE
  8
0
 62
     0
 10
194.405
 20
2.72576
 30
0.0
 11
194.619
 21
2.30821
 31
0.0
  0
LINE
  8
0
 62
     0
 10
194.619
 20
2.30821
 30
0.0
 11
194.951
 21
1.97611
 31
0.0
  0
LINE
  8
0
 62
     0
 10
194.951
 20
1.97611
 30
0.0
 11
195.369
 21
1.76251
 31
0.0
  0
LINE
  8
0
 62
     0
 10
195.369
 20
1.76251
 30
0.0
 11
195.833
 21
1.68947
 31
0.0
  0
LINE
  8
0
 62
     0
 10
195.833
 20
1.68947
 30
0.0
 11
196.296
 21
1.76251
 31
0.0
  0
LINE
  8
0
 62
     0
 10
196.296
 20
1.76251
 30
0.0
 11
196.713
 21
1.97611
 31
0.0
  0
LINE
  8
0
 62
     0
 10
196.713
 20
1.97611
 30
0.0
 11
197.046
 21
2.30821
 31
0.0
  0
LINE
  8
0
 62
     0
 10
197.046
 20
2.30821
 30
0.0
 11
197.258
 21
2.72576
 31
0.0
  0
LINE
  8
0
 62
     0
 10
197.258
 20
2.72576
 30
0.0
 11
197.332
 21
3.19016
 31
0.0
  0
LINE
  8
0
 62
     0
 10
197.332
 20
3.19016
 30
0.0
 11
197.258
 21
3.65319
 31
0.0
  0
LINE
  8
0
 62
     0
 10
197.258
 20
3.65319
 30
0.0
 11
197.046
 21
4.07211
 31
0.0
  0
LINE
  8
0
 62
     0
 10
197.046
 20
4.07211
 30
0.0
 11
196.713
 21
4.40422
 31
0.0
  0
LINE
  8
0
 62
     0
 10
196.713
 20
4.40422
 30
0.0
 11
196.296
 21
4.61641
 31
0.0
  0
LINE
  8
0
 62
     0
 10
196.296
 20
4.61641
 30
0.0
 11
195.833
 21
4.68948
 31
0.0
  0
LINE
  8
0
 62
     0
 10
195.833
 20
4.68948
 30
0.0
 11
195.369
 21
4.61641
 31
0.0
  0
LINE
  8
0
 62
     0
 10
98.9997
 20
4.61641
 30
0.0
 11
98.582
 21
4.40422
 31
0.0
  0
LINE
  8
0
 62
     0
 10
98.582
 20
4.40422
 30
0.0
 11
98.25
 21
4.07211
 31
0.0
  0
LINE
  8
0
 62
     0
 10
98.25
 20
4.07211
 30
0.0
 11
98.0362
 21
3.65319
 31
0.0
  0
LINE
  8
0
 62
     0
 10
98.0362
 20
3.65319
 30
0.0
 11
97.9632
 21
3.19016
 31
0.0
  0
LINE
  8
0
 62
     0
 10
97.9632
 20
3.19016
 30
0.0
 11
98.0362
 21
2.72576
 31
0.0
  0
LINE
  8
0
 62
     0
 10
98.0362
 20
2.72576
 30
0.0
 11
98.25
 21
2.30821
 31
0.0
  0
LINE
  8
0
 62
     0
 10
98.25
 20
2.30821
 30
0.0
 11
98.582
 21
1.97611
 31
0.0
  0
LINE
  8
0
 62
     0
 10
98.582
 20
1.97611
 30
0.0
 11
98.9997
 21
1.76251
 31
0.0
  0
LINE
  8
0
 62
     0
 10
98.9997
 20
1.76251
 30
0.0
 11
99.4639
 21
1.68947
 31
0.0
  0
LINE
  8
0
 62
     0
 10
99.4639
 20
1.68947
 30
0.0
 11
99.9271
 21
1.76251
 31
0.0
  0
LINE
  8
0
 62
     0
 10
99.9271
 20
1.76251
 30
0.0
 11
100.344
 21
1.97611
 31
0.0
  0
LINE
  8
0
 62
     0
 10
100.344
 20
1.97611
 30
0.0
 11
100.677
 21
2.30821
 31
0.0
  0
LINE
  8
0
 62
     0
 10
100.677
 20
2.30821
 30
0.0
 11
100.889
 21
2.72576
 31
0.0
  0
LINE
  8
0
 62
     0
 10
100.889
 20
2.72576
 30
0.0
 11
100.963
 21
3.19016
 31
0.0
  0
LINE
  8
0
 62
     0
 10
100.963
 20
3.19016
 30
0.0
 11
100.889
 21
3.65319
 31
0.0
  0
LINE
  8
0
 62
     0
 10
100.889
 20
3.65319
 30
0.0
 11
100.677
 21
4.07211
 31
0.0
  0
LINE
  8
0
 62
     0
 10
100.677
 20
4.07211
 30
0.0
 11
100.344
 21
4.40422
 31
0.0
  0
LINE
  8
0
 62
     0
 10
100.344
 20
4.40422
 30
0.0
 11
99.9271
 21
4.61641
 31
0.0
  0
LINE
  8
0
 62
     0
 10
99.9271
 20
4.61641
 30
0.0
 11
99.4639
 21
4.68948
 31
0.0
  0
LINE
  8
0
 62
     0
 10
99.4639
 20
4.68948
 30
0.0
 11
98.9997
 21
4.61641
 31
0.0
  0
LINE
  8
0
 62
     0
 10
2.63067
 20
4.61641
 30
0.0
 11
2.21313
 21
4.40422
 31
0.0
  0
LINE
  8
0
 62
     0
 10
2.21313
 20
4.40422
 30
0.0
 11
1.88102
 21
4.07211
 31
0.0
  0
LINE
  8
0
 62
     0
 10
1.88102
 20
4.07211
 30
0.0
 11
1.66743
 21
3.65319
 31
0.0
  0
LINE
  8
0
 62
     0
 10
1.66743
 20
3.65319
 30
0.0
 11
1.59301
 21
3.19016
 31
0.0
  0
LINE
  8
0
 62
     0
 10
1.59301
 20
3.19016
 30
0.0
 11
1.66743
 21
2.72576
 31
0.0
  0
LINE
  8
0
 62
     0
 10
1.66743
 20
2.72576
 30
0.0
 11
1.88102
 21
2.30821
 31
0.0
  0
LINE
  8
0
 62
     0
 10
1.88102
 20
2.30821
 30
0.0
 11
2.21313
 21
1.97611
 31
0.0
  0
LINE
  8
0
 62
     0
 10
2.21313
 20
1.97611
 30
0.0
 11
2.63067
 21
1.76251
 31
0.0
  0
LINE
  8
0
 62
     0
 10
2.63067
 20
1.76251
 30
0.0
 11
3.09507
 21
1.68947
 31
0.0
  0
LINE
  8
0
 62
     0
 10
3.09507
 20
1.68947
 30
0.0
 11
3.55808
 21
1.76251
 31
0.0
  0
LINE
  8
0
 62
     0
 10
3.55808
 20
1.76251
 30
0.0
 11
3.97563
 21
1.97611
 31
0.0
  0
LINE
  8
0
 62
     0
 10
3.97563
 20
1.97611
 30
0.0
 11
4.30773
 21
2.30821
 31
0.0
  0
LINE
  8
0
 62
     0
 10
4.30773
 20
2.30821
 30
0.0
 11
4.51997
 21
2.72576
 31
0.0
  0
LINE
  8
0
 62
     0
 10
4.51997
 20
2.72576
 30
0.0
 11
4.59437
 21
3.19016
 31
0.0
  0
LINE
  8
0
 62
     0
 10
4.59437
 20
3.19016
 30
0.0
 11
4.51997
 21
3.65319
 31
0.0
  0
LINE
  8
0
 62
     0
 10
4.51997
 20
3.65319
 30
0.0
 11
4.30773
 21
4.07211
 31
0.0
  0
LINE
  8
0
 62
     0
 10
4.30773
 20
4.07211
 30
0.0
 11
3.97563
 21
4.40422
 31
0.0
  0
LINE
  8
0
 62
     0
 10
3.97563
 20
4.40422
 30
0.0
 11
3.55808
 21
4.61641
 31
0.0
  0
LINE
  8
0
 62
     0
 10
3.55808
 20
4.61641
 30
0.0
 11
3.09507
 21
4.68948
 31
0.0
  0
LINE
  8
0
 62
     0
 10
3.09507
 20
4.68948
 30
0.0
 11
2.63067
 21
4.61641
 31
0.0
  0
LINE
  8
0
 62
     0
 10
388.105
 20
75.9107
 30
0.0
 11
387.689
 21
75.6984
 31
0.0
  0
LINE
  8
0
 62
     0
 10
387.689
 20
75.6984
 30
0.0
 11
387.357
 21
75.3664
 31
0.0
  0
LINE
  8
0
 62
     0
 10
387.357
 20
75.3664
 30
0.0
 11
387.142
 21
74.9473
 31
0.0
  0
LINE
  8
0
 62
     0
 10
387.142
 20
74.9473
 30
0.0
 11
387.071
 21
74.4844
 31
0.0
  0
LINE
  8
0
 62
     0
 10
387.071
 20
74.4844
 30
0.0
 11
387.142
 21
74.0212
 31
0.0
  0
LINE
  8
0
 62
     0
 10
387.142
 20
74.0212
 30
0.0
 11
387.357
 21
73.6025
 31
0.0
  0
LINE
  8
0
 62
     0
 10
387.357
 20
73.6025
 30
0.0
 11
387.689
 21
73.2702
 31
0.0
  0
LINE
  8
0
 62
     0
 10
387.689
 20
73.2702
 30
0.0
 11
388.105
 21
73.0582
 31
0.0
  0
LINE
  8
0
 62
     0
 10
388.105
 20
73.0582
 30
0.0
 11
388.571
 21
72.9837
 31
0.0
  0
LINE
  8
0
 62
     0
 10
388.571
 20
72.9837
 30
0.0
 11
389.033
 21
73.0582
 31
0.0
  0
LINE
  8
0
 62
     0
 10
389.033
 20
73.0582
 30
0.0
 11
389.453
 21
73.2702
 31
0.0
  0
LINE
  8
0
 62
     0
 10
389.453
 20
73.2702
 30
0.0
 11
389.784
 21
73.6025
 31
0.0
  0
LINE
  8
0
 62
     0
 10
389.784
 20
73.6025
 30
0.0
 11
389.996
 21
74.0212
 31
0.0
  0
LINE
  8
0
 62
     0
 10
389.996
 20
74.0212
 30
0.0
 11
390.07
 21
74.4844
 31
0.0
  0
LINE
  8
0
 62
     0
 10
390.07
 20
74.4844
 30
0.0
 11
389.996
 21
74.9473
 31
0.0
  0
LINE
  8
0
 62
     0
 10
389.996
 20
74.9473
 30
0.0
 11
389.784
 21
75.3664
 31
0.0
  0
LINE
  8
0
 62
     0
 10
389.784
 20
75.3664
 30
0.0
 11
389.453
 21
75.6984
 31
0.0
  0
LINE
  8
0
 62
     0
 10
389.453
 20
75.6984
 30
0.0
 11
389.033
 21
75.9107
 31
0.0
  0
LINE
  8
0
 62
     0
 10
389.033
 20
75.9107
 30
0.0
 11
388.571
 21
75.9837
 31
0.0
  0
LINE
  8
0
 62
     0
 10
388.571
 20
75.9837
 30
0.0
 11
388.105
 21
75.9107
 31
0.0
  0
LINE
  8
0
 62
     0
 10
2.63067
 20
75.9107
 30
0.0
 11
2.21313
 21
75.6984
 31
0.0
  0
LINE
  8
0
 62
     0
 10
2.21313
 20
75.6984
 30
0.0
 11
1.88102
 21
75.3664
 31
0.0
  0
LINE
  8
0
 62
     0
 10
1.88102
 20
75.3664
 30
0.0
 11
1.66743
 21
74.9473
 31
0.0
  0
LINE
  8
0
 62
     0
 10
1.66743
 20
74.9473
 30
0.0
 11
1.59301
 21
74.4844
 31
0.0
  0
LINE
  8
0
 62
     0
 10
1.59301
 20
74.4844
 30
0.0
 11
1.66743
 21
74.0212
 31
0.0
  0
LINE
  8
0
 62
     0
 10
1.66743
 20
74.0212
 30
0.0
 11
1.88102
 21
73.6025
 31
0.0
  0
LINE
  8
0
 62
     0
 10
1.88102
 20
73.6025
 30
0.0
 11
2.21313
 21
73.2702
 31
0.0
  0
LINE
  8
0
 62
     0
 10
2.21313
 20
73.2702
 30
0.0
 11
2.63067
 21
73.0582
 31
0.0
  0
LINE
  8
0
 62
     0
 10
2.63067
 20
73.0582
 30
0.0
 11
3.09507
 21
72.9837
 31
0.0
  0
LINE
  8
0
 62
     0
 10
3.09507
 20
72.9837
 30
0.0
 11
3.55808
 21
73.0582
 31
0.0
  0
LINE
  8
0
 62
     0
 10
3.55808
 20
73.0582
 30
0.0
 11
3.97563
 21
73.2702
 31
0.0
  0
LINE
  8
0
 62
     0
 10
3.97563
 20
73.2702
 30
0.0
 11
4.30773
 21
73.6025
 31
0.0
  0
LINE
  8
0
 62
     0
 10
4.30773
 20
73.6025
 30
0.0
 11
4.51997
 21
74.0212
 31
0.0
  0
LINE
  8
0
 62
     0
 10
4.51997
 20
74.0212
 30
0.0
 11
4.59437
 21
74.4844
 31
0.0
  0
LINE
  8
0
 62
     0
 10
4.59437
 20
74.4844
 30
0.0
 11
4.51997
 21
74.9473
 31
0.0
  0
LINE
  8
0
 62
     0
 10
4.51997
 20
74.9473
 30
0.0
 11
4.30773
 21
75.3664
 31
0.0
  0
LINE
  8
0
 62
     0
 10
4.30773
 20
75.3664
 30
0.0
 11
3.97563
 21
75.6984
 31
0.0
  0
LINE
  8
0
 62
     0
 10
3.97563
 20
75.6984
 30
0.0
 11
3.55808
 21
75.9107
 31
0.0
  0
LINE
  8
0
 62
     0
 10
3.55808
 20
75.9107
 30
0.0
 11
3.09507
 21
75.9837
 31
0.0
  0
LINE
  8
0
 62
     0
 10
3.09507
 20
75.9837
 30
0.0
 11
2.63067
 21
75.9107
 31
0.0
  0
LINE
  8
0
 62
     0
 10
98.9997
 20
147.205
 30
0.0
 11
98.582
 21
146.991
 31
0.0
  0
LINE
  8
0
 62
     0
 10
98.582
 20
146.991
 30
0.0
 11
98.25
 21
146.659
 31
0.0
  0
LINE
  8
0
 62
     0
 10
98.25
 20
146.659
 30
0.0
 11
98.0362
 21
146.242
 31
0.0
  0
LINE
  8
0
 62
     0
 10
98.0362
 20
146.242
 30
0.0
 11
97.9632
 21
145.777
 31
0.0
  0
LINE
  8
0
 62
     0
 10
97.9632
 20
145.777
 30
0.0
 11
98.0362
 21
145.314
 31
0.0
  0
LINE
  8
0
 62
     0
 10
98.0362
 20
145.314
 30
0.0
 11
98.25
 21
144.896
 31
0.0
  0
LINE
  8
0
 62
     0
 10
98.25
 20
144.896
 30
0.0
 11
98.582
 21
144.564
 31
0.0
  0
LINE
  8
0
 62
     0
 10
98.582
 20
144.564
 30
0.0
 11
98.9997
 21
144.352
 31
0.0
  0
LINE
  8
0
 62
     0
 10
98.9997
 20
144.352
 30
0.0
 11
99.4639
 21
144.278
 31
0.0
  0
LINE
  8
0
 62
     0
 10
99.4639
 20
144.278
 30
0.0
 11
99.9271
 21
144.352
 31
0.0
  0
LINE
  8
0
 62
     0
 10
99.9271
 20
144.352
 30
0.0
 11
100.344
 21
144.564
 31
0.0
  0
LINE
  8
0
 62
     0
 10
100.344
 20
144.564
 30
0.0
 11
100.677
 21
144.896
 31
0.0
  0
LINE
  8
0
 62
     0
 10
100.677
 20
144.896
 30
0.0
 11
100.889
 21
145.314
 31
0.0
  0
LINE
  8
0
 62
     0
 10
100.889
 20
145.314
 30
0.0
 11
100.963
 21
145.777
 31
0.0
  0
LINE
  8
0
 62
     0
 10
100.963
 20
145.777
 30
0.0
 11
100.889
 21
146.242
 31
0.0
  0
LINE
  8
0
 62
     0
 10
100.889
 20
146.242
 30
0.0
 11
100.677
 21
146.659
 31
0.0
  0
LINE
  8
0
 62
     0
 10
100.677
 20
146.659
 30
0.0
 11
100.344
 21
146.991
 31
0.0
  0
LINE
  8
0
 62
     0
 10
100.344
 20
146.991
 30
0.0
 11
99.9271
 21
147.205
 31
0.0
  0
LINE
  8
0
 62
     0
 10
99.9271
 20
147.205
 30
0.0
 11
99.4639
 21
147.278
 31
0.0
  0
LINE
  8
0
 62
     0
 10
99.4639
 20
147.278
 30
0.0
 11
98.9997
 21
147.205
 31
0.0
  0
LINE
  8
0
 62
     0
 10
195.369
 20
147.205
 30
0.0
 11
194.951
 21
146.991
 31
0.0
  0
LINE
  8
0
 62
     0
 10
194.951
 20
146.991
 30
0.0
 11
194.619
 21
146.659
 31
0.0
  0
LINE
  8
0
 62
     0
 10
194.619
 20
146.659
 30
0.0
 11
194.405
 21
146.242
 31
0.0
  0
LINE
  8
0
 62
     0
 10
194.405
 20
146.242
 30
0.0
 11
194.332
 21
145.777
 31
0.0
  0
LINE
  8
0
 62
     0
 10
194.332
 20
145.777
 30
0.0
 11
194.405
 21
145.314
 31
0.0
  0
LINE
  8
0
 62
     0
 10
194.405
 20
145.314
 30
0.0
 11
194.619
 21
144.896
 31
0.0
  0
LINE
  8
0
 62
     0
 10
194.619
 20
144.896
 30
0.0
 11
194.951
 21
144.564
 31
0.0
  0
LINE
  8
0
 62
     0
 10
194.951
 20
144.564
 30
0.0
 11
195.369
 21
144.352
 31
0.0
  0
LINE
  8
0
 62
     0
 10
195.369
 20
144.352
 30
0.0
 11
195.833
 21
144.278
 31
0.0
  0
LINE
  8
0
 62
     0
 10
195.833
 20
144.278
 30
0.0
 11
196.296
 21
144.352
 31
0.0
  0
LINE
  8
0
 62
     0
 10
196.296
 20
144.352
 30
0.0
 11
196.713
 21
144.564
 31
0.0
  0
LINE
  8
0
 62
     0
 10
196.713
 20
144.564
 30
0.0
 11
197.046
 21
144.896
 31
0.0
  0
LINE
  8
0
 62
     0
 10
197.046
 20
144.896
 30
0.0
 11
197.258
 21
145.314
 31
0.0
  0
LINE
  8
0
 62
     0
 10
197.258
 20
145.314
 30
0.0
 11
197.332
 21
145.777
 31
0.0
  0
LINE
  8
0
 62
     0
 10
197.332
 20
145.777
 30
0.0
 11
197.258
 21
146.242
 31
0.0
  0
LINE
  8
0
 62
     0
 10
197.258
 20
146.242
 30
0.0
 11
197.046
 21
146.659
 31
0.0
  0
LINE
  8
0
 62
     0
 10
197.046
 20
146.659
 30
0.0
 11
196.713
 21
146.991
 31
0.0
  0
LINE
  8
0
 62
     0
 10
196.713
 20
146.991
 30
0.0
 11
196.296
 21
147.205
 31
0.0
  0
LINE
  8
0
 62
     0
 10
196.296
 20
147.205
 30
0.0
 11
195.833
 21
147.278
 31
0.0
  0
LINE
  8
0
 62
     0
 10
195.833
 20
147.278
 30
0.0
 11
195.369
 21
147.205
 31
0.0
  0
LINE
  8
0
 62
     0
 10
291.738
 20
147.205
 30
0.0
 11
291.32
 21
146.991
 31
0.0
  0
LINE
  8
0
 62
     0
 10
291.32
 20
146.991
 30
0.0
 11
290.988
 21
146.659
 31
0.0
  0
LINE
  8
0
 62
     0
 10
290.988
 20
146.659
 30
0.0
 11
290.774
 21
146.242
 31
0.0
  0
LINE
  8
0
 62
     0
 10
290.774
 20
146.242
 30
0.0
 11
290.701
 21
145.777
 31
0.0
  0
LINE
  8
0
 62
     0
 10
290.701
 20
145.777
 30
0.0
 11
290.774
 21
145.314
 31
0.0
  0
LINE
  8
0
 62
     0
 10
290.774
 20
145.314
 30
0.0
 11
290.988
 21
144.896
 31
0.0
  0
LINE
  8
0
 62
     0
 10
290.988
 20
144.896
 30
0.0
 11
291.32
 21
144.564
 31
0.0
  0
LINE
  8
0
 62
     0
 10
291.32
 20
144.564
 30
0.0
 11
291.738
 21
144.352
 31
0.0
  0
LINE
  8
0
 62
     0
 10
291.738
 20
144.352
 30
0.0
 11
292.202
 21
144.278
 31
0.0
  0
LINE
  8
0
 62
     0
 10
292.202
 20
144.278
 30
0.0
 11
292.665
 21
144.352
 31
0.0
  0
LINE
  8
0
 62
     0
 10
292.665
 20
144.352
 30
0.0
 11
293.082
 21
144.564
 31
0.0
  0
LINE
  8
0
 62
     0
 10
293.082
 20
144.564
 30
0.0
 11
293.415
 21
144.896
 31
0.0
  0
LINE
  8
0
 62
     0
 10
293.415
 20
144.896
 30
0.0
 11
293.627
 21
145.314
 31
0.0
  0
LINE
  8
0
 62
     0
 10
293.627
 20
145.314
 30
0.0
 11
293.701
 21
145.777
 31
0.0
  0
LINE
  8
0
 62
     0
 10
293.701
 20
145.777
 30
0.0
 11
293.627
 21
146.242
 31
0.0
  0
LINE
  8
0
 62
     0
 10
293.627
 20
146.242
 30
0.0
 11
293.415
 21
146.659
 31
0.0
  0
LINE
  8
0
 62
     0
 10
293.415
 20
146.659
 30
0.0
 11
293.082
 21
146.991
 31
0.0
  0
LINE
  8
0
 62
     0
 10
293.082
 20
146.991
 30
0.0
 11
292.665
 21
147.205
 31
0.0
  0
LINE
  8
0
 62
     0
 10
292.665
 20
147.205
 30
0.0
 11
292.202
 21
147.278
 31
0.0
  0
LINE
  8
0
 62
     0
 10
292.202
 20
147.278
 30
0.0
 11
291.738
 21
147.205
 31
0.0
  0
LINE
  8
0
 62
     0
 10
388.105
 20
147.205
 30
0.0
 11
387.689
 21
146.991
 31
0.0
  0
LINE
  8
0
 62
     0
 10
387.689
 20
146.991
 30
0.0
 11
387.357
 21
146.659
 31
0.0
  0
LINE
  8
0
 62
     0
 10
387.357
 20
146.659
 30
0.0
 11
387.142
 21
146.242
 31
0.0
  0
LINE
  8
0
 62
     0
 10
387.142
 20
146.242
 30
0.0
 11
387.071
 21
145.777
 31
0.0
  0
LINE
  8
0
 62
     0
 10
387.071
 20
145.777
 30
0.0
 11
387.142
 21
145.314
 31
0.0
  0
LINE
  8
0
 62
     0
 10
387.142
 20
145.314
 30
0.0
 11
387.357
 21
144.896
 31
0.0
  0
LINE
  8
0
 62
     0
 10
387.357
 20
144.896
 30
0.0
 11
387.689
 21
144.564
 31
0.0
  0
LINE
  8
0
 62
     0
 10
387.689
 20
144.564
 30
0.0
 11
388.105
 21
144.352
 31
0.0
  0
LINE
  8
0
 62
     0
 10
388.105
 20
144.352
 30
0.0
 11
388.571
 21
144.278
 31
0.0
  0
LINE
  8
0
 62
     0
 10
388.571
 20
144.278
 30
0.0
 11
389.033
 21
144.352
 31
0.0
  0
LINE
  8
0
 62
     0
 10
389.033
 20
144.352
 30
0.0
 11
389.453
 21
144.564
 31
0.0
  0
LINE
  8
0
 62
     0
 10
389.453
 20
144.564
 30
0.0
 11
389.784
 21
144.896
 31
0.0
  0
LINE
  8
0
 62
     0
 10
389.784
 20
144.896
 30
0.0
 11
389.996
 21
145.314
 31
0.0
  0
LINE
  8
0
 62
     0
 10
389.996
 20
145.314
 30
0.0
 11
390.07
 21
145.777
 31
0.0
  0
LINE
  8
0
 62
     0
 10
390.07
 20
145.777
 30
0.0
 11
389.996
 21
146.242
 31
0.0
  0
LINE
  8
0
 62
     0
 10
389.996
 20
146.242
 30
0.0
 11
389.784
 21
146.659
 31
0.0
  0
LINE
  8
0
 62
     0
 10
389.784
 20
146.659
 30
0.0
 11
389.453
 21
146.991
 31
0.0
  0
LINE
  8
0
 62
     0
 10
389.453
 20
146.991
 30
0.0
 11
389.033
 21
147.205
 31
0.0
  0
LINE
  8
0
 62
     0
 10
389.033
 20
147.205
 30
0.0
 11
388.571
 21
147.278
 31
0.0
  0
LINE
  8
0
 62
     0
 10
388.571
 20
147.278
 30
0.0
 11
388.105
 21
147.205
 31
0.0
  0
LINE
  8
0
 62
     0
 10
2.63067
 20
147.205
 30
0.0
 11
2.21313
 21
146.991
 31
0.0
  0
LINE
  8
0
 62
     0
 10
2.21313
 20
146.991
 30
0.0
 11
1.88102
 21
146.659
 31
0.0
  0
LINE
  8
0
 62
     0
 10
1.88102
 20
146.659
 30
0.0
 11
1.66743
 21
146.242
 31
0.0
  0
LINE
  8
0
 62
     0
 10
1.66743
 20
146.242
 30
0.0
 11
1.59301
 21
145.777
 31
0.0
  0
LINE
  8
0
 62
     0
 10
1.59301
 20
145.777
 30
0.0
 11
1.66743
 21
145.314
 31
0.0
  0
LINE
  8
0
 62
     0
 10
1.66743
 20
145.314
 30
0.0
 11
1.88102
 21
144.896
 31
0.0
  0
LINE
  8
0
 62
     0
 10
1.88102
 20
144.896
 30
0.0
 11
2.21313
 21
144.564
 31
0.0
  0
LINE
  8
0
 62
     0
 10
2.21313
 20
144.564
 30
0.0
 11
2.63067
 21
144.352
 31
0.0
  0
LINE
  8
0
 62
     0
 10
2.63067
 20
144.352
 30
0.0
 11
3.09507
 21
144.278
 31
0.0
  0
LINE
  8
0
 62
     0
 10
3.09507
 20
144.278
 30
0.0
 11
3.55808
 21
144.352
 31
0.0
  0
LINE
  8
0
 62
     0
 10
3.55808
 20
144.352
 30
0.0
 11
3.97563
 21
144.564
 31
0.0
  0
LINE
  8
0
 62
     0
 10
3.97563
 20
144.564
 30
0.0
 11
4.30773
 21
144.896
 31
0.0
  0
LINE
  8
0
 62
     0
 10
4.30773
 20
144.896
 30
0.0
 11
4.51997
 21
145.314
 31
0.0
  0
LINE
  8
0
 62
     0
 10
4.51997
 20
145.314
 30
0.0
 11
4.59437
 21
145.777
 31
0.0
  0
LINE
  8
0
 62
     0
 10
4.59437
 20
145.777
 30
0.0
 11
4.51997
 21
146.242
 31
0.0
  0
LINE
  8
0
 62
     0
 10
4.51997
 20
146.242
 30
0.0
 11
4.30773
 21
146.659
 31
0.0
  0
LINE
  8
0
 62
     0
 10
4.30773
 20
146.659
 30
0.0
 11
3.97563
 21
146.991
 31
0.0
  0
LINE
  8
0
 62
     0
 10
3.97563
 20
146.991
 30
0.0
 11
3.55808
 21
147.205
 31
0.0
  0
LINE
  8
0
 62
     0
 10
3.55808
 20
147.205
 30
0.0
 11
3.09507
 21
147.278
 31
0.0
  0
LINE
  8
0
 62
     0
 10
3.09507
 20
147.278
 30
0.0
 11
2.63067
 21
147.205
 31
0.0
  0
ENDSEC
  0
EOF
