M48
; DRILL file KiCad 10.0.6 date 2026-09-27T17:12:59
; FORMAT={-:-/ absolute / metric / decimal}
; #@! TF.CreationDate,2026-09-27T17:12:59-07:00
; #@! TF.GenerationSoftware,Kicad,Pcbnew,10.0.6
; #@! TF.FileFunction,MixedPlating,1,2
FMAT,2
METRIC
; #@! TA.AperFunction,Plated,PTH,ViaDrill
T1C0.300
; #@! TA.AperFunction,Plated,PTH,ComponentDrill
T2C1.000
; #@! TA.AperFunction,Plated,PTH,ComponentDrill
T3C1.500
; #@! TA.AperFunction,Plated,PTH,ComponentDrill
T4C3.000
; #@! TA.AperFunction,Plated,PTH,ComponentDrill
T5C3.048
; #@! TA.AperFunction,NonPlated,NPTH,ComponentDrill
T6C1.750
; #@! TA.AperFunction,NonPlated,NPTH,ComponentDrill
T7C3.200
; #@! TA.AperFunction,NonPlated,NPTH,ComponentDrill
T8C3.988
%
G90
G05
T1
X171.439Y-198.425
X188.107Y-198.425
X205.568Y-197.631
X257.159Y-195.25
X267.477Y-199.219
X299.225Y-190.785
X300.073Y-190.785
X311.924Y-174.694
X319.861Y-191.282
X338.116Y-191.282
X357.165Y-190.785
X384.945Y-190.785
X403.993Y-190.488
X419.867Y-178.582
X422.938Y-85.72
X423.042Y-76.989
X424.657Y-61.087
X425.423Y-69.356
X427.011Y-178.582
X427.804Y-69.846
X427.804Y-147.628
X428.598Y-61.115
X428.659Y-59.534
X430.185Y-146.834
X430.236Y-142.862
X430.322Y-110.324
X430.979Y-114.293
X431.773Y-73.02
X431.773Y-80.957
X432.566Y-61.115
X432.566Y-185.726
X438.916Y-157.153
X447.647Y-149.216
X449.207Y-115.908
X449.209Y-121.436
X449.234Y-112.705
X449.809Y-120.642
X449.973Y-117.522
X450.028Y-113.499
X450.028Y-119.055
X450.822Y-114.293
X451.615Y-115.087
X452.403Y-115.88
T2
X408.637Y-70.533
X408.637Y-85.033
X411.137Y-70.533
X413.637Y-70.533
X413.637Y-85.033
X429.232Y-63.171
X429.232Y-65.711
X429.232Y-68.251
X429.232Y-70.791
X429.232Y-73.331
X429.232Y-75.871
X429.232Y-78.411
X429.232Y-80.951
X429.232Y-83.491
X429.232Y-86.031
X429.232Y-88.571
X429.232Y-91.111
X429.232Y-93.651
X429.232Y-96.191
X429.232Y-98.731
X429.232Y-101.271
X429.232Y-103.811
X429.232Y-106.351
X429.232Y-108.891
X429.232Y-111.431
X447.012Y-63.171
X447.012Y-65.711
X447.012Y-68.251
X447.012Y-70.791
X447.012Y-73.331
X447.012Y-75.871
X447.012Y-78.411
X447.012Y-80.951
X447.012Y-83.491
X447.012Y-86.031
X447.012Y-88.571
X447.012Y-91.111
X447.012Y-93.651
X447.012Y-96.191
X447.012Y-98.731
X447.012Y-101.271
X447.012Y-103.811
X447.012Y-106.351
X447.012Y-108.891
X447.012Y-111.431
T4
X56.528Y-73.23
X56.528Y-101.804
X58.909Y-177.999
X61.291Y-120.852
X62.878Y-75.77
X62.878Y-104.344
X63.672Y-139.901
X65.26Y-180.539
X67.641Y-123.392
X68.434Y-158.95
X70.022Y-142.441
X74.784Y-161.49
X75.577Y-101.804
X81.927Y-104.344
X82.721Y-177.999
X85.102Y-73.23
X85.102Y-120.852
X89.07Y-180.539
X89.864Y-139.901
X91.452Y-75.77
X91.452Y-123.392
X94.626Y-101.804
X96.214Y-142.441
X99.388Y-158.95
X100.976Y-104.344
X104.15Y-73.23
X104.15Y-120.852
X105.738Y-161.49
X106.531Y-177.999
X108.913Y-139.901
X110.5Y-75.77
X110.5Y-123.392
X112.881Y-180.539
X113.675Y-101.804
X115.263Y-142.441
X118.437Y-158.95
X120.025Y-104.344
X123.199Y-73.23
X123.199Y-120.852
X124.787Y-161.49
X127.961Y-139.901
X129.549Y-75.77
X129.549Y-123.392
X132.724Y-101.804
X134.311Y-142.441
X137.486Y-158.95
X139.074Y-104.344
X142.248Y-73.23
X142.248Y-120.852
X143.836Y-161.49
X147.01Y-139.901
X148.598Y-75.77
X148.598Y-123.392
X151.772Y-101.804
X153.36Y-142.441
X156.535Y-158.95
X158.122Y-104.344
X161.297Y-120.852
X162.885Y-161.49
X166.059Y-139.901
X167.647Y-123.392
X170.821Y-73.23
X170.821Y-101.804
X172.409Y-142.441
X175.583Y-158.95
X177.171Y-75.77
X177.171Y-104.344
X177.964Y-177.999
X180.346Y-120.852
X181.933Y-161.49
X184.314Y-180.539
X185.108Y-139.901
X186.696Y-123.392
X189.87Y-73.23
X189.87Y-101.804
X191.458Y-142.441
X194.632Y-158.95
X196.22Y-75.77
X196.22Y-104.344
X199.394Y-120.852
X200.982Y-161.49
X204.157Y-139.901
X205.744Y-123.392
X208.919Y-73.23
X208.919Y-101.804
X210.507Y-142.441
X213.681Y-158.95
X215.269Y-75.77
X215.269Y-104.344
X218.443Y-120.852
X220.031Y-161.49
X223.205Y-139.901
X224.793Y-123.392
X227.968Y-73.23
X227.968Y-101.804
X229.555Y-142.441
X231.936Y-158.95
X234.318Y-75.77
X234.318Y-104.344
X237.492Y-120.852
X238.286Y-161.49
X242.254Y-139.901
X243.842Y-123.392
X247.016Y-101.804
X247.016Y-177.999
X248.604Y-142.441
X250.985Y-158.95
X253.366Y-104.344
X253.366Y-180.539
X256.541Y-73.23
X256.541Y-120.852
X257.335Y-161.49
X261.303Y-139.901
X262.891Y-75.77
X262.891Y-123.392
X266.065Y-101.804
X266.065Y-177.999
X267.653Y-142.441
X270.034Y-158.95
X272.415Y-104.344
X272.415Y-180.539
X275.59Y-73.23
X275.59Y-120.852
X276.384Y-161.49
X280.352Y-139.901
X281.94Y-75.77
X281.94Y-123.392
X285.114Y-101.804
X285.114Y-177.999
X286.702Y-142.441
X291.464Y-104.344
X291.464Y-180.539
X294.638Y-73.23
X294.638Y-120.852
X297.019Y-158.95
X300.988Y-75.77
X300.988Y-123.392
X303.369Y-161.49
X308.925Y-182.761
X311.306Y-139.901
X313.687Y-73.23
X313.687Y-101.804
X315.275Y-185.301
X317.656Y-142.441
X318.449Y-120.852
X320.037Y-75.77
X320.037Y-104.344
X324.799Y-123.392
X327.974Y-163.712
X327.974Y-182.761
X334.324Y-166.252
X334.324Y-185.301
X342.26Y-73.23
X347.023Y-182.761
X348.61Y-75.77
X351.785Y-101.804
X351.785Y-120.852
X351.785Y-139.901
X351.785Y-158.95
X353.373Y-185.301
X358.135Y-104.344
X358.135Y-123.392
X358.135Y-142.441
X358.135Y-161.49
X361.309Y-73.23
X367.659Y-75.77
X370.834Y-101.804
X370.834Y-120.852
X370.834Y-139.901
X370.834Y-158.95
X370.834Y-177.999
X377.184Y-104.344
X377.184Y-123.392
X377.184Y-142.441
X377.184Y-161.49
X377.184Y-180.539
X380.358Y-73.23
X386.708Y-75.77
X389.882Y-101.804
X389.882Y-120.852
X389.882Y-139.901
X389.882Y-158.95
X389.882Y-177.999
X396.232Y-104.344
X396.232Y-123.392
X396.232Y-142.441
X396.232Y-161.49
X396.232Y-180.539
X406.391Y-137.997
X406.391Y-176.094
X408.931Y-101.804
X408.931Y-131.647
X408.931Y-169.744
X415.281Y-104.344
T5
X59.068Y-157.045
X82.88Y-157.045
X130.498Y-176.094
X230.511Y-176.094
X301.94Y-137.996
X304.321Y-99.899
X325.752Y-137.996
X328.133Y-99.899
X404.486Y-123.551
X404.486Y-147.363
X404.486Y-161.648
X404.486Y-185.461
T6
X53.988Y-78.31
X53.988Y-106.884
X56.369Y-183.079
X58.751Y-125.932
X61.132Y-144.981
X64.148Y-78.31
X64.148Y-106.884
X65.894Y-164.03
X66.529Y-183.079
X68.911Y-125.932
X71.292Y-144.981
X73.037Y-106.884
X76.054Y-164.03
X80.18Y-183.079
X82.562Y-78.31
X82.562Y-125.932
X83.197Y-106.884
X87.324Y-144.981
X90.34Y-183.079
X92.086Y-106.884
X92.722Y-78.31
X92.722Y-125.932
X96.848Y-164.03
X97.484Y-144.981
X101.61Y-78.31
X101.61Y-125.932
X102.246Y-106.884
X103.992Y-183.079
X106.373Y-144.981
X107.008Y-164.03
X111.135Y-106.884
X111.77Y-78.31
X111.77Y-125.932
X114.151Y-183.079
X115.897Y-164.03
X116.533Y-144.981
X120.659Y-78.31
X120.659Y-125.932
X121.295Y-106.884
X125.421Y-144.981
X126.057Y-164.03
X130.184Y-106.884
X130.819Y-78.31
X130.819Y-125.932
X134.946Y-164.03
X135.581Y-144.981
X139.708Y-78.31
X139.708Y-125.932
X140.344Y-106.884
X144.47Y-144.981
X145.106Y-164.03
X149.232Y-106.884
X149.868Y-78.31
X149.868Y-125.932
X153.995Y-164.03
X154.63Y-144.981
X158.757Y-125.932
X159.392Y-106.884
X163.519Y-144.981
X164.155Y-164.03
X168.281Y-78.31
X168.281Y-106.884
X168.917Y-125.932
X173.043Y-164.03
X173.679Y-144.981
X175.424Y-183.079
X177.806Y-125.932
X178.441Y-78.31
X178.441Y-106.884
X182.568Y-144.981
X183.203Y-164.03
X185.584Y-183.079
X187.33Y-78.31
X187.33Y-106.884
X187.966Y-125.932
X192.092Y-164.03
X192.728Y-144.981
X196.854Y-125.932
X197.49Y-78.31
X197.49Y-106.884
X201.617Y-144.981
X202.252Y-164.03
X206.379Y-78.31
X206.379Y-106.884
X207.014Y-125.932
X211.141Y-164.03
X211.777Y-144.981
X215.903Y-125.932
X216.539Y-78.31
X216.539Y-106.884
X220.665Y-144.981
X221.301Y-164.03
X225.428Y-78.31
X225.428Y-106.884
X226.063Y-125.932
X229.396Y-164.03
X230.825Y-144.981
X234.952Y-125.932
X235.588Y-78.31
X235.588Y-106.884
X239.556Y-164.03
X239.714Y-144.981
X244.476Y-106.884
X244.476Y-183.079
X245.112Y-125.932
X248.445Y-164.03
X249.874Y-144.981
X254.001Y-78.31
X254.001Y-125.932
X254.636Y-106.884
X254.636Y-183.079
X258.605Y-164.03
X258.763Y-144.981
X263.525Y-106.884
X263.525Y-183.079
X264.161Y-78.31
X264.161Y-125.932
X267.494Y-164.03
X268.923Y-144.981
X273.05Y-78.31
X273.05Y-125.932
X273.685Y-106.884
X273.685Y-183.079
X277.654Y-164.03
X277.812Y-144.981
X282.574Y-106.884
X282.574Y-183.079
X283.21Y-78.31
X283.21Y-125.932
X287.972Y-144.981
X292.098Y-78.31
X292.098Y-125.932
X292.734Y-106.884
X292.734Y-183.079
X294.479Y-164.03
X302.258Y-78.31
X302.258Y-125.932
X304.639Y-164.03
X306.385Y-187.841
X308.766Y-144.981
X311.147Y-78.31
X311.147Y-106.884
X315.909Y-125.932
X316.545Y-187.841
X318.926Y-144.981
X321.307Y-78.31
X321.307Y-106.884
X325.434Y-168.792
X325.434Y-187.841
X326.069Y-125.932
X335.594Y-168.792
X335.594Y-187.841
X339.72Y-78.31
X344.483Y-187.841
X349.245Y-106.884
X349.245Y-125.932
X349.245Y-144.981
X349.245Y-164.03
X349.88Y-78.31
X354.643Y-187.841
X358.769Y-78.31
X359.405Y-106.884
X359.405Y-125.932
X359.405Y-144.981
X359.405Y-164.03
X368.294Y-106.884
X368.294Y-125.932
X368.294Y-144.981
X368.294Y-164.03
X368.294Y-183.079
X368.929Y-78.31
X377.818Y-78.31
X378.454Y-106.884
X378.454Y-125.932
X378.454Y-144.981
X378.454Y-164.03
X378.454Y-183.079
X387.342Y-106.884
X387.342Y-125.932
X387.342Y-144.981
X387.342Y-164.03
X387.342Y-183.079
X387.978Y-78.31
X397.502Y-106.884
X397.502Y-125.932
X397.502Y-144.981
X397.502Y-164.03
X397.502Y-183.079
X406.391Y-106.884
X411.471Y-130.377
X411.471Y-140.537
X411.471Y-168.474
X411.471Y-178.634
X416.551Y-106.884
T7
X43.654Y-132.548
X43.654Y-203.187
X48.416Y-53.972
X138.897Y-54.765
X139.691Y-203.187
X235.729Y-54.765
X235.729Y-203.187
X332.56Y-54.765
X332.56Y-203.187
X414.311Y-55.559
X438.122Y-171.439
X449.234Y-203.187
T8
X59.068Y-172.285
X59.068Y-78.31
X59.068Y-106.884
X61.45Y-183.079
X63.831Y-125.932
X66.212Y-144.981
X70.974Y-164.03
X78.117Y-106.884
X82.88Y-172.285
X85.26Y-183.079
X87.642Y-78.31
X87.642Y-125.932
X92.404Y-144.981
X97.166Y-106.884
X101.928Y-164.03
X106.69Y-78.31
X106.69Y-125.932
X109.072Y-183.079
X111.453Y-144.981
X116.215Y-106.884
X120.977Y-164.03
X125.739Y-78.31
X125.739Y-125.932
X130.498Y-191.334
X130.501Y-144.981
X135.264Y-106.884
X140.026Y-164.03
X144.788Y-78.31
X144.788Y-125.932
X149.55Y-144.981
X154.312Y-106.884
X159.075Y-164.03
X163.837Y-125.932
X168.599Y-144.981
X173.361Y-78.31
X173.361Y-106.884
X178.123Y-164.03
X180.504Y-183.079
X182.886Y-125.932
X187.648Y-144.981
X192.41Y-78.31
X192.41Y-106.884
X197.172Y-164.03
X201.934Y-125.932
X206.697Y-144.981
X211.459Y-78.31
X211.459Y-106.884
X216.221Y-164.03
X220.983Y-125.932
X225.745Y-144.981
X230.508Y-78.31
X230.508Y-106.884
X230.511Y-191.334
X234.476Y-164.03
X240.032Y-125.932
X244.794Y-144.981
X249.556Y-106.884
X249.556Y-183.079
X253.525Y-164.03
X259.081Y-78.31
X259.081Y-125.932
X263.843Y-144.981
X268.605Y-106.884
X268.605Y-183.079
X272.574Y-164.03
X278.13Y-78.31
X278.13Y-125.932
X282.892Y-144.981
X287.654Y-106.884
X287.654Y-183.079
X297.178Y-78.31
X297.178Y-125.932
X299.56Y-164.03
X301.94Y-153.236
X304.321Y-115.139
X311.465Y-187.841
X313.846Y-144.981
X316.227Y-78.31
X316.227Y-106.884
X320.989Y-125.932
X325.752Y-153.236
X328.133Y-115.139
X330.514Y-168.792
X330.514Y-187.841
X344.8Y-78.31
X349.563Y-187.841
X354.325Y-106.884
X354.325Y-125.932
X354.325Y-144.981
X354.325Y-164.03
X363.849Y-78.31
X373.374Y-106.884
X373.374Y-125.932
X373.374Y-144.981
X373.374Y-164.03
X373.374Y-183.079
X382.898Y-78.31
X392.422Y-106.884
X392.422Y-125.932
X392.422Y-144.981
X392.422Y-164.03
X392.422Y-183.079
X411.471Y-106.884
X411.471Y-135.457
X411.471Y-173.554
X419.726Y-123.551
X419.726Y-147.363
X419.726Y-161.648
X419.726Y-185.461
T3
G00X405.537Y-77.383
M15
G01X405.537Y-78.683
M16
G05
G00X416.737Y-77.383
M15
G01X416.737Y-78.683
M16
G05
M30
