%TF.GenerationSoftware,KiCad,Pcbnew,10.0.6*%
%TF.CreationDate,2026-09-27T17:12:08-07:00*%
%TF.ProjectId,vBoard,76426f61-7264-42e6-9b69-6361645f7063,rev?*%
%TF.SameCoordinates,Original*%
%TF.FileFunction,Paste,Bot*%
%TF.FilePolarity,Positive*%
%FSLAX46Y46*%
G04 Gerber Fmt 4.6, Leading zero omitted, Abs format (unit mm)*
G04 Created by KiCad (PCBNEW 10.0.6) date 2026-09-27 17:12:08*
%MOMM*%
%LPD*%
G01*
G04 APERTURE LIST*
G04 Aperture macros list*
%AMRoundRect*
0 Rectangle with rounded corners*
0 $1 Rounding radius*
0 $2 $3 $4 $5 $6 $7 $8 $9 X,Y pos of 4 corners*
0 Add a 4 corners polygon primitive as box body*
4,1,4,$2,$3,$4,$5,$6,$7,$8,$9,$2,$3,0*
0 Add four circle primitives for the rounded corners*
1,1,$1+$1,$2,$3*
1,1,$1+$1,$4,$5*
1,1,$1+$1,$6,$7*
1,1,$1+$1,$8,$9*
0 Add four rect primitives between the rounded corners*
20,1,$1+$1,$2,$3,$4,$5,0*
20,1,$1+$1,$4,$5,$6,$7,0*
20,1,$1+$1,$6,$7,$8,$9,0*
20,1,$1+$1,$8,$9,$2,$3,0*%
G04 Aperture macros list end*
%ADD10RoundRect,0.225000X0.375000X-0.225000X0.375000X0.225000X-0.375000X0.225000X-0.375000X-0.225000X0*%
%ADD11RoundRect,0.225000X0.225000X0.375000X-0.225000X0.375000X-0.225000X-0.375000X0.225000X-0.375000X0*%
G04 APERTURE END LIST*
D10*
%TO.C,D32*%
X382898000Y-116947300D03*
X382898000Y-113647300D03*
%TD*%
%TO.C,D66*%
X363849200Y-155044900D03*
X363849200Y-151744900D03*
%TD*%
%TO.C,D72*%
X149550200Y-174093700D03*
X149550200Y-170793700D03*
%TD*%
%TO.C,D45*%
X268605200Y-135996100D03*
X268605200Y-132696100D03*
%TD*%
%TO.C,D41*%
X192410000Y-135996100D03*
X192410000Y-132696100D03*
%TD*%
%TO.C,D48*%
X330513800Y-135996100D03*
X330513800Y-132696100D03*
%TD*%
%TO.C,D26*%
X240032000Y-116947300D03*
X240032000Y-113647300D03*
%TD*%
%TO.C,D13*%
X325751600Y-88374100D03*
X325751600Y-85074100D03*
%TD*%
%TO.C,D35*%
X73355000Y-135996100D03*
X73355000Y-132696100D03*
%TD*%
%TO.C,D34*%
X420995600Y-116947300D03*
X420995600Y-113647300D03*
%TD*%
%TO.C,D58*%
X178123400Y-155044900D03*
X178123400Y-151744900D03*
%TD*%
%TO.C,D9*%
X240032000Y-88374100D03*
X240032000Y-85074100D03*
%TD*%
%TO.C,D69*%
X90022700Y-174093700D03*
X90022700Y-170793700D03*
%TD*%
%TO.C,D36*%
X97166000Y-135996100D03*
X97166000Y-132696100D03*
%TD*%
%TO.C,D93*%
X382898000Y-193142500D03*
X382898000Y-189842500D03*
%TD*%
%TO.C,D6*%
X182885600Y-88374100D03*
X182885600Y-85074100D03*
%TD*%
%TO.C,D24*%
X201934400Y-116947300D03*
X201934400Y-113647300D03*
%TD*%
%TO.C,D46*%
X287654000Y-135996100D03*
X287654000Y-132696100D03*
%TD*%
%TO.C,D75*%
X206696600Y-174093700D03*
X206696600Y-170793700D03*
%TD*%
%TO.C,D14*%
X354324800Y-88374100D03*
X354324800Y-85074100D03*
%TD*%
%TO.C,D33*%
X401946800Y-116947300D03*
X401946800Y-113647300D03*
%TD*%
%TO.C,D63*%
X273367400Y-155044900D03*
X273367400Y-151744900D03*
%TD*%
%TO.C,D20*%
X125739200Y-116947300D03*
X125739200Y-113647300D03*
%TD*%
%TO.C,D40*%
X173361200Y-135996100D03*
X173361200Y-132696100D03*
%TD*%
%TO.C,D65*%
X332894900Y-155044900D03*
X332894900Y-151744900D03*
%TD*%
%TO.C,D74*%
X187647800Y-174093700D03*
X187647800Y-170793700D03*
%TD*%
%TO.C,D92*%
X340038200Y-178855900D03*
X340038200Y-175555900D03*
%TD*%
%TO.C,D73*%
X168599000Y-174093700D03*
X168599000Y-170793700D03*
%TD*%
%TO.C,D28*%
X278129600Y-116947300D03*
X278129600Y-113647300D03*
%TD*%
%TO.C,D59*%
X197172200Y-155044900D03*
X197172200Y-151744900D03*
%TD*%
%TO.C,D10*%
X268605200Y-88374100D03*
X268605200Y-85074100D03*
%TD*%
%TO.C,D47*%
X306702800Y-135996100D03*
X306702800Y-132696100D03*
%TD*%
%TO.C,D94*%
X401946800Y-193142500D03*
X401946800Y-189842500D03*
%TD*%
%TO.C,D17*%
X68592800Y-116947300D03*
X68592800Y-113647300D03*
%TD*%
%TO.C,D18*%
X87641600Y-116947300D03*
X87641600Y-113647300D03*
%TD*%
%TO.C,D39*%
X154312400Y-135996100D03*
X154312400Y-132696100D03*
%TD*%
%TO.C,D55*%
X120977000Y-155044900D03*
X120977000Y-151744900D03*
%TD*%
%TO.C,D82*%
X382898000Y-174093700D03*
X382898000Y-170793700D03*
%TD*%
%TO.C,D44*%
X249556400Y-135996100D03*
X249556400Y-132696100D03*
%TD*%
%TO.C,D29*%
X297178400Y-116947300D03*
X297178400Y-113647300D03*
%TD*%
%TO.C,D81*%
X363849200Y-174093700D03*
X363849200Y-170793700D03*
%TD*%
%TO.C,D83*%
X401946800Y-174093700D03*
X401946800Y-170793700D03*
%TD*%
%TO.C,D42*%
X211458800Y-135996100D03*
X211458800Y-132696100D03*
%TD*%
%TO.C,D86*%
X94784900Y-193142500D03*
X94784900Y-189842500D03*
%TD*%
D11*
%TO.C,D84*%
X409469700Y-192603200D03*
X406169700Y-192603200D03*
%TD*%
D10*
%TO.C,D60*%
X216221000Y-155044900D03*
X216221000Y-151744900D03*
%TD*%
%TO.C,D21*%
X144788000Y-116947300D03*
X144788000Y-113647300D03*
%TD*%
%TO.C,D61*%
X235269800Y-155044900D03*
X235269800Y-151744900D03*
%TD*%
%TO.C,D22*%
X163836800Y-116947300D03*
X163836800Y-113647300D03*
%TD*%
%TO.C,D91*%
X297178400Y-193142500D03*
X297178400Y-189842500D03*
%TD*%
%TO.C,D96*%
X340038200Y-197904700D03*
X340038200Y-194604700D03*
%TD*%
%TO.C,D31*%
X363849200Y-116947300D03*
X363849200Y-113647300D03*
%TD*%
%TO.C,D51*%
X401946800Y-138377200D03*
X401946800Y-135077200D03*
%TD*%
%TO.C,D1*%
X68592800Y-88374100D03*
X68592800Y-85074100D03*
%TD*%
%TO.C,D95*%
X320989400Y-197904700D03*
X320989400Y-194604700D03*
%TD*%
%TO.C,D79*%
X282098100Y-174093700D03*
X282098100Y-170793700D03*
%TD*%
%TO.C,D85*%
X70973900Y-193142500D03*
X70973900Y-189842500D03*
%TD*%
%TO.C,D23*%
X182885600Y-116947300D03*
X182885600Y-113647300D03*
%TD*%
%TO.C,D2*%
X97166000Y-88374100D03*
X97166000Y-85074100D03*
%TD*%
%TO.C,D68*%
X401946800Y-159807100D03*
X401946800Y-156507100D03*
%TD*%
%TO.C,D78*%
X263049300Y-174093700D03*
X263049300Y-170793700D03*
%TD*%
%TO.C,D19*%
X106690400Y-116947300D03*
X106690400Y-113647300D03*
%TD*%
%TO.C,D8*%
X220983200Y-88374100D03*
X220983200Y-85074100D03*
%TD*%
%TO.C,D90*%
X278129600Y-193142500D03*
X278129600Y-189842500D03*
%TD*%
%TO.C,D62*%
X254318600Y-155044900D03*
X254318600Y-151744900D03*
%TD*%
%TO.C,D87*%
X118595900Y-193142500D03*
X118595900Y-189842500D03*
%TD*%
D11*
%TO.C,D52*%
X409311200Y-154505600D03*
X406011200Y-154505600D03*
%TD*%
D10*
%TO.C,D71*%
X130501400Y-172295500D03*
X130501400Y-168995500D03*
%TD*%
%TO.C,D11*%
X287654000Y-88374100D03*
X287654000Y-85074100D03*
%TD*%
%TO.C,D64*%
X292416200Y-155044900D03*
X292416200Y-151744900D03*
%TD*%
%TO.C,D56*%
X140025800Y-155044900D03*
X140025800Y-151744900D03*
%TD*%
%TO.C,D77*%
X244000500Y-174093700D03*
X244000500Y-170793700D03*
%TD*%
%TO.C,D30*%
X335276000Y-116947300D03*
X335276000Y-113647300D03*
%TD*%
%TO.C,D5*%
X154312400Y-88374100D03*
X154312400Y-85074100D03*
%TD*%
%TO.C,D49*%
X363849200Y-135996100D03*
X363849200Y-132696100D03*
%TD*%
%TO.C,D12*%
X306702800Y-88374100D03*
X306702800Y-85074100D03*
%TD*%
%TO.C,D89*%
X259080800Y-193142500D03*
X259080800Y-189842500D03*
%TD*%
%TO.C,D70*%
X111452600Y-174093700D03*
X111452600Y-170793700D03*
%TD*%
%TO.C,D25*%
X220983200Y-116947300D03*
X220983200Y-113647300D03*
%TD*%
%TO.C,D3*%
X116214800Y-88374100D03*
X116214800Y-85074100D03*
%TD*%
%TO.C,D37*%
X116214800Y-135996100D03*
X116214800Y-132696100D03*
%TD*%
%TO.C,D76*%
X225745400Y-174093700D03*
X225745400Y-170793700D03*
%TD*%
%TO.C,D15*%
X373373600Y-88374100D03*
X373373600Y-85074100D03*
%TD*%
%TO.C,D50*%
X382898000Y-135996100D03*
X382898000Y-132696100D03*
%TD*%
D11*
%TO.C,D98*%
X420723600Y-90481800D03*
X417423600Y-90481800D03*
%TD*%
D10*
%TO.C,D57*%
X159074600Y-155044900D03*
X159074600Y-151744900D03*
%TD*%
%TO.C,D80*%
X309083900Y-174093700D03*
X309083900Y-170793700D03*
%TD*%
%TO.C,D67*%
X382898000Y-155044900D03*
X382898000Y-151744900D03*
%TD*%
%TO.C,D27*%
X259080800Y-116947300D03*
X259080800Y-113647300D03*
%TD*%
%TO.C,D4*%
X135263600Y-88374100D03*
X135263600Y-85074100D03*
%TD*%
%TO.C,D16*%
X392422400Y-88374100D03*
X392422400Y-85074100D03*
%TD*%
%TO.C,D97*%
X359087000Y-197904700D03*
X359087000Y-194604700D03*
%TD*%
%TO.C,D53*%
X75736100Y-155044900D03*
X75736100Y-151744900D03*
%TD*%
%TO.C,D7*%
X201934400Y-88374100D03*
X201934400Y-85074100D03*
%TD*%
%TO.C,D54*%
X101928200Y-155044900D03*
X101928200Y-151744900D03*
%TD*%
%TO.C,D38*%
X135263600Y-135996100D03*
X135263600Y-132696100D03*
%TD*%
%TO.C,D88*%
X240032000Y-193142500D03*
X240032000Y-189842500D03*
%TD*%
%TO.C,D43*%
X230507600Y-135996100D03*
X230507600Y-132696100D03*
%TD*%
M02*
