%TF.GenerationSoftware,KiCad,Pcbnew,10.0.6*%
%TF.CreationDate,2026-09-27T17:12:08-07:00*%
%TF.ProjectId,vBoard,76426f61-7264-42e6-9b69-6361645f7063,rev?*%
%TF.SameCoordinates,Original*%
%TF.FileFunction,Soldermask,Top*%
%TF.FilePolarity,Negative*%
%FSLAX46Y46*%
G04 Gerber Fmt 4.6, Leading zero omitted, Abs format (unit mm)*
G04 Created by KiCad (PCBNEW 10.0.6) date 2026-09-27 17:12:08*
%MOMM*%
%LPD*%
G01*
G04 APERTURE LIST*
G04 Aperture macros list*
%AMRoundRect*
0 Rectangle with rounded corners*
0 $1 Rounding radius*
0 $2 $3 $4 $5 $6 $7 $8 $9 X,Y pos of 4 corners*
0 Add a 4 corners polygon primitive as box body*
4,1,4,$2,$3,$4,$5,$6,$7,$8,$9,$2,$3,0*
0 Add four circle primitives for the rounded corners*
1,1,$1+$1,$2,$3*
1,1,$1+$1,$4,$5*
1,1,$1+$1,$6,$7*
1,1,$1+$1,$8,$9*
0 Add four rect primitives between the rounded corners*
20,1,$1+$1,$2,$3,$4,$5,0*
20,1,$1+$1,$4,$5,$6,$7,0*
20,1,$1+$1,$6,$7,$8,$9,0*
20,1,$1+$1,$8,$9,$2,$3,0*%
%AMFreePoly0*
4,1,37,0.603843,0.796157,0.639018,0.796157,0.711114,0.766294,0.766294,0.711114,0.796157,0.639018,0.796157,0.603843,0.800000,0.600000,0.800000,-0.600000,0.796157,-0.603843,0.796157,-0.639018,0.766294,-0.711114,0.711114,-0.766294,0.639018,-0.796157,0.603843,-0.796157,0.600000,-0.800000,0.000000,-0.800000,0.000000,-0.796148,-0.078414,-0.796148,-0.232228,-0.765552,-0.377117,-0.705537,
-0.507515,-0.618408,-0.618408,-0.507515,-0.705537,-0.377117,-0.765552,-0.232228,-0.796148,-0.078414,-0.796148,0.078414,-0.765552,0.232228,-0.705537,0.377117,-0.618408,0.507515,-0.507515,0.618408,-0.377117,0.705537,-0.232228,0.765552,-0.078414,0.796148,0.000000,0.796148,0.000000,0.800000,0.600000,0.800000,0.603843,0.796157,0.603843,0.796157,$1*%
%AMFreePoly1*
4,1,37,0.000000,0.796148,0.078414,0.796148,0.232228,0.765552,0.377117,0.705537,0.507515,0.618408,0.618408,0.507515,0.705537,0.377117,0.765552,0.232228,0.796148,0.078414,0.796148,-0.078414,0.765552,-0.232228,0.705537,-0.377117,0.618408,-0.507515,0.507515,-0.618408,0.377117,-0.705537,0.232228,-0.765552,0.078414,-0.796148,0.000000,-0.796148,0.000000,-0.800000,-0.600000,-0.800000,
-0.603843,-0.796157,-0.639018,-0.796157,-0.711114,-0.766294,-0.766294,-0.711114,-0.796157,-0.639018,-0.796157,-0.603843,-0.800000,-0.600000,-0.800000,0.600000,-0.796157,0.603843,-0.796157,0.639018,-0.766294,0.711114,-0.711114,0.766294,-0.639018,0.796157,-0.603843,0.796157,-0.600000,0.800000,0.000000,0.800000,0.000000,0.796148,0.000000,0.796148,$1*%
G04 Aperture macros list end*
%ADD10C,3.200000*%
%ADD11C,1.750000*%
%ADD12C,3.987800*%
%ADD13C,3.300000*%
%ADD14RoundRect,0.250000X-1.025000X-1.000000X1.025000X-1.000000X1.025000X1.000000X-1.025000X1.000000X0*%
%ADD15R,2.000000X2.000000*%
%ADD16C,2.000000*%
%ADD17R,2.000000X3.200000*%
%ADD18RoundRect,0.250000X1.000000X-1.025000X1.000000X1.025000X-1.000000X1.025000X-1.000000X-1.025000X0*%
%ADD19RoundRect,0.200000X-0.600000X-0.600000X0.600000X-0.600000X0.600000X0.600000X-0.600000X0.600000X0*%
%ADD20C,1.600000*%
%ADD21FreePoly0,0.000000*%
%ADD22FreePoly1,0.000000*%
G04 APERTURE END LIST*
D10*
%TO.C,H12*%
X438122400Y-171439200D03*
%TD*%
%TO.C,H11*%
X414311400Y-55559000D03*
%TD*%
%TO.C,H10*%
X332560300Y-54765300D03*
%TD*%
%TO.C,H9*%
X235728900Y-54765300D03*
%TD*%
%TO.C,H8*%
X138897500Y-54765300D03*
%TD*%
%TO.C,H7*%
X48415700Y-53971600D03*
%TD*%
%TO.C,H6*%
X43653500Y-132547900D03*
%TD*%
%TO.C,H5*%
X449234200Y-203187200D03*
%TD*%
%TO.C,H4*%
X332560300Y-203187200D03*
%TD*%
%TO.C,H3*%
X235728900Y-203187200D03*
%TD*%
%TO.C,H2*%
X139691200Y-203187200D03*
%TD*%
%TO.C,H1*%
X43653500Y-203187200D03*
%TD*%
D11*
%TO.C,SW46*%
X273049600Y-125932400D03*
D12*
X278129600Y-125932400D03*
D11*
X283209600Y-125932400D03*
D13*
X281939600Y-123392400D03*
D14*
X285489600Y-123392400D03*
X272039600Y-120852400D03*
D13*
X275589600Y-120852400D03*
%TD*%
D11*
%TO.C,SW30*%
X311147200Y-106883600D03*
D12*
X316227200Y-106883600D03*
D11*
X321307200Y-106883600D03*
D13*
X320037200Y-104343600D03*
D14*
X323587200Y-104343600D03*
X310137200Y-101803600D03*
D13*
X313687200Y-101803600D03*
%TD*%
D11*
%TO.C,SW34*%
X406391200Y-106883600D03*
D12*
X411471200Y-106883600D03*
D11*
X416551200Y-106883600D03*
D13*
X415281200Y-104343600D03*
D14*
X418831200Y-104343600D03*
X405381200Y-101803600D03*
D13*
X408931200Y-101803600D03*
%TD*%
D11*
%TO.C,SW29*%
X282574000Y-106883600D03*
D12*
X287654000Y-106883600D03*
D11*
X292734000Y-106883600D03*
D13*
X291464000Y-104343600D03*
D14*
X295014000Y-104343600D03*
X281564000Y-101803600D03*
D13*
X285114000Y-101803600D03*
%TD*%
D11*
%TO.C,SW27*%
X244476400Y-106883600D03*
D12*
X249556400Y-106883600D03*
D11*
X254636400Y-106883600D03*
D13*
X253366400Y-104343600D03*
D14*
X256916400Y-104343600D03*
X243466400Y-101803600D03*
D13*
X247016400Y-101803600D03*
%TD*%
D11*
%TO.C,SW49*%
X349244800Y-125932400D03*
D12*
X354324800Y-125932400D03*
D11*
X359404800Y-125932400D03*
D13*
X358134800Y-123392400D03*
D14*
X361684800Y-123392400D03*
X348234800Y-120852400D03*
D13*
X351784800Y-120852400D03*
%TD*%
D11*
%TO.C,SW23*%
X168281200Y-106883600D03*
D12*
X173361200Y-106883600D03*
D11*
X178441200Y-106883600D03*
D13*
X177171200Y-104343600D03*
D14*
X180721200Y-104343600D03*
X167271200Y-101803600D03*
D13*
X170821200Y-101803600D03*
%TD*%
D11*
%TO.C,SW55*%
X106372600Y-144981200D03*
D12*
X111452600Y-144981200D03*
D11*
X116532600Y-144981200D03*
D13*
X115262600Y-142441200D03*
D14*
X118812600Y-142441200D03*
X105362600Y-139901200D03*
D13*
X108912600Y-139901200D03*
%TD*%
D11*
%TO.C,SW10*%
X254000800Y-78310400D03*
D12*
X259080800Y-78310400D03*
D11*
X264160800Y-78310400D03*
D13*
X262890800Y-75770400D03*
D14*
X266440800Y-75770400D03*
X252990800Y-73230400D03*
D13*
X256540800Y-73230400D03*
%TD*%
D11*
%TO.C,SW14*%
X339720400Y-78310400D03*
D12*
X344800400Y-78310400D03*
D11*
X349880400Y-78310400D03*
D13*
X348610400Y-75770400D03*
D14*
X352160400Y-75770400D03*
X338710400Y-73230400D03*
D13*
X342260400Y-73230400D03*
%TD*%
D11*
%TO.C,SW77*%
X229396100Y-164030000D03*
D12*
X234476100Y-164030000D03*
D11*
X239556100Y-164030000D03*
D13*
X238286100Y-161490000D03*
D14*
X241836100Y-161490000D03*
X228386100Y-158950000D03*
D13*
X231936100Y-158950000D03*
%TD*%
D11*
%TO.C,SW32*%
X368293600Y-106883600D03*
D12*
X373373600Y-106883600D03*
D11*
X378453600Y-106883600D03*
D13*
X377183600Y-104343600D03*
D14*
X380733600Y-104343600D03*
X367283600Y-101803600D03*
D13*
X370833600Y-101803600D03*
%TD*%
D11*
%TO.C,SW86*%
X80180500Y-183078800D03*
D12*
X85260500Y-183078800D03*
D11*
X90340500Y-183078800D03*
D13*
X89070500Y-180538800D03*
D14*
X92620500Y-180538800D03*
X79170500Y-177998800D03*
D13*
X82720500Y-177998800D03*
%TD*%
D12*
%TO.C,S11*%
X130498250Y-191333800D03*
X230510750Y-191333800D03*
%TD*%
D11*
%TO.C,SW4*%
X120659200Y-78310400D03*
D12*
X125739200Y-78310400D03*
D11*
X130819200Y-78310400D03*
D13*
X129549200Y-75770400D03*
D14*
X133099200Y-75770400D03*
X119649200Y-73230400D03*
D13*
X123199200Y-73230400D03*
%TD*%
D15*
%TO.C,SW98*%
X413636600Y-70532600D03*
D16*
X408636600Y-70532600D03*
X411136600Y-70532600D03*
D17*
X416736600Y-78032600D03*
X405536600Y-78032600D03*
D16*
X408636600Y-85032600D03*
X413636600Y-85032600D03*
%TD*%
D11*
%TO.C,SW38*%
X120659200Y-125932400D03*
D12*
X125739200Y-125932400D03*
D11*
X130819200Y-125932400D03*
D13*
X129549200Y-123392400D03*
D14*
X133099200Y-123392400D03*
X119649200Y-120852400D03*
D13*
X123199200Y-120852400D03*
%TD*%
D11*
%TO.C,SW2*%
X82561600Y-78310400D03*
D12*
X87641600Y-78310400D03*
D11*
X92721600Y-78310400D03*
D13*
X91451600Y-75770400D03*
D14*
X95001600Y-75770400D03*
X81551600Y-73230400D03*
D13*
X85101600Y-73230400D03*
%TD*%
D11*
%TO.C,SW43*%
X215903200Y-125932400D03*
D12*
X220983200Y-125932400D03*
D11*
X226063200Y-125932400D03*
D13*
X224793200Y-123392400D03*
D14*
X228343200Y-123392400D03*
X214893200Y-120852400D03*
D13*
X218443200Y-120852400D03*
%TD*%
D11*
%TO.C,SW90*%
X263525200Y-183078800D03*
D12*
X268605200Y-183078800D03*
D11*
X273685200Y-183078800D03*
D13*
X272415200Y-180538800D03*
D14*
X275965200Y-180538800D03*
X262515200Y-177998800D03*
D13*
X266065200Y-177998800D03*
%TD*%
D11*
%TO.C,SW8*%
X206378800Y-78310400D03*
D12*
X211458800Y-78310400D03*
D11*
X216538800Y-78310400D03*
D13*
X215268800Y-75770400D03*
D14*
X218818800Y-75770400D03*
X205368800Y-73230400D03*
D13*
X208918800Y-73230400D03*
%TD*%
D11*
%TO.C,SW87*%
X103991500Y-183078800D03*
D12*
X109071500Y-183078800D03*
D11*
X114151500Y-183078800D03*
D13*
X112881500Y-180538800D03*
D14*
X116431500Y-180538800D03*
X102981500Y-177998800D03*
D13*
X106531500Y-177998800D03*
%TD*%
D11*
%TO.C,SW51*%
X387342400Y-125932400D03*
D12*
X392422400Y-125932400D03*
D11*
X397502400Y-125932400D03*
D13*
X396232400Y-123392400D03*
D14*
X399782400Y-123392400D03*
X386332400Y-120852400D03*
D13*
X389882400Y-120852400D03*
%TD*%
D11*
%TO.C,SW24*%
X187330000Y-106883600D03*
D12*
X192410000Y-106883600D03*
D11*
X197490000Y-106883600D03*
D13*
X196220000Y-104343600D03*
D14*
X199770000Y-104343600D03*
X186320000Y-101803600D03*
D13*
X189870000Y-101803600D03*
%TD*%
D11*
%TO.C,SW26*%
X225427600Y-106883600D03*
D12*
X230507600Y-106883600D03*
D11*
X235587600Y-106883600D03*
D13*
X234317600Y-104343600D03*
D14*
X237867600Y-104343600D03*
X224417600Y-101803600D03*
D13*
X227967600Y-101803600D03*
%TD*%
D11*
%TO.C,SW69*%
X65893900Y-164030000D03*
D12*
X70973900Y-164030000D03*
D11*
X76053900Y-164030000D03*
D13*
X74783900Y-161490000D03*
D14*
X78333900Y-161490000D03*
X64883900Y-158950000D03*
D13*
X68433900Y-158950000D03*
%TD*%
D11*
%TO.C,SW89*%
X244476400Y-183078800D03*
D12*
X249556400Y-183078800D03*
D11*
X254636400Y-183078800D03*
D13*
X253366400Y-180538800D03*
D14*
X256916400Y-180538800D03*
X243466400Y-177998800D03*
D13*
X247016400Y-177998800D03*
%TD*%
D11*
%TO.C,SW84*%
X411471200Y-178634400D03*
D12*
X411471200Y-173554400D03*
D11*
X411471200Y-168474400D03*
D13*
X408931200Y-169744400D03*
D18*
X408931200Y-166194400D03*
X406391200Y-179644400D03*
D13*
X406391200Y-176094400D03*
%TD*%
D11*
%TO.C,SW37*%
X101610400Y-125932400D03*
D12*
X106690400Y-125932400D03*
D11*
X111770400Y-125932400D03*
D13*
X110500400Y-123392400D03*
D14*
X114050400Y-123392400D03*
X100600400Y-120852400D03*
D13*
X104150400Y-120852400D03*
%TD*%
D11*
%TO.C,SW19*%
X92086000Y-106883600D03*
D12*
X97166000Y-106883600D03*
D11*
X102246000Y-106883600D03*
D13*
X100976000Y-104343600D03*
D14*
X104526000Y-104343600D03*
X91076000Y-101803600D03*
D13*
X94626000Y-101803600D03*
%TD*%
D11*
%TO.C,SW70*%
X96848200Y-164030000D03*
D12*
X101928200Y-164030000D03*
D11*
X107008200Y-164030000D03*
D13*
X105738200Y-161490000D03*
D14*
X109288200Y-161490000D03*
X95838200Y-158950000D03*
D13*
X99388200Y-158950000D03*
%TD*%
D11*
%TO.C,SW6*%
X168281200Y-78310400D03*
D12*
X173361200Y-78310400D03*
D11*
X178441200Y-78310400D03*
D13*
X177171200Y-75770400D03*
D14*
X180721200Y-75770400D03*
X167271200Y-73230400D03*
D13*
X170821200Y-73230400D03*
%TD*%
D11*
%TO.C,SW71*%
X115897000Y-164030000D03*
D12*
X120977000Y-164030000D03*
D11*
X126057000Y-164030000D03*
D13*
X124787000Y-161490000D03*
D14*
X128337000Y-161490000D03*
X114887000Y-158950000D03*
D13*
X118437000Y-158950000D03*
%TD*%
D11*
%TO.C,SW85*%
X56369500Y-183078800D03*
D12*
X61449500Y-183078800D03*
D11*
X66529500Y-183078800D03*
D13*
X65259500Y-180538800D03*
D14*
X68809500Y-180538800D03*
X55359500Y-177998800D03*
D13*
X58909500Y-177998800D03*
%TD*%
D11*
%TO.C,SW20*%
X111134800Y-106883600D03*
D12*
X116214800Y-106883600D03*
D11*
X121294800Y-106883600D03*
D13*
X120024800Y-104343600D03*
D14*
X123574800Y-104343600D03*
X110124800Y-101803600D03*
D13*
X113674800Y-101803600D03*
%TD*%
D11*
%TO.C,SW62*%
X239714200Y-144981200D03*
D12*
X244794200Y-144981200D03*
D11*
X249874200Y-144981200D03*
D13*
X248604200Y-142441200D03*
D14*
X252154200Y-142441200D03*
X238704200Y-139901200D03*
D13*
X242254200Y-139901200D03*
%TD*%
D11*
%TO.C,SW40*%
X158756800Y-125932400D03*
D12*
X163836800Y-125932400D03*
D11*
X168916800Y-125932400D03*
D13*
X167646800Y-123392400D03*
D14*
X171196800Y-123392400D03*
X157746800Y-120852400D03*
D13*
X161296800Y-120852400D03*
%TD*%
D11*
%TO.C,SW53*%
X61131700Y-144981200D03*
D12*
X66211700Y-144981200D03*
D11*
X71291700Y-144981200D03*
D13*
X70021700Y-142441200D03*
D14*
X73571700Y-142441200D03*
X60121700Y-139901200D03*
D13*
X63671700Y-139901200D03*
%TD*%
D11*
%TO.C,SW66*%
X349244800Y-144981200D03*
D12*
X354324800Y-144981200D03*
D11*
X359404800Y-144981200D03*
D13*
X358134800Y-142441200D03*
D14*
X361684800Y-142441200D03*
X348234800Y-139901200D03*
D13*
X351784800Y-139901200D03*
%TD*%
D11*
%TO.C,SW48*%
X315909400Y-125932400D03*
D12*
X320989400Y-125932400D03*
D11*
X326069400Y-125932400D03*
D13*
X324799400Y-123392400D03*
D14*
X328349400Y-123392400D03*
X314899400Y-120852400D03*
D13*
X318449400Y-120852400D03*
%TD*%
D11*
%TO.C,SW25*%
X206378800Y-106883600D03*
D12*
X211458800Y-106883600D03*
D11*
X216538800Y-106883600D03*
D13*
X215268800Y-104343600D03*
D14*
X218818800Y-104343600D03*
X205368800Y-101803600D03*
D13*
X208918800Y-101803600D03*
%TD*%
D11*
%TO.C,SW1*%
X53988400Y-78310400D03*
D12*
X59068400Y-78310400D03*
D11*
X64148400Y-78310400D03*
D13*
X62878400Y-75770400D03*
D14*
X66428400Y-75770400D03*
X52978400Y-73230400D03*
D13*
X56528400Y-73230400D03*
%TD*%
D12*
%TO.C,S3*%
X304320950Y-115138600D03*
X328133450Y-115138600D03*
%TD*%
D11*
%TO.C,SW16*%
X377818000Y-78310400D03*
D12*
X382898000Y-78310400D03*
D11*
X387978000Y-78310400D03*
D13*
X386708000Y-75770400D03*
D14*
X390258000Y-75770400D03*
X376808000Y-73230400D03*
D13*
X380358000Y-73230400D03*
%TD*%
D11*
%TO.C,SW5*%
X139708000Y-78310400D03*
D12*
X144788000Y-78310400D03*
D11*
X149868000Y-78310400D03*
D13*
X148598000Y-75770400D03*
D14*
X152148000Y-75770400D03*
X138698000Y-73230400D03*
D13*
X142248000Y-73230400D03*
%TD*%
D11*
%TO.C,SW91*%
X282574000Y-183078800D03*
D12*
X287654000Y-183078800D03*
D11*
X292734000Y-183078800D03*
D13*
X291464000Y-180538800D03*
D14*
X295014000Y-180538800D03*
X281564000Y-177998800D03*
D13*
X285114000Y-177998800D03*
%TD*%
D11*
%TO.C,SW33*%
X387342400Y-106883600D03*
D12*
X392422400Y-106883600D03*
D11*
X397502400Y-106883600D03*
D13*
X396232400Y-104343600D03*
D14*
X399782400Y-104343600D03*
X386332400Y-101803600D03*
D13*
X389882400Y-101803600D03*
%TD*%
D11*
%TO.C,SW28*%
X263525200Y-106883600D03*
D12*
X268605200Y-106883600D03*
D11*
X273685200Y-106883600D03*
D13*
X272415200Y-104343600D03*
D14*
X275965200Y-104343600D03*
X262515200Y-101803600D03*
D13*
X266065200Y-101803600D03*
%TD*%
D11*
%TO.C,SW65*%
X308766100Y-144981200D03*
D12*
X313846100Y-144981200D03*
D11*
X318926100Y-144981200D03*
D13*
X317656100Y-142441200D03*
D14*
X321206100Y-142441200D03*
X307756100Y-139901200D03*
D13*
X311306100Y-139901200D03*
%TD*%
D11*
%TO.C,SW21*%
X130183600Y-106883600D03*
D12*
X135263600Y-106883600D03*
D11*
X140343600Y-106883600D03*
D13*
X139073600Y-104343600D03*
D14*
X142623600Y-104343600D03*
X129173600Y-101803600D03*
D13*
X132723600Y-101803600D03*
%TD*%
D11*
%TO.C,SW58*%
X163519000Y-144981200D03*
D12*
X168599000Y-144981200D03*
D11*
X173679000Y-144981200D03*
D13*
X172409000Y-142441200D03*
D14*
X175959000Y-142441200D03*
X162509000Y-139901200D03*
D13*
X166059000Y-139901200D03*
%TD*%
D11*
%TO.C,SW97*%
X344482600Y-187841000D03*
D12*
X349562600Y-187841000D03*
D11*
X354642600Y-187841000D03*
D13*
X353372600Y-185301000D03*
D14*
X356922600Y-185301000D03*
X343472600Y-182761000D03*
D13*
X347022600Y-182761000D03*
%TD*%
D11*
%TO.C,SW93*%
X368293600Y-183078800D03*
D12*
X373373600Y-183078800D03*
D11*
X378453600Y-183078800D03*
D13*
X377183600Y-180538800D03*
D14*
X380733600Y-180538800D03*
X367283600Y-177998800D03*
D13*
X370833600Y-177998800D03*
%TD*%
D11*
%TO.C,SW92*%
X325433800Y-168792200D03*
D12*
X330513800Y-168792200D03*
D11*
X335593800Y-168792200D03*
D13*
X334323800Y-166252200D03*
D14*
X337873800Y-166252200D03*
X324423800Y-163712200D03*
D13*
X327973800Y-163712200D03*
%TD*%
D11*
%TO.C,SW80*%
X294479500Y-164030000D03*
D12*
X299559500Y-164030000D03*
D11*
X304639500Y-164030000D03*
D13*
X303369500Y-161490000D03*
D14*
X306919500Y-161490000D03*
X293469500Y-158950000D03*
D13*
X297019500Y-158950000D03*
%TD*%
D11*
%TO.C,SW60*%
X201616600Y-144981200D03*
D12*
X206696600Y-144981200D03*
D11*
X211776600Y-144981200D03*
D13*
X210506600Y-142441200D03*
D14*
X214056600Y-142441200D03*
X200606600Y-139901200D03*
D13*
X204156600Y-139901200D03*
%TD*%
D11*
%TO.C,SW63*%
X258763000Y-144981200D03*
D12*
X263843000Y-144981200D03*
D11*
X268923000Y-144981200D03*
D13*
X267653000Y-142441200D03*
D14*
X271203000Y-142441200D03*
X257753000Y-139901200D03*
D13*
X261303000Y-139901200D03*
%TD*%
D12*
%TO.C,S4*%
X419726200Y-147363050D03*
X419726200Y-123550550D03*
%TD*%
D11*
%TO.C,SW78*%
X248444900Y-164030000D03*
D12*
X253524900Y-164030000D03*
D11*
X258604900Y-164030000D03*
D13*
X257334900Y-161490000D03*
D14*
X260884900Y-161490000D03*
X247434900Y-158950000D03*
D13*
X250984900Y-158950000D03*
%TD*%
D11*
%TO.C,SW50*%
X368293600Y-125932400D03*
D12*
X373373600Y-125932400D03*
D11*
X378453600Y-125932400D03*
D13*
X377183600Y-123392400D03*
D14*
X380733600Y-123392400D03*
X367283600Y-120852400D03*
D13*
X370833600Y-120852400D03*
%TD*%
D11*
%TO.C,SW44*%
X234952000Y-125932400D03*
D12*
X240032000Y-125932400D03*
D11*
X245112000Y-125932400D03*
D13*
X243842000Y-123392400D03*
D14*
X247392000Y-123392400D03*
X233942000Y-120852400D03*
D13*
X237492000Y-120852400D03*
%TD*%
D11*
%TO.C,SW79*%
X267493700Y-164030000D03*
D12*
X272573700Y-164030000D03*
D11*
X277653700Y-164030000D03*
D13*
X276383700Y-161490000D03*
D14*
X279933700Y-161490000D03*
X266483700Y-158950000D03*
D13*
X270033700Y-158950000D03*
%TD*%
D11*
%TO.C,SW68*%
X387342400Y-144981200D03*
D12*
X392422400Y-144981200D03*
D11*
X397502400Y-144981200D03*
D13*
X396232400Y-142441200D03*
D14*
X399782400Y-142441200D03*
X386332400Y-139901200D03*
D13*
X389882400Y-139901200D03*
%TD*%
D11*
%TO.C,SW64*%
X277811800Y-144981200D03*
D12*
X282891800Y-144981200D03*
D11*
X287971800Y-144981200D03*
D13*
X286701800Y-142441200D03*
D14*
X290251800Y-142441200D03*
X276801800Y-139901200D03*
D13*
X280351800Y-139901200D03*
%TD*%
D11*
%TO.C,SW57*%
X144470200Y-144981200D03*
D12*
X149550200Y-144981200D03*
D11*
X154630200Y-144981200D03*
D13*
X153360200Y-142441200D03*
D14*
X156910200Y-142441200D03*
X143460200Y-139901200D03*
D13*
X147010200Y-139901200D03*
%TD*%
D11*
%TO.C,SW54*%
X87323800Y-144981200D03*
D12*
X92403800Y-144981200D03*
D11*
X97483800Y-144981200D03*
D13*
X96213800Y-142441200D03*
D14*
X99763800Y-142441200D03*
X86313800Y-139901200D03*
D13*
X89863800Y-139901200D03*
%TD*%
D12*
%TO.C,S2*%
X301939850Y-153236200D03*
X325752350Y-153236200D03*
%TD*%
D11*
%TO.C,SW36*%
X82561600Y-125932400D03*
D12*
X87641600Y-125932400D03*
D11*
X92721600Y-125932400D03*
D13*
X91451600Y-123392400D03*
D14*
X95001600Y-123392400D03*
X81551600Y-120852400D03*
D13*
X85101600Y-120852400D03*
%TD*%
D11*
%TO.C,SW83*%
X387342400Y-164030000D03*
D12*
X392422400Y-164030000D03*
D11*
X397502400Y-164030000D03*
D13*
X396232400Y-161490000D03*
D14*
X399782400Y-161490000D03*
X386332400Y-158950000D03*
D13*
X389882400Y-158950000D03*
%TD*%
D12*
%TO.C,S5*%
X419726200Y-185460650D03*
X419726200Y-161648150D03*
%TD*%
%TO.C,S1*%
X59067650Y-172285000D03*
X82880150Y-172285000D03*
%TD*%
D11*
%TO.C,SW94*%
X387342400Y-183078800D03*
D12*
X392422400Y-183078800D03*
D11*
X397502400Y-183078800D03*
D13*
X396232400Y-180538800D03*
D14*
X399782400Y-180538800D03*
X386332400Y-177998800D03*
D13*
X389882400Y-177998800D03*
%TD*%
D11*
%TO.C,SW96*%
X325433800Y-187841000D03*
D12*
X330513800Y-187841000D03*
D11*
X335593800Y-187841000D03*
D13*
X334323800Y-185301000D03*
D14*
X337873800Y-185301000D03*
X324423800Y-182761000D03*
D13*
X327973800Y-182761000D03*
%TD*%
D11*
%TO.C,SW17*%
X53988400Y-106883600D03*
D12*
X59068400Y-106883600D03*
D11*
X64148400Y-106883600D03*
D13*
X62878400Y-104343600D03*
D14*
X66428400Y-104343600D03*
X52978400Y-101803600D03*
D13*
X56528400Y-101803600D03*
%TD*%
D11*
%TO.C,SW67*%
X368293600Y-144981200D03*
D12*
X373373600Y-144981200D03*
D11*
X378453600Y-144981200D03*
D13*
X377183600Y-142441200D03*
D14*
X380733600Y-142441200D03*
X367283600Y-139901200D03*
D13*
X370833600Y-139901200D03*
%TD*%
D11*
%TO.C,SW72*%
X134945800Y-164030000D03*
D12*
X140025800Y-164030000D03*
D11*
X145105800Y-164030000D03*
D13*
X143835800Y-161490000D03*
D14*
X147385800Y-161490000D03*
X133935800Y-158950000D03*
D13*
X137485800Y-158950000D03*
%TD*%
D11*
%TO.C,SW12*%
X292098400Y-78310400D03*
D12*
X297178400Y-78310400D03*
D11*
X302258400Y-78310400D03*
D13*
X300988400Y-75770400D03*
D14*
X304538400Y-75770400D03*
X291088400Y-73230400D03*
D13*
X294638400Y-73230400D03*
%TD*%
D11*
%TO.C,SW11*%
X273049600Y-78310400D03*
D12*
X278129600Y-78310400D03*
D11*
X283209600Y-78310400D03*
D13*
X281939600Y-75770400D03*
D14*
X285489600Y-75770400D03*
X272039600Y-73230400D03*
D13*
X275589600Y-73230400D03*
%TD*%
D11*
%TO.C,SW9*%
X225427600Y-78310400D03*
D12*
X230507600Y-78310400D03*
D11*
X235587600Y-78310400D03*
D13*
X234317600Y-75770400D03*
D14*
X237867600Y-75770400D03*
X224417600Y-73230400D03*
D13*
X227967600Y-73230400D03*
%TD*%
D11*
%TO.C,SW81*%
X349244800Y-164030000D03*
D12*
X354324800Y-164030000D03*
D11*
X359404800Y-164030000D03*
D13*
X358134800Y-161490000D03*
D14*
X361684800Y-161490000D03*
X348234800Y-158950000D03*
D13*
X351784800Y-158950000D03*
%TD*%
D11*
%TO.C,SW42*%
X196854400Y-125932400D03*
D12*
X201934400Y-125932400D03*
D11*
X207014400Y-125932400D03*
D13*
X205744400Y-123392400D03*
D14*
X209294400Y-123392400D03*
X195844400Y-120852400D03*
D13*
X199394400Y-120852400D03*
%TD*%
D11*
%TO.C,SW3*%
X101610400Y-78310400D03*
D12*
X106690400Y-78310400D03*
D11*
X111770400Y-78310400D03*
D13*
X110500400Y-75770400D03*
D14*
X114050400Y-75770400D03*
X100600400Y-73230400D03*
D13*
X104150400Y-73230400D03*
%TD*%
D11*
%TO.C,SW61*%
X220665400Y-144981200D03*
D12*
X225745400Y-144981200D03*
D11*
X230825400Y-144981200D03*
D13*
X229555400Y-142441200D03*
D14*
X233105400Y-142441200D03*
X219655400Y-139901200D03*
D13*
X223205400Y-139901200D03*
%TD*%
D11*
%TO.C,SW7*%
X187330000Y-78310400D03*
D12*
X192410000Y-78310400D03*
D11*
X197490000Y-78310400D03*
D13*
X196220000Y-75770400D03*
D14*
X199770000Y-75770400D03*
X186320000Y-73230400D03*
D13*
X189870000Y-73230400D03*
%TD*%
D11*
%TO.C,SW22*%
X149232400Y-106883600D03*
D12*
X154312400Y-106883600D03*
D11*
X159392400Y-106883600D03*
D13*
X158122400Y-104343600D03*
D14*
X161672400Y-104343600D03*
X148222400Y-101803600D03*
D13*
X151772400Y-101803600D03*
%TD*%
D11*
%TO.C,SW45*%
X254000800Y-125932400D03*
D12*
X259080800Y-125932400D03*
D11*
X264160800Y-125932400D03*
D13*
X262890800Y-123392400D03*
D14*
X266440800Y-123392400D03*
X252990800Y-120852400D03*
D13*
X256540800Y-120852400D03*
%TD*%
D11*
%TO.C,SW95*%
X306385000Y-187841000D03*
D12*
X311465000Y-187841000D03*
D11*
X316545000Y-187841000D03*
D13*
X315275000Y-185301000D03*
D14*
X318825000Y-185301000D03*
X305375000Y-182761000D03*
D13*
X308925000Y-182761000D03*
%TD*%
D11*
%TO.C,SW82*%
X368293600Y-164030000D03*
D12*
X373373600Y-164030000D03*
D11*
X378453600Y-164030000D03*
D13*
X377183600Y-161490000D03*
D14*
X380733600Y-161490000D03*
X367283600Y-158950000D03*
D13*
X370833600Y-158950000D03*
%TD*%
D11*
%TO.C,SW52*%
X411471200Y-140536800D03*
D12*
X411471200Y-135456800D03*
D11*
X411471200Y-130376800D03*
D13*
X408931200Y-131646800D03*
D18*
X408931200Y-128096800D03*
X406391200Y-141546800D03*
D13*
X406391200Y-137996800D03*
%TD*%
D11*
%TO.C,SW59*%
X182567800Y-144981200D03*
D12*
X187647800Y-144981200D03*
D11*
X192727800Y-144981200D03*
D13*
X191457800Y-142441200D03*
D14*
X195007800Y-142441200D03*
X181557800Y-139901200D03*
D13*
X185107800Y-139901200D03*
%TD*%
D11*
%TO.C,SW41*%
X177805600Y-125932400D03*
D12*
X182885600Y-125932400D03*
D11*
X187965600Y-125932400D03*
D13*
X186695600Y-123392400D03*
D14*
X190245600Y-123392400D03*
X176795600Y-120852400D03*
D13*
X180345600Y-120852400D03*
%TD*%
D11*
%TO.C,SW35*%
X58750600Y-125932400D03*
D12*
X63830600Y-125932400D03*
D11*
X68910600Y-125932400D03*
D13*
X67640600Y-123392400D03*
D14*
X71190600Y-123392400D03*
X57740600Y-120852400D03*
D13*
X61290600Y-120852400D03*
%TD*%
D11*
%TO.C,SW73*%
X153994600Y-164030000D03*
D12*
X159074600Y-164030000D03*
D11*
X164154600Y-164030000D03*
D13*
X162884600Y-161490000D03*
D14*
X166434600Y-161490000D03*
X152984600Y-158950000D03*
D13*
X156534600Y-158950000D03*
%TD*%
D11*
%TO.C,SW76*%
X211141000Y-164030000D03*
D12*
X216221000Y-164030000D03*
D11*
X221301000Y-164030000D03*
D13*
X220031000Y-161490000D03*
D14*
X223581000Y-161490000D03*
X210131000Y-158950000D03*
D13*
X213681000Y-158950000D03*
%TD*%
D11*
%TO.C,SW18*%
X73037200Y-106883600D03*
D12*
X78117200Y-106883600D03*
D11*
X83197200Y-106883600D03*
D13*
X81927200Y-104343600D03*
D14*
X85477200Y-104343600D03*
X72027200Y-101803600D03*
D13*
X75577200Y-101803600D03*
%TD*%
D11*
%TO.C,SW39*%
X139708000Y-125932400D03*
D12*
X144788000Y-125932400D03*
D11*
X149868000Y-125932400D03*
D13*
X148598000Y-123392400D03*
D14*
X152148000Y-123392400D03*
X138698000Y-120852400D03*
D13*
X142248000Y-120852400D03*
%TD*%
D11*
%TO.C,SW88*%
X175424500Y-183078800D03*
D12*
X180504500Y-183078800D03*
D11*
X185584500Y-183078800D03*
D13*
X184314500Y-180538800D03*
D14*
X187864500Y-180538800D03*
X174414500Y-177998800D03*
D13*
X177964500Y-177998800D03*
%TD*%
D11*
%TO.C,SW75*%
X192092200Y-164030000D03*
D12*
X197172200Y-164030000D03*
D11*
X202252200Y-164030000D03*
D13*
X200982200Y-161490000D03*
D14*
X204532200Y-161490000D03*
X191082200Y-158950000D03*
D13*
X194632200Y-158950000D03*
%TD*%
D11*
%TO.C,SW56*%
X125421400Y-144981200D03*
D12*
X130501400Y-144981200D03*
D11*
X135581400Y-144981200D03*
D13*
X134311400Y-142441200D03*
D14*
X137861400Y-142441200D03*
X124411400Y-139901200D03*
D13*
X127961400Y-139901200D03*
%TD*%
D11*
%TO.C,SW13*%
X311147200Y-78310400D03*
D12*
X316227200Y-78310400D03*
D11*
X321307200Y-78310400D03*
D13*
X320037200Y-75770400D03*
D14*
X323587200Y-75770400D03*
X310137200Y-73230400D03*
D13*
X313687200Y-73230400D03*
%TD*%
D11*
%TO.C,SW31*%
X349244800Y-106883600D03*
D12*
X354324800Y-106883600D03*
D11*
X359404800Y-106883600D03*
D13*
X358134800Y-104343600D03*
D14*
X361684800Y-104343600D03*
X348234800Y-101803600D03*
D13*
X351784800Y-101803600D03*
%TD*%
D11*
%TO.C,SW15*%
X358769200Y-78310400D03*
D12*
X363849200Y-78310400D03*
D11*
X368929200Y-78310400D03*
D13*
X367659200Y-75770400D03*
D14*
X371209200Y-75770400D03*
X357759200Y-73230400D03*
D13*
X361309200Y-73230400D03*
%TD*%
D19*
%TO.C,A1*%
X429232400Y-63171400D03*
D20*
X429232400Y-65711400D03*
D21*
X429232400Y-68251400D03*
D20*
X429232400Y-70791400D03*
X429232400Y-73331400D03*
X429232400Y-75871400D03*
X429232400Y-78411400D03*
D21*
X429232400Y-80951400D03*
D20*
X429232400Y-83491400D03*
X429232400Y-86031400D03*
X429232400Y-88571400D03*
X429232400Y-91111400D03*
D21*
X429232400Y-93651400D03*
D20*
X429232400Y-96191400D03*
X429232400Y-98731400D03*
X429232400Y-101271400D03*
X429232400Y-103811400D03*
D21*
X429232400Y-106351400D03*
D20*
X429232400Y-108891400D03*
X429232400Y-111431400D03*
X447012400Y-111431400D03*
X447012400Y-108891400D03*
D22*
X447012400Y-106351400D03*
D20*
X447012400Y-103811400D03*
X447012400Y-101271400D03*
X447012400Y-98731400D03*
X447012400Y-96191400D03*
D22*
X447012400Y-93651400D03*
D20*
X447012400Y-91111400D03*
X447012400Y-88571400D03*
X447012400Y-86031400D03*
X447012400Y-83491400D03*
D22*
X447012400Y-80951400D03*
D20*
X447012400Y-78411400D03*
X447012400Y-75871400D03*
X447012400Y-73331400D03*
X447012400Y-70791400D03*
D22*
X447012400Y-68251400D03*
D20*
X447012400Y-65711400D03*
X447012400Y-63171400D03*
%TD*%
D11*
%TO.C,SW47*%
X292098400Y-125932400D03*
D12*
X297178400Y-125932400D03*
D11*
X302258400Y-125932400D03*
D13*
X300988400Y-123392400D03*
D14*
X304538400Y-123392400D03*
X291088400Y-120852400D03*
D13*
X294638400Y-120852400D03*
%TD*%
D11*
%TO.C,SW74*%
X173043400Y-164030000D03*
D12*
X178123400Y-164030000D03*
D11*
X183203400Y-164030000D03*
D13*
X181933400Y-161490000D03*
D14*
X185483400Y-161490000D03*
X172033400Y-158950000D03*
D13*
X175583400Y-158950000D03*
%TD*%
M02*
