M48
; DRILL file KiCad 10.0.6 date 2026-09-28T08:15:06
; FORMAT={-:-/ absolute / metric / decimal}
; #@! TF.CreationDate,2026-09-28T08:15:06-07:00
; #@! TF.GenerationSoftware,Kicad,Pcbnew,10.0.6
; #@! TF.FileFunction,Plated,1,2,PTH
FMAT,2
METRIC
; #@! TA.AperFunction,Plated,PTH,ViaDrill
T1C0.300
; #@! TA.AperFunction,Plated,PTH,ComponentDrill
T2C1.000
; #@! TA.AperFunction,Plated,PTH,ComponentDrill
T3C1.500
; #@! TA.AperFunction,Plated,PTH,ComponentDrill
T4C3.000
; #@! TA.AperFunction,Plated,PTH,ComponentDrill
T5C3.048
%
G90
G05
T1
X55.559Y-197.631
X71.433Y-99.212
X73.02Y-192.075
X76.989Y-87.307
X80.164Y-115.087
X80.164Y-119.055
X80.957Y-165.883
X84.926Y-134.929
X84.926Y-138.897
X86.513Y-153.184
X88.101Y-165.883
X91.275Y-115.087
X92.863Y-96.038
X93.657Y-157.946
X96.831Y-192.075
X99.212Y-176.995
X100.006Y-119.055
X100.8Y-87.307
X102.387Y-134.135
X102.387Y-138.104
X105.562Y-173.027
X109.531Y-153.184
X109.531Y-165.883
X110.324Y-157.153
X111.118Y-96.831
X111.118Y-115.087
X111.912Y-168.264
X116.674Y-118.261
X119.849Y-86.513
X119.849Y-134.135
X121.436Y-138.104
X124.611Y-153.184
X129.373Y-115.087
X130.167Y-96.831
X130.167Y-157.153
X133.342Y-172.233
X135.723Y-118.261
X135.723Y-175.408
X135.723Y-192.075
X139.691Y-86.513
X141.279Y-138.104
X142.072Y-134.929
X148.422Y-115.087
X149.216Y-153.978
X150.803Y-192.075
X151.597Y-156.359
X152.39Y-171.439
X153.184Y-96.038
X154.772Y-175.408
X156.359Y-119.055
X158.74Y-134.135
X161.121Y-137.31
X163.502Y-153.184
X168.264Y-86.513
X168.264Y-115.087
X170.645Y-155.645
X172.233Y-191.282
X173.027Y-172.233
X173.82Y-175.408
X173.82Y-194.278
X173.82Y-198.425
X174.614Y-95.244
X174.614Y-118.261
X177.789Y-134.135
X180.17Y-137.31
X182.551Y-153.184
X187.313Y-86.513
X187.313Y-115.087
X188.901Y-156.359
X190.488Y-172.233
X190.488Y-179.376
X190.488Y-191.282
X193.663Y-95.244
X193.663Y-195.625
X194.456Y-118.261
X196.044Y-133.342
X197.631Y-199.219
X199.219Y-137.31
X201.6Y-153.184
X206.362Y-86.513
X207.156Y-115.087
X207.949Y-157.153
X211.124Y-171.439
X211.124Y-186.519
X211.124Y-190.488
X211.918Y-117.547
X212.712Y-94.45
X212.712Y-194.456
X215.886Y-134.135
X215.886Y-200.012
X218.267Y-138.104
X220.649Y-153.184
X224.617Y-85.72
X225.411Y-156.359
X226.204Y-115.087
X229.379Y-172.233
X232.554Y-118.261
X234.141Y-94.45
X234.935Y-134.135
X237.316Y-138.104
X238.904Y-176.201
X240.491Y-153.184
X242.078Y-188.901
X244.46Y-115.087
X245.253Y-155.645
X249.222Y-172.233
X250.015Y-194.456
X250.809Y-118.261
X253.19Y-134.135
X253.984Y-86.513
X256.365Y-137.31
X257.952Y-95.244
X257.952Y-153.184
X258.746Y-176.201
X261.127Y-191.282
X262.69Y-194.426
X262.715Y-195.25
X262.715Y-200.012
X263.508Y-156.359
X263.508Y-199.219
X264.302Y-196.044
X265.096Y-115.087
X265.096Y-196.838
X265.096Y-198.425
X265.123Y-194.429
X265.889Y-197.631
X265.917Y-195.223
X267.477Y-172.233
X267.477Y-196.044
X269.064Y-197.631
X269.092Y-195.223
X269.858Y-119.055
X269.885Y-196.016
X270.679Y-196.81
X271.445Y-196.223
X273.033Y-86.513
X273.033Y-134.135
X276.208Y-96.038
X276.208Y-137.31
X277.795Y-153.184
X279.382Y-176.201
X280.176Y-187.313
X282.557Y-115.087
X282.557Y-193.742
X288.907Y-119.055
X288.907Y-157.153
X292.082Y-86.513
X292.875Y-134.135
X293.669Y-96.038
X295.256Y-141.279
X311.13Y-115.087
X311.13Y-153.184
X311.924Y-86.513
X311.924Y-119.055
X311.924Y-176.995
X315.099Y-134.135
X318.274Y-178.582
X321.448Y-156.359
X322.242Y-176.995
X338.91Y-86.513
X344.466Y-94.45
X346.053Y-119.849
X346.053Y-156.359
X346.847Y-138.897
X347.641Y-113.499
X347.641Y-174.614
X348.434Y-134.135
X348.434Y-179.376
X350.022Y-152.39
X357.959Y-85.72
X362.721Y-94.45
X367.483Y-114.293
X367.483Y-119.055
X368.277Y-134.135
X368.277Y-138.104
X368.277Y-153.978
X368.277Y-156.359
X368.277Y-173.027
X368.277Y-175.408
X377.007Y-85.72
X381.77Y-93.657
X384.945Y-138.104
X386.532Y-115.087
X386.532Y-118.261
X386.532Y-134.929
X386.532Y-153.184
X386.532Y-156.359
X386.532Y-172.233
X386.532Y-175.408
X392.881Y-67.465
X393.675Y-68.258
X394.469Y-69.052
X396.056Y-69.846
X400.025Y-72.227
X400.025Y-150.009
X401.612Y-126.198
X402.406Y-153.978
X403.2Y-133.342
X403.2Y-141.279
X403.993Y-150.803
X404.787Y-86.513
X405.553Y-127.758
X407.962Y-61.115
X407.962Y-185.726
X408.755Y-62.702
X408.755Y-115.087
X408.755Y-123.023
X408.755Y-150.009
X409.549Y-60.321
X410.343Y-61.115
X411.137Y-63.496
X411.137Y-118.261
X411.137Y-125.405
X414.311Y-64.29
X414.311Y-184.932
X416.692Y-84.926
X418.28Y-86.513
X418.28Y-88.101
X419.867Y-88.894
X419.867Y-103.181
X420.661Y-154.772
X421.455Y-65.083
X421.455Y-73.02
X422.248Y-118.261
X423.042Y-65.083
X423.042Y-70.639
X423.042Y-150.009
X423.07Y-68.286
X423.836Y-61.115
X424.46Y-119.624
X424.63Y-67.465
X424.63Y-88.894
X424.63Y-121.436
X424.836Y-118.858
X425.267Y-118.184
X425.423Y-62.702
X425.423Y-63.502
X425.423Y-85.72
X426.217Y-83.338
X427.011Y-64.29
X427.011Y-79.37
X428.598Y-61.115
X433.36Y-118.261
X434.148Y-117.468
X434.948Y-117.468
X438.916Y-59.534
X438.916Y-195.25
X442.091Y-72.227
X442.885Y-70.639
X449.234Y-59.534
X449.234Y-82.545
X450.234Y-61.115
X450.834Y-80.957
T2
X408.637Y-70.533
X408.637Y-85.033
X411.137Y-70.533
X413.637Y-70.533
X413.637Y-85.033
X429.232Y-63.171
X429.232Y-65.711
X429.232Y-68.251
X429.232Y-70.791
X429.232Y-73.331
X429.232Y-75.871
X429.232Y-78.411
X429.232Y-80.951
X429.232Y-83.491
X429.232Y-86.031
X429.232Y-88.571
X429.232Y-91.111
X429.232Y-93.651
X429.232Y-96.191
X429.232Y-98.731
X429.232Y-101.271
X429.232Y-103.811
X429.232Y-106.351
X429.232Y-108.891
X429.232Y-111.431
X447.012Y-63.171
X447.012Y-65.711
X447.012Y-68.251
X447.012Y-70.791
X447.012Y-73.331
X447.012Y-75.871
X447.012Y-78.411
X447.012Y-80.951
X447.012Y-83.491
X447.012Y-86.031
X447.012Y-88.571
X447.012Y-91.111
X447.012Y-93.651
X447.012Y-96.191
X447.012Y-98.731
X447.012Y-101.271
X447.012Y-103.811
X447.012Y-106.351
X447.012Y-108.891
X447.012Y-111.431
T4
X55.258Y-75.77
X55.258Y-104.344
X57.639Y-180.539
X60.021Y-123.392
X61.608Y-73.23
X61.608Y-101.804
X62.402Y-142.441
X63.989Y-177.999
X66.371Y-120.852
X67.164Y-161.49
X68.752Y-139.901
X73.514Y-158.95
X74.307Y-104.344
X80.657Y-101.804
X81.45Y-180.539
X83.832Y-75.77
X83.832Y-123.392
X87.8Y-177.999
X88.594Y-142.441
X90.182Y-73.23
X90.182Y-120.852
X93.356Y-104.344
X94.944Y-139.901
X98.118Y-161.49
X99.706Y-101.804
X102.88Y-75.77
X102.88Y-123.392
X104.468Y-158.95
X105.261Y-180.539
X107.643Y-142.441
X109.23Y-73.23
X109.23Y-120.852
X111.611Y-177.999
X112.405Y-104.344
X113.993Y-139.901
X117.167Y-161.49
X118.755Y-101.804
X121.929Y-75.77
X121.929Y-123.392
X123.517Y-158.95
X126.691Y-142.441
X128.279Y-73.23
X128.279Y-120.852
X131.454Y-104.344
X133.041Y-139.901
X136.216Y-161.49
X137.804Y-101.804
X140.978Y-75.77
X140.978Y-123.392
X142.566Y-158.95
X145.74Y-142.441
X147.328Y-73.23
X147.328Y-120.852
X150.502Y-104.344
X152.09Y-139.901
X155.265Y-161.49
X156.852Y-101.804
X160.027Y-123.392
X161.615Y-158.95
X164.789Y-142.441
X166.377Y-120.852
X169.551Y-75.77
X169.551Y-104.344
X171.139Y-139.901
X174.313Y-161.49
X175.901Y-73.23
X175.901Y-101.804
X176.695Y-180.539
X179.076Y-123.392
X180.663Y-158.95
X183.044Y-177.999
X183.838Y-142.441
X185.426Y-120.852
X188.6Y-75.77
X188.6Y-104.344
X190.188Y-139.901
X193.362Y-161.49
X194.95Y-73.23
X194.95Y-101.804
X198.124Y-123.392
X199.712Y-158.95
X202.887Y-142.441
X204.474Y-120.852
X207.649Y-75.77
X207.649Y-104.344
X209.237Y-139.901
X212.411Y-161.49
X213.999Y-73.23
X213.999Y-101.804
X217.173Y-123.392
X218.761Y-158.95
X221.935Y-142.441
X223.523Y-120.852
X226.698Y-75.77
X226.698Y-104.344
X228.285Y-139.901
X230.666Y-161.49
X233.048Y-73.23
X233.048Y-101.804
X236.222Y-123.392
X237.016Y-158.95
X240.984Y-142.441
X242.572Y-120.852
X245.746Y-104.344
X245.746Y-180.539
X247.334Y-139.901
X249.715Y-161.49
X252.096Y-101.804
X252.096Y-177.999
X255.271Y-75.77
X255.271Y-123.392
X256.065Y-158.95
X260.033Y-142.441
X261.621Y-73.23
X261.621Y-120.852
X264.795Y-104.344
X264.795Y-180.539
X266.383Y-139.901
X268.764Y-161.49
X271.145Y-101.804
X271.145Y-177.999
X274.32Y-75.77
X274.32Y-123.392
X275.114Y-158.95
X279.082Y-142.441
X280.67Y-73.23
X280.67Y-120.852
X283.844Y-104.344
X283.844Y-180.539
X285.432Y-139.901
X290.194Y-101.804
X290.194Y-177.999
X293.368Y-75.77
X293.368Y-123.392
X295.75Y-161.49
X299.718Y-73.23
X299.718Y-120.852
X302.099Y-158.95
X307.655Y-185.301
X310.036Y-142.441
X312.417Y-75.77
X312.417Y-104.344
X314.005Y-182.761
X316.386Y-139.901
X317.179Y-123.392
X318.767Y-73.23
X318.767Y-101.804
X323.529Y-120.852
X326.704Y-166.252
X326.704Y-185.301
X333.054Y-163.712
X333.054Y-182.761
X340.99Y-75.77
X345.753Y-185.301
X347.34Y-73.23
X350.515Y-104.344
X350.515Y-123.392
X350.515Y-142.441
X350.515Y-161.49
X352.103Y-182.761
X356.865Y-101.804
X356.865Y-120.852
X356.865Y-139.901
X356.865Y-158.95
X360.039Y-75.77
X366.389Y-73.23
X369.564Y-104.344
X369.564Y-123.392
X369.564Y-142.441
X369.564Y-161.49
X369.564Y-180.539
X375.914Y-101.804
X375.914Y-120.852
X375.914Y-139.901
X375.914Y-158.95
X375.914Y-177.999
X379.088Y-75.77
X385.438Y-73.23
X388.612Y-104.344
X388.612Y-123.392
X388.612Y-142.441
X388.612Y-161.49
X388.612Y-180.539
X394.962Y-101.804
X394.962Y-120.852
X394.962Y-139.901
X394.962Y-158.95
X394.962Y-177.999
X407.661Y-104.344
X414.011Y-101.804
X414.011Y-131.647
X414.011Y-169.744
X416.551Y-137.997
X416.551Y-176.094
T5
X59.068Y-157.045
X82.88Y-157.045
X130.498Y-176.094
X230.511Y-176.094
X301.94Y-137.996
X304.321Y-99.899
X325.752Y-137.996
X328.133Y-99.899
X404.486Y-123.551
X404.486Y-147.363
X404.486Y-161.648
X404.486Y-185.461
T3
G00X405.537Y-77.383
M15
G01X405.537Y-78.683
M16
G05
G00X416.737Y-77.383
M15
G01X416.737Y-78.683
M16
G05
M30
