%TF.GenerationSoftware,KiCad,Pcbnew,10.0.6*%
%TF.CreationDate,2026-09-27T17:12:08-07:00*%
%TF.ProjectId,vBoard,76426f61-7264-42e6-9b69-6361645f7063,rev?*%
%TF.SameCoordinates,Original*%
%TF.FileFunction,Paste,Top*%
%TF.FilePolarity,Positive*%
%FSLAX46Y46*%
G04 Gerber Fmt 4.6, Leading zero omitted, Abs format (unit mm)*
G04 Created by KiCad (PCBNEW 10.0.6) date 2026-09-27 17:12:08*
%MOMM*%
%LPD*%
G01*
G04 APERTURE LIST*
G04 Aperture macros list*
%AMRoundRect*
0 Rectangle with rounded corners*
0 $1 Rounding radius*
0 $2 $3 $4 $5 $6 $7 $8 $9 X,Y pos of 4 corners*
0 Add a 4 corners polygon primitive as box body*
4,1,4,$2,$3,$4,$5,$6,$7,$8,$9,$2,$3,0*
0 Add four circle primitives for the rounded corners*
1,1,$1+$1,$2,$3*
1,1,$1+$1,$4,$5*
1,1,$1+$1,$6,$7*
1,1,$1+$1,$8,$9*
0 Add four rect primitives between the rounded corners*
20,1,$1+$1,$2,$3,$4,$5,0*
20,1,$1+$1,$4,$5,$6,$7,0*
20,1,$1+$1,$6,$7,$8,$9,0*
20,1,$1+$1,$8,$9,$2,$3,0*%
G04 Aperture macros list end*
%ADD10RoundRect,0.250000X-1.025000X-1.000000X1.025000X-1.000000X1.025000X1.000000X-1.025000X1.000000X0*%
%ADD11RoundRect,0.250000X1.000000X-1.025000X1.000000X1.025000X-1.000000X1.025000X-1.000000X-1.025000X0*%
G04 APERTURE END LIST*
D10*
%TO.C,SW46*%
X285489600Y-123392400D03*
X272039600Y-120852400D03*
%TD*%
%TO.C,SW30*%
X323587200Y-104343600D03*
X310137200Y-101803600D03*
%TD*%
%TO.C,SW34*%
X418831200Y-104343600D03*
X405381200Y-101803600D03*
%TD*%
%TO.C,SW29*%
X295014000Y-104343600D03*
X281564000Y-101803600D03*
%TD*%
%TO.C,SW27*%
X256916400Y-104343600D03*
X243466400Y-101803600D03*
%TD*%
%TO.C,SW49*%
X361684800Y-123392400D03*
X348234800Y-120852400D03*
%TD*%
%TO.C,SW23*%
X180721200Y-104343600D03*
X167271200Y-101803600D03*
%TD*%
%TO.C,SW55*%
X118812600Y-142441200D03*
X105362600Y-139901200D03*
%TD*%
%TO.C,SW10*%
X266440800Y-75770400D03*
X252990800Y-73230400D03*
%TD*%
%TO.C,SW14*%
X352160400Y-75770400D03*
X338710400Y-73230400D03*
%TD*%
%TO.C,SW77*%
X241836100Y-161490000D03*
X228386100Y-158950000D03*
%TD*%
%TO.C,SW32*%
X380733600Y-104343600D03*
X367283600Y-101803600D03*
%TD*%
%TO.C,SW86*%
X92620500Y-180538800D03*
X79170500Y-177998800D03*
%TD*%
%TO.C,SW4*%
X133099200Y-75770400D03*
X119649200Y-73230400D03*
%TD*%
%TO.C,SW38*%
X133099200Y-123392400D03*
X119649200Y-120852400D03*
%TD*%
%TO.C,SW2*%
X95001600Y-75770400D03*
X81551600Y-73230400D03*
%TD*%
%TO.C,SW43*%
X228343200Y-123392400D03*
X214893200Y-120852400D03*
%TD*%
%TO.C,SW90*%
X275965200Y-180538800D03*
X262515200Y-177998800D03*
%TD*%
%TO.C,SW8*%
X218818800Y-75770400D03*
X205368800Y-73230400D03*
%TD*%
%TO.C,SW87*%
X116431500Y-180538800D03*
X102981500Y-177998800D03*
%TD*%
%TO.C,SW51*%
X399782400Y-123392400D03*
X386332400Y-120852400D03*
%TD*%
%TO.C,SW24*%
X199770000Y-104343600D03*
X186320000Y-101803600D03*
%TD*%
%TO.C,SW26*%
X237867600Y-104343600D03*
X224417600Y-101803600D03*
%TD*%
%TO.C,SW69*%
X78333900Y-161490000D03*
X64883900Y-158950000D03*
%TD*%
%TO.C,SW89*%
X256916400Y-180538800D03*
X243466400Y-177998800D03*
%TD*%
D11*
%TO.C,SW84*%
X408931200Y-166194400D03*
X406391200Y-179644400D03*
%TD*%
D10*
%TO.C,SW37*%
X114050400Y-123392400D03*
X100600400Y-120852400D03*
%TD*%
%TO.C,SW19*%
X104526000Y-104343600D03*
X91076000Y-101803600D03*
%TD*%
%TO.C,SW70*%
X109288200Y-161490000D03*
X95838200Y-158950000D03*
%TD*%
%TO.C,SW6*%
X180721200Y-75770400D03*
X167271200Y-73230400D03*
%TD*%
%TO.C,SW71*%
X128337000Y-161490000D03*
X114887000Y-158950000D03*
%TD*%
%TO.C,SW85*%
X68809500Y-180538800D03*
X55359500Y-177998800D03*
%TD*%
%TO.C,SW20*%
X123574800Y-104343600D03*
X110124800Y-101803600D03*
%TD*%
%TO.C,SW62*%
X252154200Y-142441200D03*
X238704200Y-139901200D03*
%TD*%
%TO.C,SW40*%
X171196800Y-123392400D03*
X157746800Y-120852400D03*
%TD*%
%TO.C,SW53*%
X73571700Y-142441200D03*
X60121700Y-139901200D03*
%TD*%
%TO.C,SW66*%
X361684800Y-142441200D03*
X348234800Y-139901200D03*
%TD*%
%TO.C,SW48*%
X328349400Y-123392400D03*
X314899400Y-120852400D03*
%TD*%
%TO.C,SW25*%
X218818800Y-104343600D03*
X205368800Y-101803600D03*
%TD*%
%TO.C,SW1*%
X66428400Y-75770400D03*
X52978400Y-73230400D03*
%TD*%
%TO.C,SW16*%
X390258000Y-75770400D03*
X376808000Y-73230400D03*
%TD*%
%TO.C,SW5*%
X152148000Y-75770400D03*
X138698000Y-73230400D03*
%TD*%
%TO.C,SW91*%
X295014000Y-180538800D03*
X281564000Y-177998800D03*
%TD*%
%TO.C,SW33*%
X399782400Y-104343600D03*
X386332400Y-101803600D03*
%TD*%
%TO.C,SW28*%
X275965200Y-104343600D03*
X262515200Y-101803600D03*
%TD*%
%TO.C,SW65*%
X321206100Y-142441200D03*
X307756100Y-139901200D03*
%TD*%
%TO.C,SW21*%
X142623600Y-104343600D03*
X129173600Y-101803600D03*
%TD*%
%TO.C,SW58*%
X175959000Y-142441200D03*
X162509000Y-139901200D03*
%TD*%
%TO.C,SW97*%
X356922600Y-185301000D03*
X343472600Y-182761000D03*
%TD*%
%TO.C,SW93*%
X380733600Y-180538800D03*
X367283600Y-177998800D03*
%TD*%
%TO.C,SW92*%
X337873800Y-166252200D03*
X324423800Y-163712200D03*
%TD*%
%TO.C,SW80*%
X306919500Y-161490000D03*
X293469500Y-158950000D03*
%TD*%
%TO.C,SW60*%
X214056600Y-142441200D03*
X200606600Y-139901200D03*
%TD*%
%TO.C,SW63*%
X271203000Y-142441200D03*
X257753000Y-139901200D03*
%TD*%
%TO.C,SW78*%
X260884900Y-161490000D03*
X247434900Y-158950000D03*
%TD*%
%TO.C,SW50*%
X380733600Y-123392400D03*
X367283600Y-120852400D03*
%TD*%
%TO.C,SW44*%
X247392000Y-123392400D03*
X233942000Y-120852400D03*
%TD*%
%TO.C,SW79*%
X279933700Y-161490000D03*
X266483700Y-158950000D03*
%TD*%
%TO.C,SW68*%
X399782400Y-142441200D03*
X386332400Y-139901200D03*
%TD*%
%TO.C,SW64*%
X290251800Y-142441200D03*
X276801800Y-139901200D03*
%TD*%
%TO.C,SW57*%
X156910200Y-142441200D03*
X143460200Y-139901200D03*
%TD*%
%TO.C,SW54*%
X99763800Y-142441200D03*
X86313800Y-139901200D03*
%TD*%
%TO.C,SW36*%
X95001600Y-123392400D03*
X81551600Y-120852400D03*
%TD*%
%TO.C,SW83*%
X399782400Y-161490000D03*
X386332400Y-158950000D03*
%TD*%
%TO.C,SW94*%
X399782400Y-180538800D03*
X386332400Y-177998800D03*
%TD*%
%TO.C,SW96*%
X337873800Y-185301000D03*
X324423800Y-182761000D03*
%TD*%
%TO.C,SW17*%
X66428400Y-104343600D03*
X52978400Y-101803600D03*
%TD*%
%TO.C,SW67*%
X380733600Y-142441200D03*
X367283600Y-139901200D03*
%TD*%
%TO.C,SW72*%
X147385800Y-161490000D03*
X133935800Y-158950000D03*
%TD*%
%TO.C,SW12*%
X304538400Y-75770400D03*
X291088400Y-73230400D03*
%TD*%
%TO.C,SW11*%
X285489600Y-75770400D03*
X272039600Y-73230400D03*
%TD*%
%TO.C,SW9*%
X237867600Y-75770400D03*
X224417600Y-73230400D03*
%TD*%
%TO.C,SW81*%
X361684800Y-161490000D03*
X348234800Y-158950000D03*
%TD*%
%TO.C,SW42*%
X209294400Y-123392400D03*
X195844400Y-120852400D03*
%TD*%
%TO.C,SW3*%
X114050400Y-75770400D03*
X100600400Y-73230400D03*
%TD*%
%TO.C,SW61*%
X233105400Y-142441200D03*
X219655400Y-139901200D03*
%TD*%
%TO.C,SW7*%
X199770000Y-75770400D03*
X186320000Y-73230400D03*
%TD*%
%TO.C,SW22*%
X161672400Y-104343600D03*
X148222400Y-101803600D03*
%TD*%
%TO.C,SW45*%
X266440800Y-123392400D03*
X252990800Y-120852400D03*
%TD*%
%TO.C,SW95*%
X318825000Y-185301000D03*
X305375000Y-182761000D03*
%TD*%
%TO.C,SW82*%
X380733600Y-161490000D03*
X367283600Y-158950000D03*
%TD*%
D11*
%TO.C,SW52*%
X408931200Y-128096800D03*
X406391200Y-141546800D03*
%TD*%
D10*
%TO.C,SW59*%
X195007800Y-142441200D03*
X181557800Y-139901200D03*
%TD*%
%TO.C,SW41*%
X190245600Y-123392400D03*
X176795600Y-120852400D03*
%TD*%
%TO.C,SW35*%
X71190600Y-123392400D03*
X57740600Y-120852400D03*
%TD*%
%TO.C,SW73*%
X166434600Y-161490000D03*
X152984600Y-158950000D03*
%TD*%
%TO.C,SW76*%
X223581000Y-161490000D03*
X210131000Y-158950000D03*
%TD*%
%TO.C,SW18*%
X85477200Y-104343600D03*
X72027200Y-101803600D03*
%TD*%
%TO.C,SW39*%
X152148000Y-123392400D03*
X138698000Y-120852400D03*
%TD*%
%TO.C,SW88*%
X187864500Y-180538800D03*
X174414500Y-177998800D03*
%TD*%
%TO.C,SW75*%
X204532200Y-161490000D03*
X191082200Y-158950000D03*
%TD*%
%TO.C,SW56*%
X137861400Y-142441200D03*
X124411400Y-139901200D03*
%TD*%
%TO.C,SW13*%
X323587200Y-75770400D03*
X310137200Y-73230400D03*
%TD*%
%TO.C,SW31*%
X361684800Y-104343600D03*
X348234800Y-101803600D03*
%TD*%
%TO.C,SW15*%
X371209200Y-75770400D03*
X357759200Y-73230400D03*
%TD*%
%TO.C,SW47*%
X304538400Y-123392400D03*
X291088400Y-120852400D03*
%TD*%
%TO.C,SW74*%
X185483400Y-161490000D03*
X172033400Y-158950000D03*
%TD*%
M02*
