ISO-10303-21;
HEADER;
/* Generated by software containing ST-Developer
 * from STEP Tools, Inc. (www.steptools.com) 
 */

FILE_DESCRIPTION(
/* description */ (''),
/* implementation_level */ '2;1');

FILE_NAME(
/* name */ 'Bottom Plate.step',
/* time_stamp */ '2026-09-28T16:33:15-07:00',
/* author */ (''),
/* organization */ (''),
/* preprocessor_version */ 'ST-DEVELOPER v20.2',
/* originating_system */ 'Autodesk Translation Framework v15.15.0.0',
/* authorisation */ '');

FILE_SCHEMA (('AUTOMOTIVE_DESIGN { 1 0 10303 214 3 1 1 }'));
ENDSEC;

DATA;
#10=MECHANICAL_DESIGN_GEOMETRIC_PRESENTATION_REPRESENTATION('',(#13),#1167);
#11=SHAPE_REPRESENTATION_RELATIONSHIP('SRR','None',#1177,#12);
#12=ADVANCED_BREP_SHAPE_REPRESENTATION('',(#14),#1166);
#13=STYLED_ITEM('',(#1186),#14);
#14=MANIFOLD_SOLID_BREP('Body1',#699);
#15=CYLINDRICAL_SURFACE('',#761,0.062992125984252);
#16=CYLINDRICAL_SURFACE('',#762,0.062992125984252);
#17=CYLINDRICAL_SURFACE('',#763,0.062992125984252);
#18=CYLINDRICAL_SURFACE('',#764,0.062992125984252);
#19=CYLINDRICAL_SURFACE('',#765,0.0629921259842506);
#20=CYLINDRICAL_SURFACE('',#766,0.062992125984252);
#21=CYLINDRICAL_SURFACE('',#767,0.0629921259842506);
#22=CYLINDRICAL_SURFACE('',#768,0.062992125984252);
#23=CYLINDRICAL_SURFACE('',#769,0.062992125984252);
#24=CYLINDRICAL_SURFACE('',#770,0.062992125984252);
#25=CYLINDRICAL_SURFACE('',#771,0.0629921259842506);
#26=CYLINDRICAL_SURFACE('',#772,0.062992125984252);
#27=CIRCLE('',#740,0.062992125984252);
#28=CIRCLE('',#741,0.0629921259842506);
#29=CIRCLE('',#742,0.062992125984252);
#30=CIRCLE('',#743,0.062992125984252);
#31=CIRCLE('',#744,0.062992125984252);
#32=CIRCLE('',#745,0.0629921259842506);
#33=CIRCLE('',#746,0.0629921259842506);
#34=CIRCLE('',#747,0.062992125984252);
#35=CIRCLE('',#748,0.062992125984252);
#36=CIRCLE('',#749,0.062992125984252);
#37=CIRCLE('',#750,0.062992125984252);
#38=CIRCLE('',#751,0.062992125984252);
#39=CIRCLE('',#752,0.062992125984252);
#40=CIRCLE('',#753,0.062992125984252);
#41=CIRCLE('',#754,0.062992125984252);
#42=CIRCLE('',#755,0.0629921259842506);
#43=CIRCLE('',#757,0.0629921259842506);
#44=CIRCLE('',#758,0.062992125984252);
#45=CIRCLE('',#759,0.062992125984252);
#46=CIRCLE('',#760,0.062992125984252);
#47=FACE_BOUND('',#119,.T.);
#48=FACE_BOUND('',#120,.T.);
#49=FACE_BOUND('',#121,.T.);
#50=FACE_BOUND('',#122,.T.);
#51=FACE_BOUND('',#123,.T.);
#52=FACE_BOUND('',#124,.T.);
#53=FACE_BOUND('',#125,.T.);
#54=FACE_BOUND('',#126,.T.);
#55=FACE_BOUND('',#127,.T.);
#56=FACE_BOUND('',#128,.T.);
#57=FACE_BOUND('',#129,.T.);
#58=FACE_BOUND('',#130,.T.);
#59=FACE_BOUND('',#140,.T.);
#60=FACE_BOUND('',#141,.T.);
#61=FACE_BOUND('',#142,.T.);
#62=FACE_BOUND('',#143,.T.);
#63=FACE_BOUND('',#144,.T.);
#64=FACE_BOUND('',#145,.T.);
#65=FACE_BOUND('',#146,.T.);
#66=FACE_BOUND('',#147,.T.);
#67=FACE_BOUND('',#148,.T.);
#68=FACE_BOUND('',#150,.T.);
#69=ELLIPSE('',#719,0.0633100439340719,0.062992125984252);
#70=ELLIPSE('',#720,0.0633100439340719,0.062992125984252);
#71=ELLIPSE('',#721,0.0633100439340719,0.062992125984252);
#72=ELLIPSE('',#722,0.0633100439340705,0.0629921259842506);
#73=ELLIPSE('',#723,0.0633100439340719,0.062992125984252);
#74=ELLIPSE('',#724,0.0633100439340719,0.062992125984252);
#75=ELLIPSE('',#725,0.0633100439340719,0.062992125984252);
#76=ELLIPSE('',#726,0.0633100439340719,0.062992125984252);
#77=ELLIPSE('',#727,0.0633100439340705,0.0629921259842506);
#78=ELLIPSE('',#728,0.0633100439340705,0.0629921259842506);
#79=ELLIPSE('',#729,0.0633100439340719,0.062992125984252);
#80=ELLIPSE('',#730,0.0633100439340719,0.062992125984252);
#81=FACE_OUTER_BOUND('',#113,.T.);
#82=FACE_OUTER_BOUND('',#114,.T.);
#83=FACE_OUTER_BOUND('',#115,.T.);
#84=FACE_OUTER_BOUND('',#116,.T.);
#85=FACE_OUTER_BOUND('',#117,.T.);
#86=FACE_OUTER_BOUND('',#118,.T.);
#87=FACE_OUTER_BOUND('',#131,.T.);
#88=FACE_OUTER_BOUND('',#132,.T.);
#89=FACE_OUTER_BOUND('',#133,.T.);
#90=FACE_OUTER_BOUND('',#134,.T.);
#91=FACE_OUTER_BOUND('',#135,.T.);
#92=FACE_OUTER_BOUND('',#136,.T.);
#93=FACE_OUTER_BOUND('',#137,.T.);
#94=FACE_OUTER_BOUND('',#138,.T.);
#95=FACE_OUTER_BOUND('',#139,.T.);
#96=FACE_OUTER_BOUND('',#149,.T.);
#97=FACE_OUTER_BOUND('',#151,.T.);
#98=FACE_OUTER_BOUND('',#152,.T.);
#99=FACE_OUTER_BOUND('',#153,.T.);
#100=FACE_OUTER_BOUND('',#154,.T.);
#101=FACE_OUTER_BOUND('',#155,.T.);
#102=FACE_OUTER_BOUND('',#156,.T.);
#103=FACE_OUTER_BOUND('',#157,.T.);
#104=FACE_OUTER_BOUND('',#158,.T.);
#105=FACE_OUTER_BOUND('',#159,.T.);
#106=FACE_OUTER_BOUND('',#160,.T.);
#107=FACE_OUTER_BOUND('',#161,.T.);
#108=FACE_OUTER_BOUND('',#162,.T.);
#109=FACE_OUTER_BOUND('',#163,.T.);
#110=FACE_OUTER_BOUND('',#164,.T.);
#111=FACE_OUTER_BOUND('',#165,.T.);
#112=FACE_OUTER_BOUND('',#166,.T.);
#113=EDGE_LOOP('',(#455,#456,#457,#458));
#114=EDGE_LOOP('',(#459,#460,#461,#462));
#115=EDGE_LOOP('',(#463,#464,#465,#466));
#116=EDGE_LOOP('',(#467,#468,#469,#470));
#117=EDGE_LOOP('',(#471,#472,#473,#474));
#118=EDGE_LOOP('',(#475,#476,#477,#478));
#119=EDGE_LOOP('',(#479));
#120=EDGE_LOOP('',(#480));
#121=EDGE_LOOP('',(#481));
#122=EDGE_LOOP('',(#482));
#123=EDGE_LOOP('',(#483));
#124=EDGE_LOOP('',(#484));
#125=EDGE_LOOP('',(#485));
#126=EDGE_LOOP('',(#486));
#127=EDGE_LOOP('',(#487));
#128=EDGE_LOOP('',(#488));
#129=EDGE_LOOP('',(#489));
#130=EDGE_LOOP('',(#490));
#131=EDGE_LOOP('',(#491,#492,#493,#494));
#132=EDGE_LOOP('',(#495,#496,#497,#498));
#133=EDGE_LOOP('',(#499,#500,#501,#502));
#134=EDGE_LOOP('',(#503,#504,#505,#506));
#135=EDGE_LOOP('',(#507,#508,#509,#510));
#136=EDGE_LOOP('',(#511,#512,#513,#514));
#137=EDGE_LOOP('',(#515,#516,#517,#518));
#138=EDGE_LOOP('',(#519,#520,#521,#522));
#139=EDGE_LOOP('',(#523,#524,#525,#526));
#140=EDGE_LOOP('',(#527));
#141=EDGE_LOOP('',(#528));
#142=EDGE_LOOP('',(#529));
#143=EDGE_LOOP('',(#530));
#144=EDGE_LOOP('',(#531));
#145=EDGE_LOOP('',(#532,#533,#534,#535,#536,#537,#538,#539,#540,#541,#542,
#543,#544,#545,#546,#547));
#146=EDGE_LOOP('',(#548));
#147=EDGE_LOOP('',(#549));
#148=EDGE_LOOP('',(#550));
#149=EDGE_LOOP('',(#551,#552,#553,#554,#555,#556,#557,#558,#559,#560,#561,
#562));
#150=EDGE_LOOP('',(#563,#564,#565,#566));
#151=EDGE_LOOP('',(#567,#568,#569,#570,#571,#572,#573,#574));
#152=EDGE_LOOP('',(#575,#576,#577,#578));
#153=EDGE_LOOP('',(#579,#580,#581,#582));
#154=EDGE_LOOP('',(#583,#584,#585,#586));
#155=EDGE_LOOP('',(#587,#588,#589,#590));
#156=EDGE_LOOP('',(#591,#592,#593,#594,#595,#596,#597,#598));
#157=EDGE_LOOP('',(#599,#600,#601,#602,#603,#604,#605,#606));
#158=EDGE_LOOP('',(#607,#608,#609,#610));
#159=EDGE_LOOP('',(#611,#612,#613,#614));
#160=EDGE_LOOP('',(#615,#616,#617,#618));
#161=EDGE_LOOP('',(#619,#620,#621,#622));
#162=EDGE_LOOP('',(#623,#624,#625,#626,#627,#628,#629,#630));
#163=EDGE_LOOP('',(#631,#632,#633,#634));
#164=EDGE_LOOP('',(#635,#636,#637,#638));
#165=EDGE_LOOP('',(#639,#640,#641,#642));
#166=EDGE_LOOP('',(#643,#644,#645,#646));
#167=LINE('',#975,#231);
#168=LINE('',#977,#232);
#169=LINE('',#979,#233);
#170=LINE('',#980,#234);
#171=LINE('',#983,#235);
#172=LINE('',#985,#236);
#173=LINE('',#986,#237);
#174=LINE('',#989,#238);
#175=LINE('',#991,#239);
#176=LINE('',#992,#240);
#177=LINE('',#994,#241);
#178=LINE('',#995,#242);
#179=LINE('',#1000,#243);
#180=LINE('',#1002,#244);
#181=LINE('',#1004,#245);
#182=LINE('',#1005,#246);
#183=LINE('',#1033,#247);
#184=LINE('',#1035,#248);
#185=LINE('',#1037,#249);
#186=LINE('',#1038,#250);
#187=LINE('',#1042,#251);
#188=LINE('',#1044,#252);
#189=LINE('',#1046,#253);
#190=LINE('',#1047,#254);
#191=LINE('',#1051,#255);
#192=LINE('',#1053,#256);
#193=LINE('',#1055,#257);
#194=LINE('',#1056,#258);
#195=LINE('',#1060,#259);
#196=LINE('',#1062,#260);
#197=LINE('',#1064,#261);
#198=LINE('',#1065,#262);
#199=LINE('',#1068,#263);
#200=LINE('',#1070,#264);
#201=LINE('',#1071,#265);
#202=LINE('',#1074,#266);
#203=LINE('',#1076,#267);
#204=LINE('',#1077,#268);
#205=LINE('',#1080,#269);
#206=LINE('',#1082,#270);
#207=LINE('',#1083,#271);
#208=LINE('',#1086,#272);
#209=LINE('',#1088,#273);
#210=LINE('',#1089,#274);
#211=LINE('',#1093,#275);
#212=LINE('',#1095,#276);
#213=LINE('',#1097,#277);
#214=LINE('',#1098,#278);
#215=LINE('',#1133,#279);
#216=LINE('',#1135,#280);
#217=LINE('',#1137,#281);
#218=LINE('',#1139,#282);
#219=LINE('',#1141,#283);
#220=LINE('',#1143,#284);
#221=LINE('',#1145,#285);
#222=LINE('',#1147,#286);
#223=LINE('',#1149,#287);
#224=LINE('',#1151,#288);
#225=LINE('',#1153,#289);
#226=LINE('',#1155,#290);
#227=LINE('',#1157,#291);
#228=LINE('',#1158,#292);
#229=LINE('',#1160,#293);
#230=LINE('',#1162,#294);
#231=VECTOR('',#781,0.393700787401575);
#232=VECTOR('',#782,0.393700787401575);
#233=VECTOR('',#783,0.393700787401575);
#234=VECTOR('',#784,0.393700787401575);
#235=VECTOR('',#787,0.393700787401575);
#236=VECTOR('',#788,0.393700787401575);
#237=VECTOR('',#789,0.393700787401575);
#238=VECTOR('',#792,0.393700787401575);
#239=VECTOR('',#793,0.393700787401575);
#240=VECTOR('',#794,0.393700787401575);
#241=VECTOR('',#797,0.393700787401575);
#242=VECTOR('',#798,0.393700787401575);
#243=VECTOR('',#803,0.393700787401575);
#244=VECTOR('',#804,0.393700787401575);
#245=VECTOR('',#805,0.393700787401575);
#246=VECTOR('',#806,0.393700787401575);
#247=VECTOR('',#833,0.393700787401575);
#248=VECTOR('',#834,0.393700787401575);
#249=VECTOR('',#835,0.393700787401575);
#250=VECTOR('',#836,0.393700787401575);
#251=VECTOR('',#839,0.393700787401575);
#252=VECTOR('',#840,0.393700787401575);
#253=VECTOR('',#841,0.393700787401575);
#254=VECTOR('',#842,0.393700787401575);
#255=VECTOR('',#845,0.393700787401575);
#256=VECTOR('',#846,0.393700787401575);
#257=VECTOR('',#847,0.393700787401575);
#258=VECTOR('',#848,0.393700787401575);
#259=VECTOR('',#851,0.393700787401575);
#260=VECTOR('',#852,0.393700787401575);
#261=VECTOR('',#853,0.393700787401575);
#262=VECTOR('',#854,0.393700787401575);
#263=VECTOR('',#857,0.393700787401575);
#264=VECTOR('',#858,0.393700787401575);
#265=VECTOR('',#859,0.393700787401575);
#266=VECTOR('',#862,0.393700787401575);
#267=VECTOR('',#863,0.393700787401575);
#268=VECTOR('',#864,0.393700787401575);
#269=VECTOR('',#867,0.393700787401575);
#270=VECTOR('',#868,0.393700787401575);
#271=VECTOR('',#869,0.393700787401575);
#272=VECTOR('',#872,0.393700787401575);
#273=VECTOR('',#873,0.393700787401575);
#274=VECTOR('',#874,0.393700787401575);
#275=VECTOR('',#877,0.393700787401575);
#276=VECTOR('',#878,0.393700787401575);
#277=VECTOR('',#879,0.393700787401575);
#278=VECTOR('',#880,0.393700787401575);
#279=VECTOR('',#925,0.062992125984252);
#280=VECTOR('',#928,0.062992125984252);
#281=VECTOR('',#931,0.062992125984252);
#282=VECTOR('',#934,0.062992125984252);
#283=VECTOR('',#937,0.0629921259842506);
#284=VECTOR('',#940,0.062992125984252);
#285=VECTOR('',#943,0.0629921259842506);
#286=VECTOR('',#946,0.062992125984252);
#287=VECTOR('',#949,0.062992125984252);
#288=VECTOR('',#952,0.062992125984252);
#289=VECTOR('',#955,0.0629921259842506);
#290=VECTOR('',#958,0.062992125984252);
#291=VECTOR('',#961,0.393700787401575);
#292=VECTOR('',#962,0.393700787401575);
#293=VECTOR('',#965,0.393700787401575);
#294=VECTOR('',#968,0.393700787401575);
#295=VERTEX_POINT('',#973);
#296=VERTEX_POINT('',#974);
#297=VERTEX_POINT('',#976);
#298=VERTEX_POINT('',#978);
#299=VERTEX_POINT('',#982);
#300=VERTEX_POINT('',#984);
#301=VERTEX_POINT('',#988);
#302=VERTEX_POINT('',#990);
#303=VERTEX_POINT('',#998);
#304=VERTEX_POINT('',#999);
#305=VERTEX_POINT('',#1001);
#306=VERTEX_POINT('',#1003);
#307=VERTEX_POINT('',#1006);
#308=VERTEX_POINT('',#1008);
#309=VERTEX_POINT('',#1010);
#310=VERTEX_POINT('',#1012);
#311=VERTEX_POINT('',#1014);
#312=VERTEX_POINT('',#1016);
#313=VERTEX_POINT('',#1018);
#314=VERTEX_POINT('',#1020);
#315=VERTEX_POINT('',#1022);
#316=VERTEX_POINT('',#1024);
#317=VERTEX_POINT('',#1026);
#318=VERTEX_POINT('',#1028);
#319=VERTEX_POINT('',#1031);
#320=VERTEX_POINT('',#1032);
#321=VERTEX_POINT('',#1034);
#322=VERTEX_POINT('',#1036);
#323=VERTEX_POINT('',#1040);
#324=VERTEX_POINT('',#1041);
#325=VERTEX_POINT('',#1043);
#326=VERTEX_POINT('',#1045);
#327=VERTEX_POINT('',#1049);
#328=VERTEX_POINT('',#1050);
#329=VERTEX_POINT('',#1052);
#330=VERTEX_POINT('',#1054);
#331=VERTEX_POINT('',#1058);
#332=VERTEX_POINT('',#1059);
#333=VERTEX_POINT('',#1061);
#334=VERTEX_POINT('',#1063);
#335=VERTEX_POINT('',#1067);
#336=VERTEX_POINT('',#1069);
#337=VERTEX_POINT('',#1073);
#338=VERTEX_POINT('',#1075);
#339=VERTEX_POINT('',#1079);
#340=VERTEX_POINT('',#1081);
#341=VERTEX_POINT('',#1085);
#342=VERTEX_POINT('',#1087);
#343=VERTEX_POINT('',#1091);
#344=VERTEX_POINT('',#1092);
#345=VERTEX_POINT('',#1094);
#346=VERTEX_POINT('',#1096);
#347=VERTEX_POINT('',#1099);
#348=VERTEX_POINT('',#1101);
#349=VERTEX_POINT('',#1103);
#350=VERTEX_POINT('',#1105);
#351=VERTEX_POINT('',#1107);
#352=VERTEX_POINT('',#1109);
#353=VERTEX_POINT('',#1112);
#354=VERTEX_POINT('',#1115);
#355=VERTEX_POINT('',#1118);
#356=VERTEX_POINT('',#1121);
#357=VERTEX_POINT('',#1123);
#358=VERTEX_POINT('',#1125);
#359=EDGE_CURVE('',#295,#296,#167,.T.);
#360=EDGE_CURVE('',#295,#297,#168,.T.);
#361=EDGE_CURVE('',#297,#298,#169,.T.);
#362=EDGE_CURVE('',#296,#298,#170,.T.);
#363=EDGE_CURVE('',#299,#295,#171,.T.);
#364=EDGE_CURVE('',#299,#300,#172,.T.);
#365=EDGE_CURVE('',#300,#297,#173,.T.);
#366=EDGE_CURVE('',#301,#299,#174,.T.);
#367=EDGE_CURVE('',#301,#302,#175,.T.);
#368=EDGE_CURVE('',#302,#300,#176,.T.);
#369=EDGE_CURVE('',#296,#301,#177,.T.);
#370=EDGE_CURVE('',#298,#302,#178,.T.);
#371=EDGE_CURVE('',#303,#304,#179,.T.);
#372=EDGE_CURVE('',#304,#305,#180,.T.);
#373=EDGE_CURVE('',#306,#305,#181,.T.);
#374=EDGE_CURVE('',#306,#303,#182,.T.);
#375=EDGE_CURVE('',#307,#307,#69,.T.);
#376=EDGE_CURVE('',#308,#308,#70,.T.);
#377=EDGE_CURVE('',#309,#309,#71,.T.);
#378=EDGE_CURVE('',#310,#310,#72,.T.);
#379=EDGE_CURVE('',#311,#311,#73,.T.);
#380=EDGE_CURVE('',#312,#312,#74,.T.);
#381=EDGE_CURVE('',#313,#313,#75,.T.);
#382=EDGE_CURVE('',#314,#314,#76,.T.);
#383=EDGE_CURVE('',#315,#315,#77,.T.);
#384=EDGE_CURVE('',#316,#316,#78,.T.);
#385=EDGE_CURVE('',#317,#317,#79,.T.);
#386=EDGE_CURVE('',#318,#318,#80,.T.);
#387=EDGE_CURVE('',#319,#320,#183,.T.);
#388=EDGE_CURVE('',#319,#321,#184,.T.);
#389=EDGE_CURVE('',#322,#321,#185,.T.);
#390=EDGE_CURVE('',#320,#322,#186,.T.);
#391=EDGE_CURVE('',#323,#324,#187,.T.);
#392=EDGE_CURVE('',#323,#325,#188,.T.);
#393=EDGE_CURVE('',#326,#325,#189,.T.);
#394=EDGE_CURVE('',#324,#326,#190,.T.);
#395=EDGE_CURVE('',#327,#328,#191,.T.);
#396=EDGE_CURVE('',#327,#329,#192,.T.);
#397=EDGE_CURVE('',#330,#329,#193,.T.);
#398=EDGE_CURVE('',#328,#330,#194,.T.);
#399=EDGE_CURVE('',#331,#332,#195,.T.);
#400=EDGE_CURVE('',#331,#333,#196,.T.);
#401=EDGE_CURVE('',#334,#333,#197,.T.);
#402=EDGE_CURVE('',#332,#334,#198,.T.);
#403=EDGE_CURVE('',#332,#335,#199,.T.);
#404=EDGE_CURVE('',#336,#334,#200,.T.);
#405=EDGE_CURVE('',#335,#336,#201,.T.);
#406=EDGE_CURVE('',#335,#337,#202,.T.);
#407=EDGE_CURVE('',#338,#336,#203,.T.);
#408=EDGE_CURVE('',#337,#338,#204,.T.);
#409=EDGE_CURVE('',#337,#339,#205,.T.);
#410=EDGE_CURVE('',#340,#338,#206,.T.);
#411=EDGE_CURVE('',#339,#340,#207,.T.);
#412=EDGE_CURVE('',#339,#341,#208,.T.);
#413=EDGE_CURVE('',#342,#340,#209,.T.);
#414=EDGE_CURVE('',#341,#342,#210,.T.);
#415=EDGE_CURVE('',#343,#344,#211,.T.);
#416=EDGE_CURVE('',#344,#345,#212,.T.);
#417=EDGE_CURVE('',#345,#346,#213,.T.);
#418=EDGE_CURVE('',#346,#343,#214,.T.);
#419=EDGE_CURVE('',#347,#347,#27,.T.);
#420=EDGE_CURVE('',#348,#348,#28,.T.);
#421=EDGE_CURVE('',#349,#349,#29,.T.);
#422=EDGE_CURVE('',#350,#350,#30,.T.);
#423=EDGE_CURVE('',#351,#351,#31,.T.);
#424=EDGE_CURVE('',#321,#352,#32,.T.);
#425=EDGE_CURVE('',#352,#342,#33,.T.);
#426=EDGE_CURVE('',#333,#353,#34,.T.);
#427=EDGE_CURVE('',#353,#330,#35,.T.);
#428=EDGE_CURVE('',#329,#354,#36,.T.);
#429=EDGE_CURVE('',#354,#326,#37,.T.);
#430=EDGE_CURVE('',#325,#355,#38,.T.);
#431=EDGE_CURVE('',#355,#322,#39,.T.);
#432=EDGE_CURVE('',#356,#356,#40,.T.);
#433=EDGE_CURVE('',#357,#357,#41,.T.);
#434=EDGE_CURVE('',#358,#358,#42,.T.);
#435=EDGE_CURVE('',#341,#319,#43,.T.);
#436=EDGE_CURVE('',#320,#323,#44,.T.);
#437=EDGE_CURVE('',#324,#327,#45,.T.);
#438=EDGE_CURVE('',#328,#331,#46,.T.);
#439=EDGE_CURVE('',#355,#309,#215,.T.);
#440=EDGE_CURVE('',#349,#317,#216,.T.);
#441=EDGE_CURVE('',#351,#318,#217,.T.);
#442=EDGE_CURVE('',#356,#307,#218,.T.);
#443=EDGE_CURVE('',#358,#310,#219,.T.);
#444=EDGE_CURVE('',#354,#311,#220,.T.);
#445=EDGE_CURVE('',#352,#315,#221,.T.);
#446=EDGE_CURVE('',#350,#314,#222,.T.);
#447=EDGE_CURVE('',#347,#313,#223,.T.);
#448=EDGE_CURVE('',#357,#312,#224,.T.);
#449=EDGE_CURVE('',#348,#316,#225,.T.);
#450=EDGE_CURVE('',#353,#308,#226,.T.);
#451=EDGE_CURVE('',#303,#345,#227,.T.);
#452=EDGE_CURVE('',#304,#344,#228,.T.);
#453=EDGE_CURVE('',#305,#343,#229,.T.);
#454=EDGE_CURVE('',#306,#346,#230,.T.);
#455=ORIENTED_EDGE('',*,*,#359,.F.);
#456=ORIENTED_EDGE('',*,*,#360,.T.);
#457=ORIENTED_EDGE('',*,*,#361,.T.);
#458=ORIENTED_EDGE('',*,*,#362,.F.);
#459=ORIENTED_EDGE('',*,*,#363,.F.);
#460=ORIENTED_EDGE('',*,*,#364,.T.);
#461=ORIENTED_EDGE('',*,*,#365,.T.);
#462=ORIENTED_EDGE('',*,*,#360,.F.);
#463=ORIENTED_EDGE('',*,*,#366,.F.);
#464=ORIENTED_EDGE('',*,*,#367,.T.);
#465=ORIENTED_EDGE('',*,*,#368,.T.);
#466=ORIENTED_EDGE('',*,*,#364,.F.);
#467=ORIENTED_EDGE('',*,*,#369,.F.);
#468=ORIENTED_EDGE('',*,*,#362,.T.);
#469=ORIENTED_EDGE('',*,*,#370,.T.);
#470=ORIENTED_EDGE('',*,*,#367,.F.);
#471=ORIENTED_EDGE('',*,*,#370,.F.);
#472=ORIENTED_EDGE('',*,*,#361,.F.);
#473=ORIENTED_EDGE('',*,*,#365,.F.);
#474=ORIENTED_EDGE('',*,*,#368,.F.);
#475=ORIENTED_EDGE('',*,*,#371,.T.);
#476=ORIENTED_EDGE('',*,*,#372,.T.);
#477=ORIENTED_EDGE('',*,*,#373,.F.);
#478=ORIENTED_EDGE('',*,*,#374,.T.);
#479=ORIENTED_EDGE('',*,*,#375,.T.);
#480=ORIENTED_EDGE('',*,*,#376,.T.);
#481=ORIENTED_EDGE('',*,*,#377,.T.);
#482=ORIENTED_EDGE('',*,*,#378,.T.);
#483=ORIENTED_EDGE('',*,*,#379,.T.);
#484=ORIENTED_EDGE('',*,*,#380,.T.);
#485=ORIENTED_EDGE('',*,*,#381,.T.);
#486=ORIENTED_EDGE('',*,*,#382,.T.);
#487=ORIENTED_EDGE('',*,*,#383,.T.);
#488=ORIENTED_EDGE('',*,*,#384,.T.);
#489=ORIENTED_EDGE('',*,*,#385,.T.);
#490=ORIENTED_EDGE('',*,*,#386,.T.);
#491=ORIENTED_EDGE('',*,*,#387,.F.);
#492=ORIENTED_EDGE('',*,*,#388,.T.);
#493=ORIENTED_EDGE('',*,*,#389,.F.);
#494=ORIENTED_EDGE('',*,*,#390,.F.);
#495=ORIENTED_EDGE('',*,*,#391,.F.);
#496=ORIENTED_EDGE('',*,*,#392,.T.);
#497=ORIENTED_EDGE('',*,*,#393,.F.);
#498=ORIENTED_EDGE('',*,*,#394,.F.);
#499=ORIENTED_EDGE('',*,*,#395,.F.);
#500=ORIENTED_EDGE('',*,*,#396,.T.);
#501=ORIENTED_EDGE('',*,*,#397,.F.);
#502=ORIENTED_EDGE('',*,*,#398,.F.);
#503=ORIENTED_EDGE('',*,*,#399,.F.);
#504=ORIENTED_EDGE('',*,*,#400,.T.);
#505=ORIENTED_EDGE('',*,*,#401,.F.);
#506=ORIENTED_EDGE('',*,*,#402,.F.);
#507=ORIENTED_EDGE('',*,*,#403,.F.);
#508=ORIENTED_EDGE('',*,*,#402,.T.);
#509=ORIENTED_EDGE('',*,*,#404,.F.);
#510=ORIENTED_EDGE('',*,*,#405,.F.);
#511=ORIENTED_EDGE('',*,*,#406,.F.);
#512=ORIENTED_EDGE('',*,*,#405,.T.);
#513=ORIENTED_EDGE('',*,*,#407,.F.);
#514=ORIENTED_EDGE('',*,*,#408,.F.);
#515=ORIENTED_EDGE('',*,*,#409,.F.);
#516=ORIENTED_EDGE('',*,*,#408,.T.);
#517=ORIENTED_EDGE('',*,*,#410,.F.);
#518=ORIENTED_EDGE('',*,*,#411,.F.);
#519=ORIENTED_EDGE('',*,*,#412,.F.);
#520=ORIENTED_EDGE('',*,*,#411,.T.);
#521=ORIENTED_EDGE('',*,*,#413,.F.);
#522=ORIENTED_EDGE('',*,*,#414,.F.);
#523=ORIENTED_EDGE('',*,*,#415,.T.);
#524=ORIENTED_EDGE('',*,*,#416,.T.);
#525=ORIENTED_EDGE('',*,*,#417,.T.);
#526=ORIENTED_EDGE('',*,*,#418,.T.);
#527=ORIENTED_EDGE('',*,*,#419,.T.);
#528=ORIENTED_EDGE('',*,*,#420,.T.);
#529=ORIENTED_EDGE('',*,*,#421,.T.);
#530=ORIENTED_EDGE('',*,*,#422,.T.);
#531=ORIENTED_EDGE('',*,*,#423,.T.);
#532=ORIENTED_EDGE('',*,*,#424,.T.);
#533=ORIENTED_EDGE('',*,*,#425,.T.);
#534=ORIENTED_EDGE('',*,*,#413,.T.);
#535=ORIENTED_EDGE('',*,*,#410,.T.);
#536=ORIENTED_EDGE('',*,*,#407,.T.);
#537=ORIENTED_EDGE('',*,*,#404,.T.);
#538=ORIENTED_EDGE('',*,*,#401,.T.);
#539=ORIENTED_EDGE('',*,*,#426,.T.);
#540=ORIENTED_EDGE('',*,*,#427,.T.);
#541=ORIENTED_EDGE('',*,*,#397,.T.);
#542=ORIENTED_EDGE('',*,*,#428,.T.);
#543=ORIENTED_EDGE('',*,*,#429,.T.);
#544=ORIENTED_EDGE('',*,*,#393,.T.);
#545=ORIENTED_EDGE('',*,*,#430,.T.);
#546=ORIENTED_EDGE('',*,*,#431,.T.);
#547=ORIENTED_EDGE('',*,*,#389,.T.);
#548=ORIENTED_EDGE('',*,*,#432,.T.);
#549=ORIENTED_EDGE('',*,*,#433,.T.);
#550=ORIENTED_EDGE('',*,*,#434,.T.);
#551=ORIENTED_EDGE('',*,*,#399,.T.);
#552=ORIENTED_EDGE('',*,*,#403,.T.);
#553=ORIENTED_EDGE('',*,*,#406,.T.);
#554=ORIENTED_EDGE('',*,*,#409,.T.);
#555=ORIENTED_EDGE('',*,*,#412,.T.);
#556=ORIENTED_EDGE('',*,*,#435,.T.);
#557=ORIENTED_EDGE('',*,*,#387,.T.);
#558=ORIENTED_EDGE('',*,*,#436,.T.);
#559=ORIENTED_EDGE('',*,*,#391,.T.);
#560=ORIENTED_EDGE('',*,*,#437,.T.);
#561=ORIENTED_EDGE('',*,*,#395,.T.);
#562=ORIENTED_EDGE('',*,*,#438,.T.);
#563=ORIENTED_EDGE('',*,*,#359,.T.);
#564=ORIENTED_EDGE('',*,*,#369,.T.);
#565=ORIENTED_EDGE('',*,*,#366,.T.);
#566=ORIENTED_EDGE('',*,*,#363,.T.);
#567=ORIENTED_EDGE('',*,*,#436,.F.);
#568=ORIENTED_EDGE('',*,*,#390,.T.);
#569=ORIENTED_EDGE('',*,*,#431,.F.);
#570=ORIENTED_EDGE('',*,*,#439,.T.);
#571=ORIENTED_EDGE('',*,*,#377,.F.);
#572=ORIENTED_EDGE('',*,*,#439,.F.);
#573=ORIENTED_EDGE('',*,*,#430,.F.);
#574=ORIENTED_EDGE('',*,*,#392,.F.);
#575=ORIENTED_EDGE('',*,*,#421,.F.);
#576=ORIENTED_EDGE('',*,*,#440,.T.);
#577=ORIENTED_EDGE('',*,*,#385,.F.);
#578=ORIENTED_EDGE('',*,*,#440,.F.);
#579=ORIENTED_EDGE('',*,*,#423,.F.);
#580=ORIENTED_EDGE('',*,*,#441,.T.);
#581=ORIENTED_EDGE('',*,*,#386,.F.);
#582=ORIENTED_EDGE('',*,*,#441,.F.);
#583=ORIENTED_EDGE('',*,*,#432,.F.);
#584=ORIENTED_EDGE('',*,*,#442,.T.);
#585=ORIENTED_EDGE('',*,*,#375,.F.);
#586=ORIENTED_EDGE('',*,*,#442,.F.);
#587=ORIENTED_EDGE('',*,*,#434,.F.);
#588=ORIENTED_EDGE('',*,*,#443,.T.);
#589=ORIENTED_EDGE('',*,*,#378,.F.);
#590=ORIENTED_EDGE('',*,*,#443,.F.);
#591=ORIENTED_EDGE('',*,*,#437,.F.);
#592=ORIENTED_EDGE('',*,*,#394,.T.);
#593=ORIENTED_EDGE('',*,*,#429,.F.);
#594=ORIENTED_EDGE('',*,*,#444,.T.);
#595=ORIENTED_EDGE('',*,*,#379,.F.);
#596=ORIENTED_EDGE('',*,*,#444,.F.);
#597=ORIENTED_EDGE('',*,*,#428,.F.);
#598=ORIENTED_EDGE('',*,*,#396,.F.);
#599=ORIENTED_EDGE('',*,*,#414,.T.);
#600=ORIENTED_EDGE('',*,*,#425,.F.);
#601=ORIENTED_EDGE('',*,*,#445,.T.);
#602=ORIENTED_EDGE('',*,*,#383,.F.);
#603=ORIENTED_EDGE('',*,*,#445,.F.);
#604=ORIENTED_EDGE('',*,*,#424,.F.);
#605=ORIENTED_EDGE('',*,*,#388,.F.);
#606=ORIENTED_EDGE('',*,*,#435,.F.);
#607=ORIENTED_EDGE('',*,*,#422,.F.);
#608=ORIENTED_EDGE('',*,*,#446,.T.);
#609=ORIENTED_EDGE('',*,*,#382,.F.);
#610=ORIENTED_EDGE('',*,*,#446,.F.);
#611=ORIENTED_EDGE('',*,*,#419,.F.);
#612=ORIENTED_EDGE('',*,*,#447,.T.);
#613=ORIENTED_EDGE('',*,*,#381,.F.);
#614=ORIENTED_EDGE('',*,*,#447,.F.);
#615=ORIENTED_EDGE('',*,*,#433,.F.);
#616=ORIENTED_EDGE('',*,*,#448,.T.);
#617=ORIENTED_EDGE('',*,*,#380,.F.);
#618=ORIENTED_EDGE('',*,*,#448,.F.);
#619=ORIENTED_EDGE('',*,*,#420,.F.);
#620=ORIENTED_EDGE('',*,*,#449,.T.);
#621=ORIENTED_EDGE('',*,*,#384,.F.);
#622=ORIENTED_EDGE('',*,*,#449,.F.);
#623=ORIENTED_EDGE('',*,*,#438,.F.);
#624=ORIENTED_EDGE('',*,*,#398,.T.);
#625=ORIENTED_EDGE('',*,*,#427,.F.);
#626=ORIENTED_EDGE('',*,*,#450,.T.);
#627=ORIENTED_EDGE('',*,*,#376,.F.);
#628=ORIENTED_EDGE('',*,*,#450,.F.);
#629=ORIENTED_EDGE('',*,*,#426,.F.);
#630=ORIENTED_EDGE('',*,*,#400,.F.);
#631=ORIENTED_EDGE('',*,*,#451,.T.);
#632=ORIENTED_EDGE('',*,*,#416,.F.);
#633=ORIENTED_EDGE('',*,*,#452,.F.);
#634=ORIENTED_EDGE('',*,*,#371,.F.);
#635=ORIENTED_EDGE('',*,*,#452,.T.);
#636=ORIENTED_EDGE('',*,*,#415,.F.);
#637=ORIENTED_EDGE('',*,*,#453,.F.);
#638=ORIENTED_EDGE('',*,*,#372,.F.);
#639=ORIENTED_EDGE('',*,*,#453,.T.);
#640=ORIENTED_EDGE('',*,*,#418,.F.);
#641=ORIENTED_EDGE('',*,*,#454,.F.);
#642=ORIENTED_EDGE('',*,*,#373,.T.);
#643=ORIENTED_EDGE('',*,*,#374,.F.);
#644=ORIENTED_EDGE('',*,*,#454,.T.);
#645=ORIENTED_EDGE('',*,*,#417,.F.);
#646=ORIENTED_EDGE('',*,*,#451,.F.);
#647=PLANE('',#713);
#648=PLANE('',#714);
#649=PLANE('',#715);
#650=PLANE('',#716);
#651=PLANE('',#717);
#652=PLANE('',#718);
#653=PLANE('',#731);
#654=PLANE('',#732);
#655=PLANE('',#733);
#656=PLANE('',#734);
#657=PLANE('',#735);
#658=PLANE('',#736);
#659=PLANE('',#737);
#660=PLANE('',#738);
#661=PLANE('',#739);
#662=PLANE('',#756);
#663=PLANE('',#773);
#664=PLANE('',#774);
#665=PLANE('',#775);
#666=PLANE('',#776);
#667=ADVANCED_FACE('',(#81),#647,.F.);
#668=ADVANCED_FACE('',(#82),#648,.F.);
#669=ADVANCED_FACE('',(#83),#649,.F.);
#670=ADVANCED_FACE('',(#84),#650,.F.);
#671=ADVANCED_FACE('',(#85),#651,.F.);
#672=ADVANCED_FACE('',(#86,#47,#48,#49,#50,#51,#52,#53,#54,#55,#56,#57,
#58),#652,.T.);
#673=ADVANCED_FACE('',(#87),#653,.T.);
#674=ADVANCED_FACE('',(#88),#654,.T.);
#675=ADVANCED_FACE('',(#89),#655,.T.);
#676=ADVANCED_FACE('',(#90),#656,.T.);
#677=ADVANCED_FACE('',(#91),#657,.T.);
#678=ADVANCED_FACE('',(#92),#658,.T.);
#679=ADVANCED_FACE('',(#93),#659,.T.);
#680=ADVANCED_FACE('',(#94),#660,.T.);
#681=ADVANCED_FACE('',(#95,#59,#60,#61,#62,#63,#64,#65,#66,#67),#661,.T.);
#682=ADVANCED_FACE('',(#96,#68),#662,.T.);
#683=ADVANCED_FACE('',(#97),#15,.F.);
#684=ADVANCED_FACE('',(#98),#16,.F.);
#685=ADVANCED_FACE('',(#99),#17,.F.);
#686=ADVANCED_FACE('',(#100),#18,.F.);
#687=ADVANCED_FACE('',(#101),#19,.F.);
#688=ADVANCED_FACE('',(#102),#20,.F.);
#689=ADVANCED_FACE('',(#103),#21,.F.);
#690=ADVANCED_FACE('',(#104),#22,.F.);
#691=ADVANCED_FACE('',(#105),#23,.F.);
#692=ADVANCED_FACE('',(#106),#24,.F.);
#693=ADVANCED_FACE('',(#107),#25,.F.);
#694=ADVANCED_FACE('',(#108),#26,.F.);
#695=ADVANCED_FACE('',(#109),#663,.T.);
#696=ADVANCED_FACE('',(#110),#664,.T.);
#697=ADVANCED_FACE('',(#111),#665,.T.);
#698=ADVANCED_FACE('',(#112),#666,.T.);
#699=CLOSED_SHELL('',(#667,#668,#669,#670,#671,#672,#673,#674,#675,#676,
#677,#678,#679,#680,#681,#682,#683,#684,#685,#686,#687,#688,#689,#690,#691,
#692,#693,#694,#695,#696,#697,#698));
#700=DERIVED_UNIT_ELEMENT(#702,1.);
#701=DERIVED_UNIT_ELEMENT(#1171,-3.);
#702=(
MASS_UNIT()
NAMED_UNIT(*)
SI_UNIT(.KILO.,.GRAM.)
);
#703=DERIVED_UNIT((#700,#701));
#704=MEASURE_REPRESENTATION_ITEM('density measure',
POSITIVE_RATIO_MEASURE(7850.),#703);
#705=PROPERTY_DEFINITION_REPRESENTATION(#710,#707);
#706=PROPERTY_DEFINITION_REPRESENTATION(#711,#708);
#707=REPRESENTATION('material name',(#709),#1166);
#708=REPRESENTATION('density',(#704),#1166);
#709=DESCRIPTIVE_REPRESENTATION_ITEM('Steel','Steel');
#710=PROPERTY_DEFINITION('material property','material name',#1179);
#711=PROPERTY_DEFINITION('material property','density of part',#1179);
#712=AXIS2_PLACEMENT_3D('',#971,#777,#778);
#713=AXIS2_PLACEMENT_3D('',#972,#779,#780);
#714=AXIS2_PLACEMENT_3D('',#981,#785,#786);
#715=AXIS2_PLACEMENT_3D('',#987,#790,#791);
#716=AXIS2_PLACEMENT_3D('',#993,#795,#796);
#717=AXIS2_PLACEMENT_3D('',#996,#799,#800);
#718=AXIS2_PLACEMENT_3D('',#997,#801,#802);
#719=AXIS2_PLACEMENT_3D('',#1007,#807,#808);
#720=AXIS2_PLACEMENT_3D('',#1009,#809,#810);
#721=AXIS2_PLACEMENT_3D('',#1011,#811,#812);
#722=AXIS2_PLACEMENT_3D('',#1013,#813,#814);
#723=AXIS2_PLACEMENT_3D('',#1015,#815,#816);
#724=AXIS2_PLACEMENT_3D('',#1017,#817,#818);
#725=AXIS2_PLACEMENT_3D('',#1019,#819,#820);
#726=AXIS2_PLACEMENT_3D('',#1021,#821,#822);
#727=AXIS2_PLACEMENT_3D('',#1023,#823,#824);
#728=AXIS2_PLACEMENT_3D('',#1025,#825,#826);
#729=AXIS2_PLACEMENT_3D('',#1027,#827,#828);
#730=AXIS2_PLACEMENT_3D('',#1029,#829,#830);
#731=AXIS2_PLACEMENT_3D('',#1030,#831,#832);
#732=AXIS2_PLACEMENT_3D('',#1039,#837,#838);
#733=AXIS2_PLACEMENT_3D('',#1048,#843,#844);
#734=AXIS2_PLACEMENT_3D('',#1057,#849,#850);
#735=AXIS2_PLACEMENT_3D('',#1066,#855,#856);
#736=AXIS2_PLACEMENT_3D('',#1072,#860,#861);
#737=AXIS2_PLACEMENT_3D('',#1078,#865,#866);
#738=AXIS2_PLACEMENT_3D('',#1084,#870,#871);
#739=AXIS2_PLACEMENT_3D('',#1090,#875,#876);
#740=AXIS2_PLACEMENT_3D('',#1100,#881,#882);
#741=AXIS2_PLACEMENT_3D('',#1102,#883,#884);
#742=AXIS2_PLACEMENT_3D('',#1104,#885,#886);
#743=AXIS2_PLACEMENT_3D('',#1106,#887,#888);
#744=AXIS2_PLACEMENT_3D('',#1108,#889,#890);
#745=AXIS2_PLACEMENT_3D('',#1110,#891,#892);
#746=AXIS2_PLACEMENT_3D('',#1111,#893,#894);
#747=AXIS2_PLACEMENT_3D('',#1113,#895,#896);
#748=AXIS2_PLACEMENT_3D('',#1114,#897,#898);
#749=AXIS2_PLACEMENT_3D('',#1116,#899,#900);
#750=AXIS2_PLACEMENT_3D('',#1117,#901,#902);
#751=AXIS2_PLACEMENT_3D('',#1119,#903,#904);
#752=AXIS2_PLACEMENT_3D('',#1120,#905,#906);
#753=AXIS2_PLACEMENT_3D('',#1122,#907,#908);
#754=AXIS2_PLACEMENT_3D('',#1124,#909,#910);
#755=AXIS2_PLACEMENT_3D('',#1126,#911,#912);
#756=AXIS2_PLACEMENT_3D('',#1127,#913,#914);
#757=AXIS2_PLACEMENT_3D('',#1128,#915,#916);
#758=AXIS2_PLACEMENT_3D('',#1129,#917,#918);
#759=AXIS2_PLACEMENT_3D('',#1130,#919,#920);
#760=AXIS2_PLACEMENT_3D('',#1131,#921,#922);
#761=AXIS2_PLACEMENT_3D('',#1132,#923,#924);
#762=AXIS2_PLACEMENT_3D('',#1134,#926,#927);
#763=AXIS2_PLACEMENT_3D('',#1136,#929,#930);
#764=AXIS2_PLACEMENT_3D('',#1138,#932,#933);
#765=AXIS2_PLACEMENT_3D('',#1140,#935,#936);
#766=AXIS2_PLACEMENT_3D('',#1142,#938,#939);
#767=AXIS2_PLACEMENT_3D('',#1144,#941,#942);
#768=AXIS2_PLACEMENT_3D('',#1146,#944,#945);
#769=AXIS2_PLACEMENT_3D('',#1148,#947,#948);
#770=AXIS2_PLACEMENT_3D('',#1150,#950,#951);
#771=AXIS2_PLACEMENT_3D('',#1152,#953,#954);
#772=AXIS2_PLACEMENT_3D('',#1154,#956,#957);
#773=AXIS2_PLACEMENT_3D('',#1156,#959,#960);
#774=AXIS2_PLACEMENT_3D('',#1159,#963,#964);
#775=AXIS2_PLACEMENT_3D('',#1161,#966,#967);
#776=AXIS2_PLACEMENT_3D('',#1163,#969,#970);
#777=DIRECTION('axis',(0.,0.,1.));
#778=DIRECTION('refdir',(1.,0.,0.));
#779=DIRECTION('center_axis',(1.,4.31408307542741E-32,0.));
#780=DIRECTION('ref_axis',(4.31408307542741E-32,-1.,-1.11022302462516E-16));
#781=DIRECTION('',(4.31408307542741E-32,-1.,1.92860773969071E-32));
#782=DIRECTION('',(0.,0.,-1.));
#783=DIRECTION('',(4.31408307542741E-32,-1.,-1.11022302462516E-16));
#784=DIRECTION('',(0.,0.,-1.));
#785=DIRECTION('center_axis',(-5.56077655053925E-32,1.,0.));
#786=DIRECTION('ref_axis',(1.,5.56077655053925E-32,-8.32667268468868E-17));
#787=DIRECTION('',(1.,5.56077655053925E-32,2.46519032881566E-32));
#788=DIRECTION('',(0.,0.,-1.));
#789=DIRECTION('',(1.,5.56077655053925E-32,-8.32667268468868E-17));
#790=DIRECTION('center_axis',(-1.,-4.31408307542741E-32,0.));
#791=DIRECTION('ref_axis',(-4.31408307542741E-32,1.,1.11022302462516E-16));
#792=DIRECTION('',(-4.31408307542741E-32,1.,-1.92860773969071E-32));
#793=DIRECTION('',(0.,0.,-1.));
#794=DIRECTION('',(-4.31408307542741E-32,1.,1.11022302462516E-16));
#795=DIRECTION('center_axis',(5.23852944873328E-32,-1.,0.));
#796=DIRECTION('ref_axis',(-1.,-5.23852944873328E-32,8.32667268468868E-17));
#797=DIRECTION('',(-1.,-5.23852944873328E-32,-2.46519032881566E-32));
#798=DIRECTION('',(-1.,-5.23852944873328E-32,8.32667268468868E-17));
#799=DIRECTION('center_axis',(0.,0.,-1.));
#800=DIRECTION('ref_axis',(-1.,0.,0.));
#801=DIRECTION('center_axis',(6.99498521060028E-17,-0.100089913894375,-0.994978396316532));
#802=DIRECTION('ref_axis',(1.18798951979894E-16,0.994978396316532,-0.100089913894375));
#803=DIRECTION('',(1.18798951979894E-16,0.994978396316532,-0.100089913894375));
#804=DIRECTION('',(1.,-1.28871548957984E-16,8.32667268468868E-17));
#805=DIRECTION('',(1.18798951979894E-16,0.994978396316532,-0.100089913894375));
#806=DIRECTION('',(-1.,1.72563323017096E-31,-2.46519032881566E-32));
#807=DIRECTION('center_axis',(-6.99498521060028E-17,0.100089913894375,0.994978396316532));
#808=DIRECTION('ref_axis',(1.0883450448427E-31,0.994978396316532,-0.100089913894375));
#809=DIRECTION('center_axis',(-6.99498521060028E-17,0.100089913894375,0.994978396316532));
#810=DIRECTION('ref_axis',(-8.54785591832944E-18,0.994978396316532,-0.100089913894375));
#811=DIRECTION('center_axis',(-6.99498521060028E-17,0.100089913894375,0.994978396316532));
#812=DIRECTION('ref_axis',(1.0883450448427E-31,0.994978396316532,-0.100089913894375));
#813=DIRECTION('center_axis',(-6.99498521060028E-17,0.100089913894375,0.994978396316532));
#814=DIRECTION('ref_axis',(9.75138377766703E-32,0.994978396316532,-0.100089913894375));
#815=DIRECTION('center_axis',(-6.99498521060028E-17,0.100089913894375,0.994978396316532));
#816=DIRECTION('ref_axis',(1.0883450448427E-31,0.994978396316532,-0.100089913894375));
#817=DIRECTION('center_axis',(-6.99498521060028E-17,0.100089913894375,0.994978396316532));
#818=DIRECTION('ref_axis',(-8.54785591832944E-18,0.994978396316532,-0.100089913894375));
#819=DIRECTION('center_axis',(-6.99498521060028E-17,0.100089913894375,0.994978396316532));
#820=DIRECTION('ref_axis',(1.0883450448427E-31,0.994978396316532,-0.100089913894375));
#821=DIRECTION('center_axis',(-6.99498521060028E-17,0.100089913894375,0.994978396316532));
#822=DIRECTION('ref_axis',(9.75138377766703E-32,0.994978396316532,-0.100089913894375));
#823=DIRECTION('center_axis',(-6.99498521060028E-17,0.100089913894375,0.994978396316532));
#824=DIRECTION('ref_axis',(1.0883450448427E-31,0.994978396316532,-0.100089913894375));
#825=DIRECTION('center_axis',(-6.99498521060028E-17,0.100089913894375,0.994978396316532));
#826=DIRECTION('ref_axis',(1.0883450448427E-31,0.994978396316532,-0.100089913894375));
#827=DIRECTION('center_axis',(-6.99498521060028E-17,0.100089913894375,0.994978396316532));
#828=DIRECTION('ref_axis',(9.75138377766703E-32,0.994978396316532,-0.100089913894375));
#829=DIRECTION('center_axis',(-6.99498521060028E-17,0.100089913894375,0.994978396316532));
#830=DIRECTION('ref_axis',(9.75138377766703E-32,0.994978396316532,-0.100089913894375));
#831=DIRECTION('center_axis',(0.00313893960123262,-0.999995073516955,1.93633632198508E-32));
#832=DIRECTION('ref_axis',(0.999995073516955,0.00313893960123262,-8.29178243329491E-17));
#833=DIRECTION('',(-0.999995073516955,-0.00313893960123262,-2.45912440088794E-32));
#834=DIRECTION('',(-2.46519032881566E-32,1.92860773969071E-32,1.));
#835=DIRECTION('',(0.999995073516955,0.00313893960123262,-8.29178243329491E-17));
#836=DIRECTION('',(-2.46519032881566E-32,1.92860773969071E-32,1.));
#837=DIRECTION('center_axis',(0.00313893960123262,-0.999995073516955,1.93633632198508E-32));
#838=DIRECTION('ref_axis',(0.999995073516955,0.00313893960123262,-8.29178243329491E-17));
#839=DIRECTION('',(-0.999995073516955,-0.00313893960123262,-2.45912440088794E-32));
#840=DIRECTION('',(-2.46519032881566E-32,1.92860773969071E-32,1.));
#841=DIRECTION('',(0.999995073516955,0.00313893960123262,-8.29178243329491E-17));
#842=DIRECTION('',(-2.46519032881566E-32,1.92860773969071E-32,1.));
#843=DIRECTION('center_axis',(0.00313893960123262,-0.999995073516955,1.93633632198508E-32));
#844=DIRECTION('ref_axis',(0.999995073516955,0.00313893960123262,-8.29178243329491E-17));
#845=DIRECTION('',(-0.999995073516955,-0.00313893960123262,-2.45912440088794E-32));
#846=DIRECTION('',(-2.46519032881566E-32,1.92860773969071E-32,1.));
#847=DIRECTION('',(0.999995073516955,0.00313893960123262,-8.29178243329491E-17));
#848=DIRECTION('',(-2.46519032881566E-32,1.92860773969071E-32,1.));
#849=DIRECTION('center_axis',(0.00313893960123262,-0.999995073516955,1.93633632198508E-32));
#850=DIRECTION('ref_axis',(0.999995073516955,0.00313893960123262,-8.29178243329491E-17));
#851=DIRECTION('',(-0.999995073516955,-0.00313893960123262,-2.45912440088794E-32));
#852=DIRECTION('',(-2.46519032881566E-32,1.92860773969071E-32,1.));
#853=DIRECTION('',(0.999995073516955,0.00313893960123262,-8.29178243329491E-17));
#854=DIRECTION('',(-2.46519032881566E-32,1.92860773969071E-32,1.));
#855=DIRECTION('center_axis',(1.,-1.29422492262822E-31,2.46519032881566E-32));
#856=DIRECTION('ref_axis',(1.29422492262822E-31,1.,1.11022302462516E-16));
#857=DIRECTION('',(-1.29422492262822E-31,-1.,1.92860773969071E-32));
#858=DIRECTION('',(1.29422492262822E-31,1.,1.11022302462516E-16));
#859=DIRECTION('',(-2.46519032881566E-32,1.92860773969071E-32,1.));
#860=DIRECTION('center_axis',(1.20178028529764E-31,1.,-1.92860773969071E-32));
#861=DIRECTION('ref_axis',(-1.,1.20178028529764E-31,8.32667268468867E-17));
#862=DIRECTION('',(1.,-1.20178028529764E-31,2.46519032881566E-32));
#863=DIRECTION('',(-1.,1.20178028529764E-31,8.32667268468867E-17));
#864=DIRECTION('',(-2.46519032881566E-32,1.92860773969071E-32,1.));
#865=DIRECTION('center_axis',(-1.,1.29422492262822E-31,-2.46519032881566E-32));
#866=DIRECTION('ref_axis',(-1.29422492262822E-31,-1.,-1.11022302462516E-16));
#867=DIRECTION('',(1.29422492262822E-31,1.,-1.92860773969071E-32));
#868=DIRECTION('',(-1.29422492262822E-31,-1.,-1.11022302462516E-16));
#869=DIRECTION('',(-2.46519032881566E-32,1.92860773969071E-32,1.));
#870=DIRECTION('center_axis',(0.00313893960123262,-0.999995073516955,1.93633632198508E-32));
#871=DIRECTION('ref_axis',(0.999995073516955,0.00313893960123262,-8.29178243329491E-17));
#872=DIRECTION('',(-0.999995073516955,-0.00313893960123262,-2.45912440088794E-32));
#873=DIRECTION('',(0.999995073516955,0.00313893960123262,-8.29178243329491E-17));
#874=DIRECTION('',(-2.46519032881566E-32,1.92860773969071E-32,1.));
#875=DIRECTION('center_axis',(8.32667268468867E-17,-1.11022302462516E-16,
1.));
#876=DIRECTION('ref_axis',(-1.,1.20178028529764E-31,8.32667268468867E-17));
#877=DIRECTION('',(-1.,1.20178028529764E-31,8.32667268468867E-17));
#878=DIRECTION('',(-1.29422492262822E-31,-1.,-1.11022302462516E-16));
#879=DIRECTION('',(1.,-1.20178028529764E-31,-8.32667268468867E-17));
#880=DIRECTION('',(1.29422492262822E-31,1.,1.11022302462516E-16));
#881=DIRECTION('center_axis',(-8.32667268468868E-17,1.11022302462516E-16,
-1.));
#882=DIRECTION('ref_axis',(-1.,1.20178028529764E-31,8.32667268468867E-17));
#883=DIRECTION('center_axis',(-8.32667268468867E-17,1.11022302462516E-16,
-1.));
#884=DIRECTION('ref_axis',(-1.,1.20178028529764E-31,8.32667268468867E-17));
#885=DIRECTION('center_axis',(-8.32667268468868E-17,1.11022302462516E-16,
-1.));
#886=DIRECTION('ref_axis',(-1.,1.20178028529764E-31,8.32667268468867E-17));
#887=DIRECTION('center_axis',(-8.32667268468868E-17,1.11022302462516E-16,
-1.));
#888=DIRECTION('ref_axis',(-1.,1.20178028529764E-31,8.32667268468867E-17));
#889=DIRECTION('center_axis',(-8.32667268468868E-17,1.11022302462516E-16,
-1.));
#890=DIRECTION('ref_axis',(-1.,1.20178028529764E-31,8.32667268468867E-17));
#891=DIRECTION('center_axis',(-8.32667268468867E-17,1.11022302462516E-16,
-1.));
#892=DIRECTION('ref_axis',(-1.,1.20178028529764E-31,8.32667268468867E-17));
#893=DIRECTION('center_axis',(-8.32667268468867E-17,1.11022302462516E-16,
-1.));
#894=DIRECTION('ref_axis',(-1.,1.20178028529764E-31,8.32667268468867E-17));
#895=DIRECTION('center_axis',(-8.32667268468868E-17,1.11022302462516E-16,
-1.));
#896=DIRECTION('ref_axis',(-1.,1.20178028529764E-31,8.32667268468867E-17));
#897=DIRECTION('center_axis',(-8.32667268468868E-17,1.11022302462516E-16,
-1.));
#898=DIRECTION('ref_axis',(-1.,1.20178028529764E-31,8.32667268468867E-17));
#899=DIRECTION('center_axis',(-8.32667268468868E-17,1.11022302462516E-16,
-1.));
#900=DIRECTION('ref_axis',(-1.,1.20178028529764E-31,8.32667268468867E-17));
#901=DIRECTION('center_axis',(-8.32667268468868E-17,1.11022302462516E-16,
-1.));
#902=DIRECTION('ref_axis',(-1.,1.20178028529764E-31,8.32667268468867E-17));
#903=DIRECTION('center_axis',(-8.32667268468868E-17,1.11022302462516E-16,
-1.));
#904=DIRECTION('ref_axis',(-1.,1.20178028529764E-31,8.32667268468867E-17));
#905=DIRECTION('center_axis',(-8.32667268468868E-17,1.11022302462516E-16,
-1.));
#906=DIRECTION('ref_axis',(-1.,1.20178028529764E-31,8.32667268468867E-17));
#907=DIRECTION('center_axis',(-8.32667268468868E-17,1.11022302462516E-16,
-1.));
#908=DIRECTION('ref_axis',(-1.,1.20178028529764E-31,8.32667268468867E-17));
#909=DIRECTION('center_axis',(-8.32667268468868E-17,1.11022302462516E-16,
-1.));
#910=DIRECTION('ref_axis',(-1.,1.20178028529764E-31,8.32667268468868E-17));
#911=DIRECTION('center_axis',(-8.32667268468867E-17,1.11022302462516E-16,
-1.));
#912=DIRECTION('ref_axis',(-1.,1.20178028529764E-31,8.32667268468867E-17));
#913=DIRECTION('center_axis',(-2.46519032881566E-32,1.92860773969071E-32,
1.));
#914=DIRECTION('ref_axis',(1.,-1.72563323017096E-31,2.46519032881566E-32));
#915=DIRECTION('center_axis',(2.46519032881566E-32,-1.92860773969071E-32,
-1.));
#916=DIRECTION('ref_axis',(-1.,1.69481835106077E-31,-2.46519032881566E-32));
#917=DIRECTION('center_axis',(2.46519032881566E-32,-1.92860773969071E-32,
-1.));
#918=DIRECTION('ref_axis',(-1.,1.69481835106077E-31,-2.46519032881566E-32));
#919=DIRECTION('center_axis',(2.46519032881566E-32,-1.92860773969071E-32,
-1.));
#920=DIRECTION('ref_axis',(-1.,1.69481835106077E-31,-2.46519032881566E-32));
#921=DIRECTION('center_axis',(2.46519032881566E-32,-1.92860773969071E-32,
-1.));
#922=DIRECTION('ref_axis',(-1.,1.69481835106077E-31,7.40148683083437E-17));
#923=DIRECTION('center_axis',(2.46519032881566E-32,-1.92860773969071E-32,
-1.));
#924=DIRECTION('ref_axis',(-1.,1.69481835106077E-31,-2.46519032881566E-32));
#925=DIRECTION('',(2.46519032881566E-32,-1.92860773969071E-32,-1.));
#926=DIRECTION('center_axis',(2.46519032881566E-32,-1.92860773969071E-32,
-1.));
#927=DIRECTION('ref_axis',(-1.,1.69481835106077E-31,-2.46519032881566E-32));
#928=DIRECTION('',(2.46519032881566E-32,-1.92860773969071E-32,-1.));
#929=DIRECTION('center_axis',(2.46519032881566E-32,-1.92860773969071E-32,
-1.));
#930=DIRECTION('ref_axis',(-1.,1.69481835106077E-31,-2.46519032881566E-32));
#931=DIRECTION('',(2.46519032881566E-32,-1.92860773969071E-32,-1.));
#932=DIRECTION('center_axis',(2.46519032881566E-32,-1.92860773969071E-32,
-1.));
#933=DIRECTION('ref_axis',(-1.,1.69481835106077E-31,-2.46519032881566E-32));
#934=DIRECTION('',(2.46519032881566E-32,-1.92860773969071E-32,-1.));
#935=DIRECTION('center_axis',(2.46519032881566E-32,-1.92860773969071E-32,
-1.));
#936=DIRECTION('ref_axis',(-1.,1.69481835106077E-31,-2.46519032881566E-32));
#937=DIRECTION('',(2.46519032881566E-32,-1.92860773969071E-32,-1.));
#938=DIRECTION('center_axis',(2.46519032881566E-32,-1.92860773969071E-32,
-1.));
#939=DIRECTION('ref_axis',(-1.,1.69481835106077E-31,-2.46519032881566E-32));
#940=DIRECTION('',(2.46519032881566E-32,-1.92860773969071E-32,-1.));
#941=DIRECTION('center_axis',(2.46519032881566E-32,-1.92860773969071E-32,
-1.));
#942=DIRECTION('ref_axis',(-1.,1.69481835106077E-31,-2.46519032881566E-32));
#943=DIRECTION('',(2.46519032881566E-32,-1.92860773969071E-32,-1.));
#944=DIRECTION('center_axis',(2.46519032881566E-32,-1.92860773969071E-32,
-1.));
#945=DIRECTION('ref_axis',(-1.,1.69481835106077E-31,-2.46519032881566E-32));
#946=DIRECTION('',(2.46519032881566E-32,-1.92860773969071E-32,-1.));
#947=DIRECTION('center_axis',(2.46519032881566E-32,-1.92860773969071E-32,
-1.));
#948=DIRECTION('ref_axis',(-1.,1.69481835106077E-31,-2.46519032881566E-32));
#949=DIRECTION('',(2.46519032881566E-32,-1.92860773969071E-32,-1.));
#950=DIRECTION('center_axis',(-9.25185853854297E-17,-1.92860773969071E-32,
-1.));
#951=DIRECTION('ref_axis',(-1.,1.69481835106077E-31,9.25185853854297E-17));
#952=DIRECTION('',(-9.25185853854297E-17,-1.92860773969071E-32,-1.));
#953=DIRECTION('center_axis',(2.46519032881566E-32,-1.92860773969071E-32,
-1.));
#954=DIRECTION('ref_axis',(-1.,1.69481835106077E-31,-2.46519032881566E-32));
#955=DIRECTION('',(2.46519032881566E-32,-1.92860773969071E-32,-1.));
#956=DIRECTION('center_axis',(-7.40148683083437E-17,-1.92860773969071E-32,
-1.));
#957=DIRECTION('ref_axis',(-1.,1.69481835106077E-31,7.40148683083437E-17));
#958=DIRECTION('',(-7.40148683083437E-17,-1.92860773969071E-32,-1.));
#959=DIRECTION('center_axis',(-1.,1.72563323017096E-31,-2.46519032881566E-32));
#960=DIRECTION('ref_axis',(-1.72563323017096E-31,-1.,1.92860773969071E-32));
#961=DIRECTION('',(-2.46519032881566E-32,1.92860773969071E-32,1.));
#962=DIRECTION('',(-2.46519032881566E-32,1.92860773969071E-32,1.));
#963=DIRECTION('center_axis',(1.72563323017096E-31,1.,-1.92860773969071E-32));
#964=DIRECTION('ref_axis',(-1.,1.72563323017096E-31,-2.46519032881566E-32));
#965=DIRECTION('',(-2.46519032881566E-32,1.92860773969071E-32,1.));
#966=DIRECTION('center_axis',(1.,-1.72563323017096E-31,2.46519032881566E-32));
#967=DIRECTION('ref_axis',(1.72563323017096E-31,1.,-1.92860773969071E-32));
#968=DIRECTION('',(-2.46519032881566E-32,1.92860773969071E-32,1.));
#969=DIRECTION('center_axis',(-1.72563323017096E-31,-1.,1.92860773969071E-32));
#970=DIRECTION('ref_axis',(1.,-1.72563323017096E-31,2.46519032881566E-32));
#971=CARTESIAN_POINT('',(0.,0.,0.));
#972=CARTESIAN_POINT('Origin',(6.0236221194514,-1.41664926508738E-7,6.08798061411966));
#973=CARTESIAN_POINT('',(6.0236221194514,-1.41664926508738E-7,6.08798061411966));
#974=CARTESIAN_POINT('',(6.0236221194514,-2.02755919678304,6.08798061411966));
#975=CARTESIAN_POINT('',(6.0236221194514,-0.338625438546005,6.08798061411966));
#976=CARTESIAN_POINT('',(6.0236221194514,-1.41664926508738E-7,5.96593337002517));
#977=CARTESIAN_POINT('',(6.0236221194514,-1.41664926508738E-7,6.08798061411966));
#978=CARTESIAN_POINT('',(6.0236221194514,-2.02755919678304,5.96593337002517));
#979=CARTESIAN_POINT('',(6.0236221194514,-1.41664926508738E-7,5.96593337002517));
#980=CARTESIAN_POINT('',(6.0236221194514,-2.02755919678304,6.08798061411966));
#981=CARTESIAN_POINT('Origin',(7.22073019049931E-8,-1.41664926508738E-7,
6.08798061411966));
#982=CARTESIAN_POINT('',(7.22073019049931E-8,-1.41664926508738E-7,6.08798061411966));
#983=CARTESIAN_POINT('',(2.02571856076699,-1.41664926508738E-7,6.08798061411966));
#984=CARTESIAN_POINT('',(7.22073019049931E-8,-1.41664926508738E-7,5.96593337002517));
#985=CARTESIAN_POINT('',(7.22073019049931E-8,-1.41664926508738E-7,6.08798061411966));
#986=CARTESIAN_POINT('',(7.22073019049931E-8,-1.41664926508738E-7,5.96593337002517));
#987=CARTESIAN_POINT('Origin',(7.22073019049931E-8,-2.02755919678304,6.08798061411966));
#988=CARTESIAN_POINT('',(7.22073019049931E-8,-2.02755919678304,6.08798061411966));
#989=CARTESIAN_POINT('',(7.22073019049931E-8,-1.35240496610506,6.08798061411966));
#990=CARTESIAN_POINT('',(7.22073019049931E-8,-2.02755919678304,5.96593337002517));
#991=CARTESIAN_POINT('',(7.22073019049931E-8,-2.02755919678304,6.08798061411966));
#992=CARTESIAN_POINT('',(7.22073019049931E-8,-2.02755919678304,5.96593337002517));
#993=CARTESIAN_POINT('Origin',(6.0236221194514,-2.02755919678304,6.08798061411966));
#994=CARTESIAN_POINT('',(5.03752958438904,-2.02755919678304,6.08798061411966));
#995=CARTESIAN_POINT('',(6.0236221194514,-2.02755919678304,5.96593337002517));
#996=CARTESIAN_POINT('Origin',(3.01181109582935,-1.01377966922398,5.96593337002517));
#997=CARTESIAN_POINT('Origin',(-4.08868106090954,-3.59894364881291,5.96987037789919));
#998=CARTESIAN_POINT('',(-4.08868106090954,-3.59894364881291,5.96987037789919));
#999=CARTESIAN_POINT('',(-4.08868106090954,2.24444217795874,5.3820546158501));
#1000=CARTESIAN_POINT('',(-4.08868106090954,-3.59894364881291,5.96987037789919));
#1001=CARTESIAN_POINT('',(12.1915551595629,2.24444217795874,5.3820546158501));
#1002=CARTESIAN_POINT('',(-4.08868106090954,2.24444217795874,5.3820546158501));
#1003=CARTESIAN_POINT('',(12.1915551595629,-3.59894364881291,5.96987037789919));
#1004=CARTESIAN_POINT('',(12.1915551595629,-3.59894364881291,5.96987037789919));
#1005=CARTESIAN_POINT('',(12.1915551595629,-3.59894364881291,5.96987037789919));
#1006=CARTESIAN_POINT('',(-3.86943696642136,2.08819808347056,5.39777200028952));
#1007=CARTESIAN_POINT('Origin',(-3.93242909240561,2.08819808347056,5.39777200028952));
#1008=CARTESIAN_POINT('',(-0.119673186893801,2.08819808347056,5.39777200028952));
#1009=CARTESIAN_POINT('Origin',(-0.182665312878053,2.08819808347056,5.39777200028952));
#1010=CARTESIAN_POINT('',(7.4735984666495,2.08819808347056,5.39777200028952));
#1011=CARTESIAN_POINT('Origin',(7.41060634066525,2.08819808347056,5.39777200028952));
#1012=CARTESIAN_POINT('',(12.0983071280668,-3.44270349133259,5.95415338950332));
#1013=CARTESIAN_POINT('Origin',(12.0353150020826,-3.44270349133259,5.95415338950332));
#1014=CARTESIAN_POINT('',(3.69258665562588,2.08819808347056,5.39777200028952));
#1015=CARTESIAN_POINT('Origin',(3.62959452964163,2.08819808347056,5.39777200028952));
#1016=CARTESIAN_POINT('',(-0.0884251553977364,-3.44270349133259,5.95415338950332));
#1017=CARTESIAN_POINT('Origin',(-0.151417281381988,-3.44270349133259,5.95415338950332));
#1018=CARTESIAN_POINT('',(-3.86943696642136,-0.661628688182985,5.67439099605683));
#1019=CARTESIAN_POINT('Origin',(-3.93242909240561,-0.661628688182984,5.67439099605683));
#1020=CARTESIAN_POINT('',(3.69258665562589,-3.44270349133259,5.95415338950332));
#1021=CARTESIAN_POINT('Origin',(3.62959452964163,-3.44270349133259,5.95415338950332));
#1022=CARTESIAN_POINT('',(9.97344098633455,2.08819808347056,5.39777200028952));
#1023=CARTESIAN_POINT('Origin',(9.91044886035029,2.08819808347056,5.39777200028952));
#1024=CARTESIAN_POINT('',(12.0983071280668,-0.661628688182982,5.67439099605683));
#1025=CARTESIAN_POINT('Origin',(12.0353150020826,-0.661628688182982,5.67439099605683));
#1026=CARTESIAN_POINT('',(7.50484649814557,-3.44270349133259,5.95415338950332));
#1027=CARTESIAN_POINT('Origin',(7.44185437216132,-3.44270349133259,5.95415338950332));
#1028=CARTESIAN_POINT('',(-3.86943696642136,-3.44270349133259,5.95415338950332));
#1029=CARTESIAN_POINT('Origin',(-3.93242909240561,-3.44270349133259,5.95415338950332));
#1030=CARTESIAN_POINT('Origin',(7.46311412067743,2.05339950628401,6.08798061411966));
#1031=CARTESIAN_POINT('',(9.85367732767571,2.0609033767714,6.08798061411966));
#1032=CARTESIAN_POINT('',(7.46311412067743,2.05339950628401,6.08798061411966));
#1033=CARTESIAN_POINT('',(5.75300674055279,2.04803155606106,6.08798061411966));
#1034=CARTESIAN_POINT('',(9.8536773276757,2.0609033767714,6.3242010865606));
#1035=CARTESIAN_POINT('',(9.85367732767571,2.0609033767714,6.08798061411966));
#1036=CARTESIAN_POINT('',(7.46311412067743,2.05339950628401,6.32420108656061));
#1037=CARTESIAN_POINT('',(-3.85826770182079,2.01786219746674,6.32420108656061));
#1038=CARTESIAN_POINT('',(7.46311412067743,2.05339950628401,6.08798061411966));
#1039=CARTESIAN_POINT('Origin',(3.67186981645524,2.0414989607717,6.08798061411966));
#1040=CARTESIAN_POINT('',(7.35831805555302,2.05307055614457,6.08798061411966));
#1041=CARTESIAN_POINT('',(3.67186981645524,2.0414989607717,6.08798061411966));
#1042=CARTESIAN_POINT('',(3.85738458844169,2.04208128330491,6.08798061411966));
#1043=CARTESIAN_POINT('',(7.35831805555302,2.05307055614457,6.32420108656061));
#1044=CARTESIAN_POINT('',(7.35831805555302,2.05307055614457,6.08798061411966));
#1045=CARTESIAN_POINT('',(3.67186981645524,2.0414989607717,6.32420108656061));
#1046=CARTESIAN_POINT('',(-3.85826770182079,2.01786219746674,6.32420108656061));
#1047=CARTESIAN_POINT('',(3.67186981645524,2.0414989607717,6.08798061411966));
#1048=CARTESIAN_POINT('Origin',(-0.159880025106299,2.02947127019779,6.08798061411966));
#1049=CARTESIAN_POINT('',(3.58761324590676,2.0412344831828,6.08798061411966));
#1050=CARTESIAN_POINT('',(-0.159880025106299,2.02947127019779,6.08798061411966));
#1051=CARTESIAN_POINT('',(1.94150966766092,2.03606743801795,6.08798061411966));
#1052=CARTESIAN_POINT('',(3.58761324590676,2.0412344831828,6.32420108656061));
#1053=CARTESIAN_POINT('',(3.58761324590676,2.0412344831828,6.08798061411966));
#1054=CARTESIAN_POINT('',(-0.159880025106299,2.02947127019779,6.32420108656061));
#1055=CARTESIAN_POINT('',(-3.85826770182079,2.01786219746674,6.32420108656061));
#1056=CARTESIAN_POINT('',(-0.159880025106299,2.02947127019779,6.08798061411966));
#1057=CARTESIAN_POINT('Origin',(-3.85826770182079,2.01786219746674,6.08798061411966));
#1058=CARTESIAN_POINT('',(-0.205081473622203,2.02932938488202,6.08798061411966));
#1059=CARTESIAN_POINT('',(-3.85826770182079,2.01786219746674,6.08798061411966));
#1060=CARTESIAN_POINT('',(0.0923158293036725,2.03026290165243,6.08798061411966));
#1061=CARTESIAN_POINT('',(-0.205081473622203,2.02932938488202,6.32420108656061));
#1062=CARTESIAN_POINT('',(-0.205081473622203,2.02932938488202,6.08798061411966));
#1063=CARTESIAN_POINT('',(-3.85826770182079,2.01786219746674,6.32420108656061));
#1064=CARTESIAN_POINT('',(-3.85826770182079,2.01786219746674,6.32420108656061));
#1065=CARTESIAN_POINT('',(-3.85826770182079,2.01786219746674,6.08798061411966));
#1066=CARTESIAN_POINT('Origin',(-3.85826770182079,-3.37583867030724,6.08798061411966));
#1067=CARTESIAN_POINT('',(-3.85826770182079,-3.37583867030724,6.08798061411966));
#1068=CARTESIAN_POINT('',(-3.85826770182079,-2.02654470286716,6.08798061411966));
#1069=CARTESIAN_POINT('',(-3.85826770182079,-3.37583867030724,6.32420108656061));
#1070=CARTESIAN_POINT('',(-3.85826770182079,-3.37583867030724,6.32420108656061));
#1071=CARTESIAN_POINT('',(-3.85826770182079,-3.37583867030724,6.08798061411966));
#1072=CARTESIAN_POINT('Origin',(11.9108706319057,-3.37583867030724,6.08798061411966));
#1073=CARTESIAN_POINT('',(11.9108706319057,-3.37583867030724,6.08798061411966));
#1074=CARTESIAN_POINT('',(7.98115384061621,-3.37583867030724,6.08798061411966));
#1075=CARTESIAN_POINT('',(11.9108706319057,-3.37583867030724,6.3242010865606));
#1076=CARTESIAN_POINT('',(11.9108706319057,-3.37583867030724,6.3242010865606));
#1077=CARTESIAN_POINT('',(11.9108706319057,-3.37583867030724,6.08798061411966));
#1078=CARTESIAN_POINT('Origin',(11.9108706319057,2.06736081411389,6.08798061411966));
#1079=CARTESIAN_POINT('',(11.9108706319057,2.06736081411389,6.08798061411966));
#1080=CARTESIAN_POINT('',(11.9108706319057,0.695055039343403,6.08798061411966));
#1081=CARTESIAN_POINT('',(11.9108706319057,2.06736081411389,6.3242010865606));
#1082=CARTESIAN_POINT('',(11.9108706319057,2.06736081411389,6.3242010865606));
#1083=CARTESIAN_POINT('',(11.9108706319057,2.06736081411389,6.08798061411966));
#1084=CARTESIAN_POINT('Origin',(9.96739062631903,2.06126031770616,6.08798061411966));
#1085=CARTESIAN_POINT('',(9.96739062631903,2.06126031770616,6.08798061411966));
#1086=CARTESIAN_POINT('',(7.00514499337358,2.05196196177213,6.08798061411966));
#1087=CARTESIAN_POINT('',(9.96739062631903,2.06126031770616,6.3242010865606));
#1088=CARTESIAN_POINT('',(-3.85826770182079,2.01786219746674,6.32420108656061));
#1089=CARTESIAN_POINT('',(9.96739062631903,2.06126031770616,6.08798061411966));
#1090=CARTESIAN_POINT('Origin',(4.05143704932668,-0.677250735427083,6.32420108656061));
#1091=CARTESIAN_POINT('',(12.1915551595629,2.24444217795874,6.3242010865606));
#1092=CARTESIAN_POINT('',(-4.08868106090954,2.24444217795874,6.32420108656061));
#1093=CARTESIAN_POINT('',(12.1915551595629,2.24444217795874,6.3242010865606));
#1094=CARTESIAN_POINT('',(-4.08868106090954,-3.59894364881291,6.32420108656061));
#1095=CARTESIAN_POINT('',(-4.08868106090954,2.24444217795874,6.32420108656061));
#1096=CARTESIAN_POINT('',(12.1915551595629,-3.59894364881291,6.3242010865606));
#1097=CARTESIAN_POINT('',(-4.08868106090954,-3.59894364881291,6.32420108656061));
#1098=CARTESIAN_POINT('',(12.1915551595629,-3.59894364881291,6.3242010865606));
#1099=CARTESIAN_POINT('',(-3.86943696642136,-0.661628688182985,6.32420108656061));
#1100=CARTESIAN_POINT('Origin',(-3.93242909240561,-0.661628688182985,6.32420108656061));
#1101=CARTESIAN_POINT('',(12.0983071280668,-0.661628688182982,6.3242010865606));
#1102=CARTESIAN_POINT('Origin',(12.0353150020826,-0.661628688182982,6.3242010865606));
#1103=CARTESIAN_POINT('',(7.50484649814557,-3.44270349133259,6.3242010865606));
#1104=CARTESIAN_POINT('Origin',(7.44185437216132,-3.44270349133259,6.3242010865606));
#1105=CARTESIAN_POINT('',(3.69258665562589,-3.44270349133259,6.3242010865606));
#1106=CARTESIAN_POINT('Origin',(3.62959452964164,-3.44270349133259,6.3242010865606));
#1107=CARTESIAN_POINT('',(-3.86943696642136,-3.44270349133259,6.32420108656061));
#1108=CARTESIAN_POINT('Origin',(-3.93242909240561,-3.44270349133259,6.32420108656061));
#1109=CARTESIAN_POINT('',(9.97344098633455,2.08819808347056,6.32420108656061));
#1110=CARTESIAN_POINT('Origin',(9.9104488603503,2.08819808347056,6.3242010865606));
#1111=CARTESIAN_POINT('Origin',(9.9104488603503,2.08819808347056,6.3242010865606));
#1112=CARTESIAN_POINT('',(-0.119673186893798,2.08819808347056,6.32420108656061));
#1113=CARTESIAN_POINT('Origin',(-0.18266531287805,2.08819808347056,6.32420108656061));
#1114=CARTESIAN_POINT('Origin',(-0.18266531287805,2.08819808347056,6.32420108656061));
#1115=CARTESIAN_POINT('',(3.69258665562589,2.08819808347056,6.32420108656061));
#1116=CARTESIAN_POINT('Origin',(3.62959452964163,2.08819808347056,6.32420108656061));
#1117=CARTESIAN_POINT('Origin',(3.62959452964163,2.08819808347056,6.32420108656061));
#1118=CARTESIAN_POINT('',(7.47359846664951,2.08819808347056,6.32420108656061));
#1119=CARTESIAN_POINT('Origin',(7.41060634066526,2.08819808347056,6.32420108656061));
#1120=CARTESIAN_POINT('Origin',(7.41060634066526,2.08819808347056,6.32420108656061));
#1121=CARTESIAN_POINT('',(-3.86943696642136,2.08819808347056,6.32420108656061));
#1122=CARTESIAN_POINT('Origin',(-3.93242909240561,2.08819808347056,6.32420108656061));
#1123=CARTESIAN_POINT('',(-0.0884251553977328,-3.44270349133259,6.32420108656061));
#1124=CARTESIAN_POINT('Origin',(-0.151417281381985,-3.44270349133259,6.32420108656061));
#1125=CARTESIAN_POINT('',(12.0983071280668,-3.44270349133259,6.3242010865606));
#1126=CARTESIAN_POINT('Origin',(12.0353150020826,-3.44270349133259,6.3242010865606));
#1127=CARTESIAN_POINT('Origin',(4.05143704932668,-0.677250735427083,6.08798061411966));
#1128=CARTESIAN_POINT('Origin',(9.9104488603503,2.08819808347056,6.08798061411966));
#1129=CARTESIAN_POINT('Origin',(7.41060634066525,2.08819808347056,6.08798061411966));
#1130=CARTESIAN_POINT('Origin',(3.62959452964163,2.08819808347056,6.08798061411966));
#1131=CARTESIAN_POINT('Origin',(-0.18266531287805,2.08819808347056,6.08798061411966));
#1132=CARTESIAN_POINT('Origin',(7.41060634066525,2.08819808347056,6.08798061411966));
#1133=CARTESIAN_POINT('',(7.47359846664951,2.08819808347056,6.08798061411966));
#1134=CARTESIAN_POINT('Origin',(7.44185437216132,-3.44270349133259,6.08798061411966));
#1135=CARTESIAN_POINT('',(7.50484649814557,-3.44270349133259,6.08798061411966));
#1136=CARTESIAN_POINT('Origin',(-3.93242909240561,-3.44270349133259,6.08798061411966));
#1137=CARTESIAN_POINT('',(-3.86943696642136,-3.44270349133259,6.08798061411966));
#1138=CARTESIAN_POINT('Origin',(-3.93242909240561,2.08819808347056,6.08798061411966));
#1139=CARTESIAN_POINT('',(-3.86943696642136,2.08819808347056,6.08798061411966));
#1140=CARTESIAN_POINT('Origin',(12.0353150020826,-3.44270349133259,6.08798061411966));
#1141=CARTESIAN_POINT('',(12.0983071280668,-3.44270349133259,6.08798061411966));
#1142=CARTESIAN_POINT('Origin',(3.62959452964163,2.08819808347056,6.08798061411966));
#1143=CARTESIAN_POINT('',(3.69258665562589,2.08819808347056,6.08798061411966));
#1144=CARTESIAN_POINT('Origin',(9.9104488603503,2.08819808347056,6.08798061411966));
#1145=CARTESIAN_POINT('',(9.97344098633455,2.08819808347056,6.08798061411966));
#1146=CARTESIAN_POINT('Origin',(3.62959452964164,-3.44270349133259,6.08798061411966));
#1147=CARTESIAN_POINT('',(3.69258665562589,-3.44270349133259,6.08798061411966));
#1148=CARTESIAN_POINT('Origin',(-3.93242909240561,-0.661628688182985,6.08798061411966));
#1149=CARTESIAN_POINT('',(-3.86943696642136,-0.661628688182985,6.08798061411966));
#1150=CARTESIAN_POINT('Origin',(-0.151417281381986,-3.44270349133259,6.08798061411966));
#1151=CARTESIAN_POINT('',(-0.0884251553977335,-3.44270349133259,6.08798061411966));
#1152=CARTESIAN_POINT('Origin',(12.0353150020826,-0.661628688182982,6.08798061411966));
#1153=CARTESIAN_POINT('',(12.0983071280668,-0.661628688182982,6.08798061411966));
#1154=CARTESIAN_POINT('Origin',(-0.18266531287805,2.08819808347056,6.08798061411966));
#1155=CARTESIAN_POINT('',(-0.119673186893798,2.08819808347056,6.08798061411966));
#1156=CARTESIAN_POINT('Origin',(-4.08868106090954,2.24444217795874,5.96987037789919));
#1157=CARTESIAN_POINT('',(-4.08868106090954,-3.59894364881291,5.96987037789919));
#1158=CARTESIAN_POINT('',(-4.08868106090954,2.24444217795874,5.96987037789919));
#1159=CARTESIAN_POINT('Origin',(12.1915551595629,2.24444217795874,5.96987037789919));
#1160=CARTESIAN_POINT('',(12.1915551595629,2.24444217795874,5.96987037789919));
#1161=CARTESIAN_POINT('Origin',(12.1915551595629,-3.59894364881291,5.96987037789919));
#1162=CARTESIAN_POINT('',(12.1915551595629,-3.59894364881291,5.96987037789919));
#1163=CARTESIAN_POINT('Origin',(-4.08868106090954,-3.59894364881291,5.96987037789919));
#1164=UNCERTAINTY_MEASURE_WITH_UNIT(LENGTH_MEASURE(0.000393700787401575),
#1169,'DISTANCE_ACCURACY_VALUE',
'Maximum model space distance between geometric entities at asserted c
onnectivities');
#1165=UNCERTAINTY_MEASURE_WITH_UNIT(LENGTH_MEASURE(0.000393700787401575),
#1169,'DISTANCE_ACCURACY_VALUE',
'Maximum model space distance between geometric entities at asserted c
onnectivities');
#1166=(
GEOMETRIC_REPRESENTATION_CONTEXT(3)
GLOBAL_UNCERTAINTY_ASSIGNED_CONTEXT((#1164))
GLOBAL_UNIT_ASSIGNED_CONTEXT((#1169,#1173,#1174))
REPRESENTATION_CONTEXT('','3D')
);
#1167=(
GEOMETRIC_REPRESENTATION_CONTEXT(3)
GLOBAL_UNCERTAINTY_ASSIGNED_CONTEXT((#1165))
GLOBAL_UNIT_ASSIGNED_CONTEXT((#1169,#1173,#1174))
REPRESENTATION_CONTEXT('','3D')
);
#1168=DIMENSIONAL_EXPONENTS(1.,0.,0.,0.,0.,0.,0.);
#1169=(
CONVERSION_BASED_UNIT('inch',#1172)
LENGTH_UNIT()
NAMED_UNIT(#1168)
);
#1170=(
LENGTH_UNIT()
NAMED_UNIT(*)
SI_UNIT(.MILLI.,.METRE.)
);
#1171=(
LENGTH_UNIT()
NAMED_UNIT(*)
SI_UNIT($,.METRE.)
);
#1172=LENGTH_MEASURE_WITH_UNIT(LENGTH_MEASURE(25.4),#1170);
#1173=(
NAMED_UNIT(*)
PLANE_ANGLE_UNIT()
SI_UNIT($,.RADIAN.)
);
#1174=(
NAMED_UNIT(*)
SI_UNIT($,.STERADIAN.)
SOLID_ANGLE_UNIT()
);
#1175=SHAPE_DEFINITION_REPRESENTATION(#1176,#1177);
#1176=PRODUCT_DEFINITION_SHAPE('',$,#1179);
#1177=SHAPE_REPRESENTATION('',(#712),#1166);
#1178=PRODUCT_DEFINITION_CONTEXT('part definition',#1183,'design');
#1179=PRODUCT_DEFINITION('2026-09-28-16-33-15-710','Bottom Plate',#1180,
#1178);
#1180=PRODUCT_DEFINITION_FORMATION('',$,#1185);
#1181=PRODUCT_RELATED_PRODUCT_CATEGORY('Bottom Plate','Bottom Plate',(#1185));
#1182=APPLICATION_PROTOCOL_DEFINITION('international standard',
'automotive_design',2009,#1183);
#1183=APPLICATION_CONTEXT(
'Core Data for Automotive Mechanical Design Process');
#1184=PRODUCT_CONTEXT('part definition',#1183,'mechanical');
#1185=PRODUCT('2026-09-28-16-33-15-710','Bottom Plate',$,(#1184));
#1186=PRESENTATION_STYLE_ASSIGNMENT((#1187));
#1187=SURFACE_STYLE_USAGE(.BOTH.,#1188);
#1188=SURFACE_SIDE_STYLE('',(#1189));
#1189=SURFACE_STYLE_FILL_AREA(#1190);
#1190=FILL_AREA_STYLE('Steel - Satin',(#1191));
#1191=FILL_AREA_STYLE_COLOUR('Steel - Satin',#1192);
#1192=COLOUR_RGB('Steel - Satin',0.627450980392157,0.627450980392157,0.627450980392157);
ENDSEC;
END-ISO-10303-21;
